M48
; DRILL file {KiCad (6.0.7)} date Fri Jan 27 10:25:35 2023
; FORMAT={-:-/ absolute / metric / decimal}
; #@! TF.CreationDate,2023-01-27T10:25:35-08:00
; #@! TF.GenerationSoftware,Kicad,Pcbnew,(6.0.7)
; #@! TF.FileFunction,Plated,1,4,PTH
FMAT,2
METRIC
; #@! TA.AperFunction,Plated,PTH,ComponentDrill
T1C0.200
; #@! TA.AperFunction,Plated,PTH,ViaDrill
T2C0.400
; #@! TA.AperFunction,Plated,PTH,ComponentDrill
T3C0.600
; #@! TA.AperFunction,Plated,PTH,ComponentDrill
T4C1.000
; #@! TA.AperFunction,Plated,PTH,ComponentDrill
T5C1.500
; #@! TA.AperFunction,Plated,PTH,ComponentDrill
T6C3.200
; #@! TA.AperFunction,Plated,PTH,ComponentDrill
T7C4.300
%
G90
G05
T1
X172.705Y-125.365
X172.705Y-126.365
X172.705Y-127.365
X174.005Y-125.365
X174.005Y-126.365
X174.005Y-127.365
X177.658Y-75.454
X177.658Y-76.454
X177.658Y-77.454
X178.958Y-75.454
X178.958Y-76.454
X178.958Y-77.454
X214.299Y-70.489
X214.299Y-71.489
X214.299Y-72.489
X215.599Y-70.489
X215.599Y-71.489
X215.599Y-72.489
T2
X146.304Y-129.794
X146.812Y-79.248
X147.32Y-129.794
X148.336Y-129.794
X152.527Y-88.138
X153.924Y-88.392
X155.448Y-74.422
X155.702Y-85.598
X156.718Y-73.66
X156.718Y-76.2
X157.48Y-95.504
X157.734Y-139.192
X158.242Y-126.746
X161.798Y-124.968
X162.306Y-94.742
X163.83Y-96.012
X165.608Y-85.09
X165.608Y-138.684
X166.497Y-118.491
X167.259Y-98.171
X167.894Y-136.906
X168.529Y-69.977
X169.164Y-125.476
X169.291Y-68.58
X169.418Y-122.936
X169.672Y-102.362
X170.434Y-80.518
X170.434Y-93.726
X170.434Y-96.012
X170.708Y-91.186
X171.323Y-81.534
X171.844Y-71.247
X171.958Y-69.596
X171.958Y-128.778
X171.958Y-143.256
X172.466Y-134.112
X172.523Y-137.471
X172.537Y-135.565
X173.482Y-94.996
X173.736Y-92.71
X173.863Y-83.693
X173.99Y-74.946
X173.99Y-75.946
X174.117Y-101.6
X174.244Y-78.486
X174.244Y-134.112
X174.244Y-137.414
X174.315Y-135.565
X174.498Y-87.63
X175.514Y-94.488
X175.641Y-81.661
X175.641Y-119.253
X176.276Y-140.856
X176.276Y-142.355
X176.375Y-139.347
X176.53Y-97.536
X176.657Y-79.756
X176.657Y-80.756
X178.562Y-136.652
X178.562Y-141.732
X179.07Y-85.471
X179.832Y-98.044
X180.086Y-88.138
X180.086Y-94.996
X180.213Y-93.472
X180.34Y-85.852
X182.165Y-85.852
X182.372Y-75.946
X182.372Y-88.138
X182.626Y-119.253
X183.769Y-108.712
X184.531Y-83.566
X185.166Y-98.298
X185.166Y-102.108
X185.674Y-104.381
X186.055Y-78.232
X186.182Y-81.026
X186.182Y-100.838
X186.817Y-111.379
X186.944Y-85.344
X187.198Y-144.272
X187.706Y-89.027
X188.468Y-84.148
X188.468Y-100.076
X188.595Y-76.073
X188.976Y-92.964
X190.246Y-95.758
X190.754Y-78.359
X190.766Y-87.884
X190.839Y-104.606
X190.881Y-106.299
X191.008Y-93.726
X191.163Y-99.981
X192.405Y-100.965
X192.532Y-81.026
X193.04Y-92.837
X193.294Y-86.106
X193.294Y-130.81
X193.294Y-133.35
X193.368Y-94.983
X193.548Y-76.2
X194.31Y-130.81
X194.31Y-133.35
X194.437Y-90.424
X194.691Y-86.36
X194.763Y-87.886
X194.818Y-75.438
X195.326Y-72.898
X195.707Y-89.027
X195.707Y-92.329
X195.834Y-80.772
X196.85Y-89.027
X197.104Y-107.696
X197.126Y-78.762
X197.485Y-75.184
X198.081Y-79.058
X198.12Y-88.9
X198.374Y-85.204
X198.755Y-70.739
X199.009Y-108.712
X199.136Y-84.455
X199.189Y-88.885
X200.152Y-100.584
X200.152Y-102.362
X201.041Y-74.803
X201.803Y-76.2
X201.803Y-81.407
X201.93Y-83.058
X202.057Y-70.739
X202.819Y-76.835
X202.946Y-85.712
X203.327Y-90.173
X203.861Y-87.477
X204.216Y-73.787
X204.571Y-86.767
X205.486Y-83.566
X205.613Y-74.803
X205.625Y-101.81
X206.121Y-75.819
X206.248Y-118.872
X207.264Y-85.09
X207.27Y-125.045
X207.518Y-88.392
X208.274Y-125.045
X208.407Y-143.002
X208.534Y-99.06
X208.788Y-108.331
X208.788Y-114.554
X209.042Y-84.328
X209.931Y-69.596
X210.693Y-70.866
X210.82Y-109.982
X211.074Y-104.394
X211.328Y-112.014
X211.455Y-102.743
X212.217Y-99.822
X212.852Y-142.855
X214.376Y-129.794
X214.376Y-143.002
X215.392Y-103.378
X216.154Y-114.046
X216.154Y-116.586
X216.662Y-107.696
X217.551Y-68.961
X218.186Y-74.168
X219.799Y-90.043
T3
X142.317Y-63.754
X142.317Y-142.748
X143.262Y-61.474
X143.262Y-66.034
X143.262Y-140.468
X143.262Y-145.028
X145.542Y-60.529
X145.542Y-66.979
X145.542Y-139.523
X145.542Y-145.973
X147.822Y-61.474
X147.822Y-66.034
X147.822Y-140.468
X147.822Y-145.028
X148.767Y-63.754
X148.767Y-142.748
X221.311Y-63.754
X221.311Y-142.748
X222.256Y-61.474
X222.256Y-66.034
X222.256Y-140.468
X222.256Y-145.028
X224.536Y-60.529
X224.536Y-66.979
X224.536Y-139.523
X224.536Y-145.973
X226.816Y-61.474
X226.816Y-66.034
X226.816Y-140.468
X226.816Y-145.028
X227.761Y-63.754
X227.761Y-142.748
T4
X147.575Y-82.602
X147.575Y-85.372
X147.575Y-88.142
X147.575Y-90.912
X147.575Y-93.682
X147.575Y-96.452
X147.575Y-99.222
X150.415Y-81.217
X150.415Y-83.987
X150.415Y-86.757
X150.415Y-89.527
X150.415Y-92.297
X150.415Y-95.067
X150.415Y-97.837
X150.415Y-100.607
X164.084Y-77.475
X164.084Y-80.015
X164.084Y-82.555
X164.084Y-85.095
X164.084Y-87.635
X164.211Y-62.738
X164.211Y-65.278
X166.751Y-62.738
X166.751Y-65.278
X168.758Y-75.555
X168.758Y-78.095
X168.758Y-80.635
X168.758Y-83.175
X168.758Y-85.715
X168.758Y-88.255
X168.758Y-90.795
X168.758Y-93.335
X168.758Y-95.875
X169.291Y-62.738
X169.291Y-65.278
X171.831Y-62.738
X171.831Y-65.278
X174.371Y-62.738
X174.371Y-65.278
X176.911Y-62.738
X176.911Y-65.278
X179.451Y-62.738
X179.451Y-65.278
X181.991Y-62.738
X181.991Y-65.278
X184.531Y-62.738
X184.531Y-65.278
X185.928Y-69.088
X187.071Y-62.738
X187.071Y-65.278
X187.071Y-114.3
X188.468Y-69.088
X189.611Y-62.738
X189.611Y-65.278
X189.611Y-114.3
X191.008Y-69.088
X192.151Y-62.738
X192.151Y-65.278
X192.151Y-114.3
X194.691Y-62.738
X194.691Y-65.278
X194.691Y-114.3
X197.231Y-62.738
X197.231Y-65.278
X197.231Y-114.3
X199.771Y-62.738
X199.771Y-65.278
X199.771Y-114.3
X202.311Y-62.738
X202.311Y-65.278
X202.311Y-114.3
X204.851Y-62.738
X204.851Y-65.278
X204.851Y-114.3
X207.391Y-62.738
X207.391Y-65.278
X209.931Y-62.738
X209.931Y-65.278
X212.471Y-62.738
X212.471Y-65.278
X222.123Y-73.66
X222.123Y-76.2
X222.123Y-78.74
X222.123Y-81.28
X222.123Y-83.82
X222.123Y-86.36
X222.123Y-88.9
X222.123Y-91.44
X222.123Y-93.98
X222.123Y-96.52
X222.123Y-99.06
X222.123Y-101.6
X222.123Y-104.14
X222.123Y-106.68
X222.123Y-109.22
X222.123Y-111.76
X222.123Y-114.3
X222.123Y-116.84
X222.123Y-119.38
X222.123Y-121.92
X224.663Y-73.66
X224.663Y-76.2
X224.663Y-78.74
X224.663Y-81.28
X224.663Y-83.82
X224.663Y-86.36
X224.663Y-88.9
X224.663Y-91.44
X224.663Y-93.98
X224.663Y-96.52
X224.663Y-99.06
X224.663Y-101.6
X224.663Y-104.14
X224.663Y-106.68
X224.663Y-109.22
X224.663Y-111.76
X224.663Y-114.3
X224.663Y-116.84
X224.663Y-119.38
X224.663Y-121.92
T5
X149.332Y-115.752
X149.332Y-120.752
T6
X148.995Y-74.262
X148.995Y-107.562
T7
X145.542Y-63.754
X145.542Y-142.748
X224.536Y-63.754
X224.536Y-142.748
T0
M30
