%TF.GenerationSoftware,KiCad,Pcbnew,(6.0.7)*%
%TF.CreationDate,2023-01-27T10:25:26-08:00*%
%TF.ProjectId,FlightComputer,466c6967-6874-4436-9f6d-70757465722e,rev?*%
%TF.SameCoordinates,Original*%
%TF.FileFunction,Legend,Bot*%
%TF.FilePolarity,Positive*%
%FSLAX46Y46*%
G04 Gerber Fmt 4.6, Leading zero omitted, Abs format (unit mm)*
G04 Created by KiCad (PCBNEW (6.0.7)) date 2023-01-27 10:25:26*
%MOMM*%
%LPD*%
G01*
G04 APERTURE LIST*
%TA.AperFunction,Profile*%
%ADD10C,0.200000*%
%TD*%
%ADD11C,0.150000*%
%ADD12C,0.125000*%
G04 APERTURE END LIST*
D10*
X227330000Y-148166000D02*
X142410000Y-148166000D01*
X229870000Y-60706000D02*
X229870000Y-145626000D01*
X229870000Y-60706000D02*
G75*
G03*
X227330000Y-58166000I-2540000J0D01*
G01*
X139870000Y-145626000D02*
X139870000Y-60706000D01*
X227330000Y-148166000D02*
G75*
G03*
X229870000Y-145626000I0J2540000D01*
G01*
X139870000Y-145626000D02*
G75*
G03*
X142410000Y-148166000I2540000J0D01*
G01*
X142410000Y-58166000D02*
X227330000Y-58166000D01*
X142410000Y-58166000D02*
G75*
G03*
X139870000Y-60706000I0J-2540000D01*
G01*
D11*
X153350261Y-100163380D02*
X152778833Y-100163380D01*
X153064547Y-101163380D02*
X153064547Y-100163380D01*
X152540738Y-100163380D02*
X151874071Y-101163380D01*
X151874071Y-100163380D02*
X152540738Y-101163380D01*
D12*
X166395333Y-93265000D02*
X166462000Y-93231666D01*
X166562000Y-93231666D01*
X166662000Y-93265000D01*
X166728666Y-93331666D01*
X166762000Y-93398333D01*
X166795333Y-93531666D01*
X166795333Y-93631666D01*
X166762000Y-93765000D01*
X166728666Y-93831666D01*
X166662000Y-93898333D01*
X166562000Y-93931666D01*
X166495333Y-93931666D01*
X166395333Y-93898333D01*
X166362000Y-93865000D01*
X166362000Y-93631666D01*
X166495333Y-93631666D01*
X166062000Y-93931666D02*
X166062000Y-93231666D01*
X165662000Y-93931666D01*
X165662000Y-93231666D01*
X165328666Y-93931666D02*
X165328666Y-93231666D01*
X165162000Y-93231666D01*
X165062000Y-93265000D01*
X164995333Y-93331666D01*
X164962000Y-93398333D01*
X164928666Y-93531666D01*
X164928666Y-93631666D01*
X164962000Y-93765000D01*
X164995333Y-93831666D01*
X165062000Y-93898333D01*
X165162000Y-93931666D01*
X165328666Y-93931666D01*
X166795333Y-95485666D02*
X166562000Y-96185666D01*
X166328666Y-95485666D01*
X165695333Y-96119000D02*
X165728666Y-96152333D01*
X165828666Y-96185666D01*
X165895333Y-96185666D01*
X165995333Y-96152333D01*
X166062000Y-96085666D01*
X166095333Y-96019000D01*
X166128666Y-95885666D01*
X166128666Y-95785666D01*
X166095333Y-95652333D01*
X166062000Y-95585666D01*
X165995333Y-95519000D01*
X165895333Y-95485666D01*
X165828666Y-95485666D01*
X165728666Y-95519000D01*
X165695333Y-95552333D01*
X164995333Y-96119000D02*
X165028666Y-96152333D01*
X165128666Y-96185666D01*
X165195333Y-96185666D01*
X165295333Y-96152333D01*
X165362000Y-96085666D01*
X165395333Y-96019000D01*
X165428666Y-95885666D01*
X165428666Y-95785666D01*
X165395333Y-95652333D01*
X165362000Y-95585666D01*
X165295333Y-95519000D01*
X165195333Y-95485666D01*
X165128666Y-95485666D01*
X165028666Y-95519000D01*
X164995333Y-95552333D01*
D11*
X154413976Y-81605380D02*
X154747309Y-81129190D01*
X154985404Y-81605380D02*
X154985404Y-80605380D01*
X154604452Y-80605380D01*
X154509214Y-80653000D01*
X154461595Y-80700619D01*
X154413976Y-80795857D01*
X154413976Y-80938714D01*
X154461595Y-81033952D01*
X154509214Y-81081571D01*
X154604452Y-81129190D01*
X154985404Y-81129190D01*
X154080642Y-80605380D02*
X153413976Y-81605380D01*
X153413976Y-80605380D02*
X154080642Y-81605380D01*
X152271119Y-81081571D02*
X151937785Y-81081571D01*
X151794928Y-81605380D02*
X152271119Y-81605380D01*
X152271119Y-80605380D01*
X151794928Y-80605380D01*
X153223261Y-88987380D02*
X152651833Y-88987380D01*
X152937547Y-89987380D02*
X152937547Y-88987380D01*
X152413738Y-88987380D02*
X151747071Y-89987380D01*
X151747071Y-88987380D02*
X152413738Y-89987380D01*
X145639214Y-90480000D02*
X145734452Y-90432380D01*
X145877309Y-90432380D01*
X146020166Y-90480000D01*
X146115404Y-90575238D01*
X146163023Y-90670476D01*
X146210642Y-90860952D01*
X146210642Y-91003809D01*
X146163023Y-91194285D01*
X146115404Y-91289523D01*
X146020166Y-91384761D01*
X145877309Y-91432380D01*
X145782071Y-91432380D01*
X145639214Y-91384761D01*
X145591595Y-91337142D01*
X145591595Y-91003809D01*
X145782071Y-91003809D01*
X145163023Y-91432380D02*
X145163023Y-90432380D01*
X144591595Y-91432380D01*
X144591595Y-90432380D01*
X144115404Y-91432380D02*
X144115404Y-90432380D01*
X143877309Y-90432380D01*
X143734452Y-90480000D01*
X143639214Y-90575238D01*
X143591595Y-90670476D01*
X143543976Y-90860952D01*
X143543976Y-91003809D01*
X143591595Y-91194285D01*
X143639214Y-91289523D01*
X143734452Y-91384761D01*
X143877309Y-91432380D01*
X144115404Y-91432380D01*
X146528071Y-87662380D02*
X145956642Y-87662380D01*
X146242357Y-88662380D02*
X146242357Y-87662380D01*
X145718547Y-87662380D02*
X145051880Y-88662380D01*
X145051880Y-87662380D02*
X145718547Y-88662380D01*
X143718547Y-87662380D02*
X143528071Y-87662380D01*
X143432833Y-87710000D01*
X143337595Y-87805238D01*
X143289976Y-87995714D01*
X143289976Y-88329047D01*
X143337595Y-88519523D01*
X143432833Y-88614761D01*
X143528071Y-88662380D01*
X143718547Y-88662380D01*
X143813785Y-88614761D01*
X143909023Y-88519523D01*
X143956642Y-88329047D01*
X143956642Y-87995714D01*
X143909023Y-87805238D01*
X143813785Y-87710000D01*
X143718547Y-87662380D01*
D12*
X162096333Y-77356666D02*
X161863000Y-78056666D01*
X161629666Y-77356666D01*
X160996333Y-77990000D02*
X161029666Y-78023333D01*
X161129666Y-78056666D01*
X161196333Y-78056666D01*
X161296333Y-78023333D01*
X161363000Y-77956666D01*
X161396333Y-77890000D01*
X161429666Y-77756666D01*
X161429666Y-77656666D01*
X161396333Y-77523333D01*
X161363000Y-77456666D01*
X161296333Y-77390000D01*
X161196333Y-77356666D01*
X161129666Y-77356666D01*
X161029666Y-77390000D01*
X160996333Y-77423333D01*
X160296333Y-77990000D02*
X160329666Y-78023333D01*
X160429666Y-78056666D01*
X160496333Y-78056666D01*
X160596333Y-78023333D01*
X160663000Y-77956666D01*
X160696333Y-77890000D01*
X160729666Y-77756666D01*
X160729666Y-77656666D01*
X160696333Y-77523333D01*
X160663000Y-77456666D01*
X160596333Y-77390000D01*
X160496333Y-77356666D01*
X160429666Y-77356666D01*
X160329666Y-77390000D01*
X160296333Y-77423333D01*
X161696333Y-79644000D02*
X161763000Y-79610666D01*
X161863000Y-79610666D01*
X161963000Y-79644000D01*
X162029666Y-79710666D01*
X162063000Y-79777333D01*
X162096333Y-79910666D01*
X162096333Y-80010666D01*
X162063000Y-80144000D01*
X162029666Y-80210666D01*
X161963000Y-80277333D01*
X161863000Y-80310666D01*
X161796333Y-80310666D01*
X161696333Y-80277333D01*
X161663000Y-80244000D01*
X161663000Y-80010666D01*
X161796333Y-80010666D01*
X161363000Y-80310666D02*
X161363000Y-79610666D01*
X160963000Y-80310666D01*
X160963000Y-79610666D01*
X160629666Y-80310666D02*
X160629666Y-79610666D01*
X160463000Y-79610666D01*
X160363000Y-79644000D01*
X160296333Y-79710666D01*
X160263000Y-79777333D01*
X160229666Y-79910666D01*
X160229666Y-80010666D01*
X160263000Y-80144000D01*
X160296333Y-80210666D01*
X160363000Y-80277333D01*
X160463000Y-80310666D01*
X160629666Y-80310666D01*
D11*
X154413976Y-92781380D02*
X154747309Y-92305190D01*
X154985404Y-92781380D02*
X154985404Y-91781380D01*
X154604452Y-91781380D01*
X154509214Y-91829000D01*
X154461595Y-91876619D01*
X154413976Y-91971857D01*
X154413976Y-92114714D01*
X154461595Y-92209952D01*
X154509214Y-92257571D01*
X154604452Y-92305190D01*
X154985404Y-92305190D01*
X154080642Y-91781380D02*
X153413976Y-92781380D01*
X153413976Y-91781380D02*
X154080642Y-92781380D01*
X152271119Y-92257571D02*
X151937785Y-92257571D01*
X151794928Y-92781380D02*
X152271119Y-92781380D01*
X152271119Y-91781380D01*
X151794928Y-91781380D01*
X154874261Y-94448380D02*
X154302833Y-94448380D01*
X154588547Y-95448380D02*
X154588547Y-94448380D01*
X154064738Y-94448380D02*
X153398071Y-95448380D01*
X153398071Y-94448380D02*
X154064738Y-95448380D01*
X152255214Y-94924571D02*
X151921880Y-94924571D01*
X151779023Y-95448380D02*
X152255214Y-95448380D01*
X152255214Y-94448380D01*
X151779023Y-94448380D01*
X146274071Y-95972380D02*
X145702642Y-95972380D01*
X145988357Y-96972380D02*
X145988357Y-95972380D01*
X145464547Y-95972380D02*
X144797880Y-96972380D01*
X144797880Y-95972380D02*
X145464547Y-96972380D01*
X143464547Y-95972380D02*
X143274071Y-95972380D01*
X143178833Y-96020000D01*
X143083595Y-96115238D01*
X143035976Y-96305714D01*
X143035976Y-96639047D01*
X143083595Y-96829523D01*
X143178833Y-96924761D01*
X143274071Y-96972380D01*
X143464547Y-96972380D01*
X143559785Y-96924761D01*
X143655023Y-96829523D01*
X143702642Y-96639047D01*
X143702642Y-96305714D01*
X143655023Y-96115238D01*
X143559785Y-96020000D01*
X143464547Y-95972380D01*
X146353547Y-82256380D02*
X145734500Y-82256380D01*
X146067833Y-82637333D01*
X145924976Y-82637333D01*
X145829738Y-82684952D01*
X145782119Y-82732571D01*
X145734500Y-82827809D01*
X145734500Y-83065904D01*
X145782119Y-83161142D01*
X145829738Y-83208761D01*
X145924976Y-83256380D01*
X146210690Y-83256380D01*
X146305928Y-83208761D01*
X146353547Y-83161142D01*
X145448785Y-82256380D02*
X145115452Y-83256380D01*
X144782119Y-82256380D01*
X144544023Y-82256380D02*
X143924976Y-82256380D01*
X144258309Y-82637333D01*
X144115452Y-82637333D01*
X144020214Y-82684952D01*
X143972595Y-82732571D01*
X143924976Y-82827809D01*
X143924976Y-83065904D01*
X143972595Y-83161142D01*
X144020214Y-83208761D01*
X144115452Y-83256380D01*
X144401166Y-83256380D01*
X144496404Y-83208761D01*
X144544023Y-83161142D01*
X152889976Y-87193380D02*
X153223309Y-86717190D01*
X153461404Y-87193380D02*
X153461404Y-86193380D01*
X153080452Y-86193380D01*
X152985214Y-86241000D01*
X152937595Y-86288619D01*
X152889976Y-86383857D01*
X152889976Y-86526714D01*
X152937595Y-86621952D01*
X152985214Y-86669571D01*
X153080452Y-86717190D01*
X153461404Y-86717190D01*
X152556642Y-86193380D02*
X151889976Y-87193380D01*
X151889976Y-86193380D02*
X152556642Y-87193380D01*
X145670880Y-85796380D02*
X146004214Y-85320190D01*
X146242309Y-85796380D02*
X146242309Y-84796380D01*
X145861357Y-84796380D01*
X145766119Y-84844000D01*
X145718500Y-84891619D01*
X145670880Y-84986857D01*
X145670880Y-85129714D01*
X145718500Y-85224952D01*
X145766119Y-85272571D01*
X145861357Y-85320190D01*
X146242309Y-85320190D01*
X145337547Y-84796380D02*
X144670880Y-85796380D01*
X144670880Y-84796380D02*
X145337547Y-85796380D01*
X143337547Y-84796380D02*
X143147071Y-84796380D01*
X143051833Y-84844000D01*
X142956595Y-84939238D01*
X142908976Y-85129714D01*
X142908976Y-85463047D01*
X142956595Y-85653523D01*
X143051833Y-85748761D01*
X143147071Y-85796380D01*
X143337547Y-85796380D01*
X143432785Y-85748761D01*
X143528023Y-85653523D01*
X143575642Y-85463047D01*
X143575642Y-85129714D01*
X143528023Y-84939238D01*
X143432785Y-84844000D01*
X143337547Y-84796380D01*
X145655119Y-98766380D02*
X146131309Y-98766380D01*
X146178928Y-99242571D01*
X146131309Y-99194952D01*
X146036071Y-99147333D01*
X145797976Y-99147333D01*
X145702738Y-99194952D01*
X145655119Y-99242571D01*
X145607500Y-99337809D01*
X145607500Y-99575904D01*
X145655119Y-99671142D01*
X145702738Y-99718761D01*
X145797976Y-99766380D01*
X146036071Y-99766380D01*
X146131309Y-99718761D01*
X146178928Y-99671142D01*
X145321785Y-98766380D02*
X144988452Y-99766380D01*
X144655119Y-98766380D01*
X144131309Y-98766380D02*
X144036071Y-98766380D01*
X143940833Y-98814000D01*
X143893214Y-98861619D01*
X143845595Y-98956857D01*
X143797976Y-99147333D01*
X143797976Y-99385428D01*
X143845595Y-99575904D01*
X143893214Y-99671142D01*
X143940833Y-99718761D01*
X144036071Y-99766380D01*
X144131309Y-99766380D01*
X144226547Y-99718761D01*
X144274166Y-99671142D01*
X144321785Y-99575904D01*
X144369404Y-99385428D01*
X144369404Y-99147333D01*
X144321785Y-98956857D01*
X144274166Y-98861619D01*
X144226547Y-98814000D01*
X144131309Y-98766380D01*
X152762976Y-98357380D02*
X153096309Y-97881190D01*
X153334404Y-98357380D02*
X153334404Y-97357380D01*
X152953452Y-97357380D01*
X152858214Y-97405000D01*
X152810595Y-97452619D01*
X152762976Y-97547857D01*
X152762976Y-97690714D01*
X152810595Y-97785952D01*
X152858214Y-97833571D01*
X152953452Y-97881190D01*
X153334404Y-97881190D01*
X152429642Y-97357380D02*
X151762976Y-98357380D01*
X151762976Y-97357380D02*
X152429642Y-98357380D01*
X154874261Y-83526380D02*
X154302833Y-83526380D01*
X154588547Y-84526380D02*
X154588547Y-83526380D01*
X154064738Y-83526380D02*
X153398071Y-84526380D01*
X153398071Y-83526380D02*
X154064738Y-84526380D01*
X152255214Y-84002571D02*
X151921880Y-84002571D01*
X151779023Y-84526380D02*
X152255214Y-84526380D01*
X152255214Y-83526380D01*
X151779023Y-83526380D01*
X145670880Y-94202380D02*
X146004214Y-93726190D01*
X146242309Y-94202380D02*
X146242309Y-93202380D01*
X145861357Y-93202380D01*
X145766119Y-93250000D01*
X145718500Y-93297619D01*
X145670880Y-93392857D01*
X145670880Y-93535714D01*
X145718500Y-93630952D01*
X145766119Y-93678571D01*
X145861357Y-93726190D01*
X146242309Y-93726190D01*
X145337547Y-93202380D02*
X144670880Y-94202380D01*
X144670880Y-93202380D02*
X145337547Y-94202380D01*
X143337547Y-93202380D02*
X143147071Y-93202380D01*
X143051833Y-93250000D01*
X142956595Y-93345238D01*
X142908976Y-93535714D01*
X142908976Y-93869047D01*
X142956595Y-94059523D01*
X143051833Y-94154761D01*
X143147071Y-94202380D01*
X143337547Y-94202380D01*
X143432785Y-94154761D01*
X143528023Y-94059523D01*
X143575642Y-93869047D01*
X143575642Y-93535714D01*
X143528023Y-93345238D01*
X143432785Y-93250000D01*
X143337547Y-93202380D01*
%TO.C,J4*%
X165179238Y-90417380D02*
X165179238Y-89417380D01*
X164703047Y-90417380D02*
X164703047Y-89417380D01*
X164369714Y-90131666D01*
X164036380Y-89417380D01*
X164036380Y-90417380D01*
X163560190Y-89417380D02*
X163560190Y-90226904D01*
X163512571Y-90322142D01*
X163464952Y-90369761D01*
X163369714Y-90417380D01*
X163179238Y-90417380D01*
X163084000Y-90369761D01*
X163036380Y-90322142D01*
X162988761Y-90226904D01*
X162988761Y-89417380D01*
%TO.C,J6*%
X169996095Y-73237380D02*
X169996095Y-72237380D01*
X169662761Y-72951666D01*
X169329428Y-72237380D01*
X169329428Y-73237380D01*
X168424666Y-73237380D02*
X168424666Y-72713571D01*
X168472285Y-72618333D01*
X168567523Y-72570714D01*
X168758000Y-72570714D01*
X168853238Y-72618333D01*
X168424666Y-73189761D02*
X168519904Y-73237380D01*
X168758000Y-73237380D01*
X168853238Y-73189761D01*
X168900857Y-73094523D01*
X168900857Y-72999285D01*
X168853238Y-72904047D01*
X168758000Y-72856428D01*
X168519904Y-72856428D01*
X168424666Y-72808809D01*
X167519904Y-72570714D02*
X167519904Y-73380238D01*
X167567523Y-73475476D01*
X167615142Y-73523095D01*
X167710380Y-73570714D01*
X167853238Y-73570714D01*
X167948476Y-73523095D01*
X167519904Y-73189761D02*
X167615142Y-73237380D01*
X167805619Y-73237380D01*
X167900857Y-73189761D01*
X167948476Y-73142142D01*
X167996095Y-73046904D01*
X167996095Y-72761190D01*
X167948476Y-72665952D01*
X167900857Y-72618333D01*
X167805619Y-72570714D01*
X167615142Y-72570714D01*
X167519904Y-72618333D01*
%TD*%
M02*
