%TF.GenerationSoftware,KiCad,Pcbnew,(6.0.7)*%
%TF.CreationDate,2023-01-27T10:25:26-08:00*%
%TF.ProjectId,FlightComputer,466c6967-6874-4436-9f6d-70757465722e,rev?*%
%TF.SameCoordinates,Original*%
%TF.FileFunction,Paste,Top*%
%TF.FilePolarity,Positive*%
%FSLAX46Y46*%
G04 Gerber Fmt 4.6, Leading zero omitted, Abs format (unit mm)*
G04 Created by KiCad (PCBNEW (6.0.7)) date 2023-01-27 10:25:26*
%MOMM*%
%LPD*%
G01*
G04 APERTURE LIST*
G04 Aperture macros list*
%AMRoundRect*
0 Rectangle with rounded corners*
0 $1 Rounding radius*
0 $2 $3 $4 $5 $6 $7 $8 $9 X,Y pos of 4 corners*
0 Add a 4 corners polygon primitive as box body*
4,1,4,$2,$3,$4,$5,$6,$7,$8,$9,$2,$3,0*
0 Add four circle primitives for the rounded corners*
1,1,$1+$1,$2,$3*
1,1,$1+$1,$4,$5*
1,1,$1+$1,$6,$7*
1,1,$1+$1,$8,$9*
0 Add four rect primitives between the rounded corners*
20,1,$1+$1,$2,$3,$4,$5,0*
20,1,$1+$1,$4,$5,$6,$7,0*
20,1,$1+$1,$6,$7,$8,$9,0*
20,1,$1+$1,$8,$9,$2,$3,0*%
G04 Aperture macros list end*
%TA.AperFunction,Profile*%
%ADD10C,0.200000*%
%TD*%
%ADD11RoundRect,0.240000X-0.240000X-0.385000X0.240000X-0.385000X0.240000X0.385000X-0.240000X0.385000X0*%
%ADD12RoundRect,0.150000X-0.825000X-0.150000X0.825000X-0.150000X0.825000X0.150000X-0.825000X0.150000X0*%
%ADD13R,3.400000X1.800000*%
%ADD14R,1.800000X3.400000*%
%ADD15RoundRect,0.250000X-0.400000X-1.450000X0.400000X-1.450000X0.400000X1.450000X-0.400000X1.450000X0*%
%ADD16RoundRect,0.237500X0.300000X0.237500X-0.300000X0.237500X-0.300000X-0.237500X0.300000X-0.237500X0*%
%ADD17RoundRect,0.237500X-0.300000X-0.237500X0.300000X-0.237500X0.300000X0.237500X-0.300000X0.237500X0*%
%ADD18RoundRect,0.237500X-0.237500X0.300000X-0.237500X-0.300000X0.237500X-0.300000X0.237500X0.300000X0*%
%ADD19RoundRect,0.250000X-0.650000X0.412500X-0.650000X-0.412500X0.650000X-0.412500X0.650000X0.412500X0*%
%ADD20RoundRect,0.237500X-0.250000X-0.237500X0.250000X-0.237500X0.250000X0.237500X-0.250000X0.237500X0*%
%ADD21RoundRect,0.237500X0.237500X-0.300000X0.237500X0.300000X-0.237500X0.300000X-0.237500X-0.300000X0*%
%ADD22RoundRect,0.237500X-0.237500X0.250000X-0.237500X-0.250000X0.237500X-0.250000X0.237500X0.250000X0*%
%ADD23RoundRect,0.237500X0.237500X-0.287500X0.237500X0.287500X-0.237500X0.287500X-0.237500X-0.287500X0*%
%ADD24R,2.100000X0.750000*%
%ADD25RoundRect,0.237500X0.237500X-0.250000X0.237500X0.250000X-0.237500X0.250000X-0.237500X-0.250000X0*%
%ADD26RoundRect,0.237500X0.250000X0.237500X-0.250000X0.237500X-0.250000X-0.237500X0.250000X-0.237500X0*%
%ADD27RoundRect,0.075000X-0.725000X-0.075000X0.725000X-0.075000X0.725000X0.075000X-0.725000X0.075000X0*%
%ADD28RoundRect,0.075000X-0.075000X-0.725000X0.075000X-0.725000X0.075000X0.725000X-0.075000X0.725000X0*%
%ADD29R,1.200000X1.800000*%
%ADD30RoundRect,0.232500X-0.757500X-0.232500X0.757500X-0.232500X0.757500X0.232500X-0.757500X0.232500X0*%
%ADD31RoundRect,0.100000X-0.687500X-0.100000X0.687500X-0.100000X0.687500X0.100000X-0.687500X0.100000X0*%
%ADD32RoundRect,0.237500X-0.237500X0.287500X-0.237500X-0.287500X0.237500X-0.287500X0.237500X0.287500X0*%
%ADD33RoundRect,0.150000X0.512500X0.150000X-0.512500X0.150000X-0.512500X-0.150000X0.512500X-0.150000X0*%
%ADD34R,0.450000X1.380000*%
%ADD35R,1.425000X1.550000*%
%ADD36R,1.000000X1.900000*%
%ADD37R,1.650000X1.300000*%
%ADD38R,1.800000X1.900000*%
%ADD39R,0.850000X0.280000*%
%ADD40R,0.750000X0.280000*%
G04 APERTURE END LIST*
D10*
X227330000Y-148166000D02*
X142410000Y-148166000D01*
X229870000Y-60706000D02*
X229870000Y-145626000D01*
X229870000Y-60706000D02*
G75*
G03*
X227330000Y-58166000I-2540000J0D01*
G01*
X139870000Y-145626000D02*
X139870000Y-60706000D01*
X227330000Y-148166000D02*
G75*
G03*
X229870000Y-145626000I0J2540000D01*
G01*
X139870000Y-145626000D02*
G75*
G03*
X142410000Y-148166000I2540000J0D01*
G01*
X142410000Y-58166000D02*
X227330000Y-58166000D01*
X142410000Y-58166000D02*
G75*
G03*
X139870000Y-60706000I0J-2540000D01*
G01*
D11*
%TO.C,IC4*%
X173925000Y-127115000D03*
X172785000Y-127115000D03*
X172785000Y-125615000D03*
X173925000Y-125615000D03*
D12*
X170880000Y-124460000D03*
X170880000Y-125730000D03*
X170880000Y-127000000D03*
X170880000Y-128270000D03*
X175830000Y-128270000D03*
X175830000Y-127000000D03*
X175830000Y-125730000D03*
X175830000Y-124460000D03*
%TD*%
D13*
%TO.C,TP3*%
X165100000Y-142748000D03*
%TD*%
D14*
%TO.C,TP8*%
X190627000Y-120523000D03*
%TD*%
D15*
%TO.C,L1*%
X153670000Y-132080000D03*
X158120000Y-132080000D03*
%TD*%
D13*
%TO.C,TP13*%
X204089000Y-69596000D03*
%TD*%
D16*
%TO.C,C13*%
X182626000Y-100076000D03*
X180901000Y-100076000D03*
%TD*%
D17*
%TO.C,C23*%
X176583000Y-85598000D03*
X178308000Y-85598000D03*
%TD*%
D18*
%TO.C,C9*%
X179070000Y-132487500D03*
X179070000Y-134212500D03*
%TD*%
D19*
%TO.C,C6*%
X182880000Y-131495000D03*
X182880000Y-134620000D03*
%TD*%
D20*
%TO.C,R14*%
X209907500Y-141986000D03*
X211732500Y-141986000D03*
%TD*%
D13*
%TO.C,TP6*%
X159258000Y-77978000D03*
%TD*%
D21*
%TO.C,C15*%
X178562000Y-100076000D03*
X178562000Y-98351000D03*
%TD*%
D11*
%TO.C,IC3*%
X214379000Y-72239000D03*
X215519000Y-70739000D03*
X215519000Y-72239000D03*
X214379000Y-70739000D03*
D12*
X212474000Y-69584000D03*
X212474000Y-70854000D03*
X212474000Y-72124000D03*
X212474000Y-73394000D03*
X217424000Y-73394000D03*
X217424000Y-72124000D03*
X217424000Y-70854000D03*
X217424000Y-69584000D03*
%TD*%
D22*
%TO.C,R5*%
X184785000Y-136882500D03*
X184785000Y-138707500D03*
%TD*%
D18*
%TO.C,C19*%
X199263000Y-100584000D03*
X199263000Y-102309000D03*
%TD*%
D16*
%TO.C,C17*%
X182626000Y-94869000D03*
X180901000Y-94869000D03*
%TD*%
%TO.C,C22*%
X188441500Y-101346000D03*
X186716500Y-101346000D03*
%TD*%
D18*
%TO.C,C10*%
X198115000Y-132080000D03*
X198115000Y-133805000D03*
%TD*%
D13*
%TO.C,TP2*%
X190246000Y-143002000D03*
%TD*%
D23*
%TO.C,D1*%
X202692000Y-99554000D03*
X202692000Y-97804000D03*
%TD*%
D24*
%TO.C,J2*%
X214906000Y-114046000D03*
X211306000Y-114046000D03*
X214906000Y-115316000D03*
X211306000Y-115316000D03*
X214906000Y-116586000D03*
X211306000Y-116586000D03*
X214906000Y-117856000D03*
X211306000Y-117856000D03*
X214906000Y-119126000D03*
X211306000Y-119126000D03*
%TD*%
D25*
%TO.C,R9*%
X196088000Y-107569000D03*
X196088000Y-105744000D03*
%TD*%
D26*
%TO.C,R11*%
X182753000Y-91694000D03*
X180928000Y-91694000D03*
%TD*%
D13*
%TO.C,TP15*%
X164338000Y-117983000D03*
%TD*%
D21*
%TO.C,C4*%
X166370000Y-138657500D03*
X166370000Y-136932500D03*
%TD*%
D13*
%TO.C,TP10*%
X214122000Y-108712000D03*
%TD*%
D22*
%TO.C,R12*%
X191643000Y-77470000D03*
X191643000Y-79295000D03*
%TD*%
%TO.C,R6*%
X184785000Y-141685000D03*
X184785000Y-143510000D03*
%TD*%
D15*
%TO.C,L2*%
X187320000Y-132080000D03*
X191770000Y-132080000D03*
%TD*%
D13*
%TO.C,TP9*%
X167259000Y-102489000D03*
%TD*%
%TO.C,TP14*%
X208915000Y-77851000D03*
%TD*%
%TO.C,TP11*%
X214122000Y-101727000D03*
%TD*%
%TO.C,TP1*%
X151384000Y-127508000D03*
%TD*%
D26*
%TO.C,R2*%
X160321000Y-139192000D03*
X158496000Y-139192000D03*
%TD*%
D25*
%TO.C,R15*%
X212344000Y-140208000D03*
X212344000Y-138383000D03*
%TD*%
D18*
%TO.C,C1*%
X144780000Y-131217500D03*
X144780000Y-132942500D03*
%TD*%
D17*
%TO.C,C14*%
X203253000Y-78359000D03*
X204978000Y-78359000D03*
%TD*%
D11*
%TO.C,IC2*%
X178878000Y-75704000D03*
X178878000Y-77204000D03*
X177738000Y-77204000D03*
X177738000Y-75704000D03*
D12*
X175833000Y-74549000D03*
X175833000Y-75819000D03*
X175833000Y-77089000D03*
X175833000Y-78359000D03*
X180783000Y-78359000D03*
X180783000Y-77089000D03*
X180783000Y-75819000D03*
X180783000Y-74549000D03*
%TD*%
D21*
%TO.C,C3*%
X167005000Y-134212500D03*
X167005000Y-132487500D03*
%TD*%
D22*
%TO.C,R8*%
X193548000Y-77470000D03*
X193548000Y-79295000D03*
%TD*%
D16*
%TO.C,C21*%
X182753000Y-85979000D03*
X181028000Y-85979000D03*
%TD*%
%TO.C,C24*%
X178308000Y-94488000D03*
X176583000Y-94488000D03*
%TD*%
D22*
%TO.C,R16*%
X210820000Y-138383000D03*
X210820000Y-140208000D03*
%TD*%
D27*
%TO.C,U2*%
X185238000Y-84424000D03*
X185238000Y-84924000D03*
X185238000Y-85424000D03*
X185238000Y-85924000D03*
X185238000Y-86424000D03*
X185238000Y-86924000D03*
X185238000Y-87424000D03*
X185238000Y-87924000D03*
X185238000Y-88424000D03*
X185238000Y-88924000D03*
X185238000Y-89424000D03*
X185238000Y-89924000D03*
X185238000Y-90424000D03*
X185238000Y-90924000D03*
X185238000Y-91424000D03*
X185238000Y-91924000D03*
X185238000Y-92424000D03*
X185238000Y-92924000D03*
X185238000Y-93424000D03*
X185238000Y-93924000D03*
X185238000Y-94424000D03*
X185238000Y-94924000D03*
X185238000Y-95424000D03*
X185238000Y-95924000D03*
X185238000Y-96424000D03*
D28*
X186913000Y-98099000D03*
X187413000Y-98099000D03*
X187913000Y-98099000D03*
X188413000Y-98099000D03*
X188913000Y-98099000D03*
X189413000Y-98099000D03*
X189913000Y-98099000D03*
X190413000Y-98099000D03*
X190913000Y-98099000D03*
X191413000Y-98099000D03*
X191913000Y-98099000D03*
X192413000Y-98099000D03*
X192913000Y-98099000D03*
X193413000Y-98099000D03*
X193913000Y-98099000D03*
X194413000Y-98099000D03*
X194913000Y-98099000D03*
X195413000Y-98099000D03*
X195913000Y-98099000D03*
X196413000Y-98099000D03*
X196913000Y-98099000D03*
X197413000Y-98099000D03*
X197913000Y-98099000D03*
X198413000Y-98099000D03*
X198913000Y-98099000D03*
D27*
X200588000Y-96424000D03*
X200588000Y-95924000D03*
X200588000Y-95424000D03*
X200588000Y-94924000D03*
X200588000Y-94424000D03*
X200588000Y-93924000D03*
X200588000Y-93424000D03*
X200588000Y-92924000D03*
X200588000Y-92424000D03*
X200588000Y-91924000D03*
X200588000Y-91424000D03*
X200588000Y-90924000D03*
X200588000Y-90424000D03*
X200588000Y-89924000D03*
X200588000Y-89424000D03*
X200588000Y-88924000D03*
X200588000Y-88424000D03*
X200588000Y-87924000D03*
X200588000Y-87424000D03*
X200588000Y-86924000D03*
X200588000Y-86424000D03*
X200588000Y-85924000D03*
X200588000Y-85424000D03*
X200588000Y-84924000D03*
X200588000Y-84424000D03*
D28*
X198913000Y-82749000D03*
X198413000Y-82749000D03*
X197913000Y-82749000D03*
X197413000Y-82749000D03*
X196913000Y-82749000D03*
X196413000Y-82749000D03*
X195913000Y-82749000D03*
X195413000Y-82749000D03*
X194913000Y-82749000D03*
X194413000Y-82749000D03*
X193913000Y-82749000D03*
X193413000Y-82749000D03*
X192913000Y-82749000D03*
X192413000Y-82749000D03*
X191913000Y-82749000D03*
X191413000Y-82749000D03*
X190913000Y-82749000D03*
X190413000Y-82749000D03*
X189913000Y-82749000D03*
X189413000Y-82749000D03*
X188913000Y-82749000D03*
X188413000Y-82749000D03*
X187913000Y-82749000D03*
X187413000Y-82749000D03*
X186913000Y-82749000D03*
%TD*%
D21*
%TO.C,C18*%
X186690000Y-80010000D03*
X186690000Y-78285000D03*
%TD*%
D13*
%TO.C,TP4*%
X184150000Y-127000000D03*
%TD*%
D20*
%TO.C,R10*%
X204423000Y-102249000D03*
X206248000Y-102249000D03*
%TD*%
D25*
%TO.C,R13*%
X197993000Y-107569000D03*
X197993000Y-105744000D03*
%TD*%
D29*
%TO.C,Y1*%
X176403000Y-87948000D03*
X176403000Y-91948000D03*
X178803000Y-91948000D03*
X178803000Y-87948000D03*
%TD*%
D18*
%TO.C,C8*%
X180340000Y-136705000D03*
X180340000Y-138430000D03*
%TD*%
D30*
%TO.C,IC1*%
X173355000Y-135310000D03*
X173355000Y-136470000D03*
D31*
X170492500Y-133615000D03*
X170492500Y-134265000D03*
X170492500Y-134915000D03*
X170492500Y-135565000D03*
X170492500Y-136215000D03*
X170492500Y-136865000D03*
X170492500Y-137515000D03*
X170492500Y-138165000D03*
X176217500Y-138165000D03*
X176217500Y-137515000D03*
X176217500Y-136865000D03*
X176217500Y-136215000D03*
X176217500Y-135565000D03*
X176217500Y-134915000D03*
X176217500Y-134265000D03*
X176217500Y-133615000D03*
%TD*%
D13*
%TO.C,TP12*%
X197358000Y-69596000D03*
%TD*%
D25*
%TO.C,R7*%
X189738000Y-79271500D03*
X189738000Y-77446500D03*
%TD*%
D32*
%TO.C,L3*%
X176530000Y-98298000D03*
X176530000Y-100048000D03*
%TD*%
D33*
%TO.C,U3*%
X213354500Y-130680000D03*
X213354500Y-129730000D03*
X213354500Y-128780000D03*
X211079500Y-128780000D03*
X211079500Y-129730000D03*
X211079500Y-130680000D03*
%TD*%
D13*
%TO.C,TP7*%
X159258000Y-82550000D03*
%TD*%
D22*
%TO.C,R1*%
X162447500Y-137517500D03*
X162447500Y-139342500D03*
%TD*%
D20*
%TO.C,R4*%
X172927000Y-145034000D03*
X174752000Y-145034000D03*
%TD*%
D13*
%TO.C,TP5*%
X159258000Y-87122000D03*
%TD*%
D20*
%TO.C,R3*%
X168355000Y-145034000D03*
X170180000Y-145034000D03*
%TD*%
D19*
%TO.C,C5*%
X162560000Y-130810000D03*
X162560000Y-133935000D03*
%TD*%
D16*
%TO.C,C20*%
X182753000Y-88900000D03*
X181028000Y-88900000D03*
%TD*%
%TO.C,C12*%
X182626000Y-98044000D03*
X180901000Y-98044000D03*
%TD*%
D17*
%TO.C,C16*%
X203073000Y-83439000D03*
X204798000Y-83439000D03*
%TD*%
D34*
%TO.C,J3*%
X210282000Y-144145000D03*
X210932000Y-144145000D03*
X211582000Y-144145000D03*
X212232000Y-144145000D03*
X212882000Y-144145000D03*
D35*
X214069500Y-144230000D03*
D36*
X213132000Y-146805000D03*
D37*
X214957000Y-146805000D03*
D35*
X209094500Y-144230000D03*
D37*
X208207000Y-146805000D03*
D38*
X210432000Y-146805000D03*
%TD*%
D39*
%TO.C,U1*%
X173880000Y-142105000D03*
D40*
X173930000Y-141605000D03*
X173930000Y-141105000D03*
X172780000Y-141105000D03*
X172780000Y-141605000D03*
X172780000Y-142105000D03*
%TD*%
D18*
%TO.C,C7*%
X177800000Y-140107500D03*
X177800000Y-141832500D03*
%TD*%
%TO.C,C2*%
X149860000Y-131217500D03*
X149860000Y-132942500D03*
%TD*%
%TO.C,C11*%
X195580000Y-132080000D03*
X195580000Y-133805000D03*
%TD*%
M02*
