%TF.GenerationSoftware,KiCad,Pcbnew,(6.0.7)*%
%TF.CreationDate,2023-01-27T10:25:26-08:00*%
%TF.ProjectId,FlightComputer,466c6967-6874-4436-9f6d-70757465722e,rev?*%
%TF.SameCoordinates,Original*%
%TF.FileFunction,Copper,L4,Bot*%
%TF.FilePolarity,Positive*%
%FSLAX46Y46*%
G04 Gerber Fmt 4.6, Leading zero omitted, Abs format (unit mm)*
G04 Created by KiCad (PCBNEW (6.0.7)) date 2023-01-27 10:25:26*
%MOMM*%
%LPD*%
G01*
G04 APERTURE LIST*
%TA.AperFunction,Profile*%
%ADD10C,0.200000*%
%TD*%
%TA.AperFunction,ComponentPad*%
%ADD11C,0.500000*%
%TD*%
%TA.AperFunction,SMDPad,CuDef*%
%ADD12R,1.800000X2.500000*%
%TD*%
%TA.AperFunction,ComponentPad*%
%ADD13C,0.900000*%
%TD*%
%TA.AperFunction,ComponentPad*%
%ADD14C,8.600000*%
%TD*%
%TA.AperFunction,ComponentPad*%
%ADD15R,1.700000X1.700000*%
%TD*%
%TA.AperFunction,ComponentPad*%
%ADD16O,1.700000X1.700000*%
%TD*%
%TA.AperFunction,SMDPad,CuDef*%
%ADD17R,2.000000X3.500000*%
%TD*%
%TA.AperFunction,ComponentPad*%
%ADD18C,4.000000*%
%TD*%
%TA.AperFunction,ComponentPad*%
%ADD19R,1.600000X1.600000*%
%TD*%
%TA.AperFunction,ComponentPad*%
%ADD20C,1.600000*%
%TD*%
%TA.AperFunction,ComponentPad*%
%ADD21R,3.000000X3.000000*%
%TD*%
%TA.AperFunction,ComponentPad*%
%ADD22C,3.000000*%
%TD*%
%TA.AperFunction,ViaPad*%
%ADD23C,0.800000*%
%TD*%
%TA.AperFunction,Conductor*%
%ADD24C,0.300000*%
%TD*%
%TA.AperFunction,Conductor*%
%ADD25C,0.250000*%
%TD*%
%TA.AperFunction,Conductor*%
%ADD26C,1.500000*%
%TD*%
%TA.AperFunction,Conductor*%
%ADD27C,0.500000*%
%TD*%
%TA.AperFunction,Conductor*%
%ADD28C,0.261112*%
%TD*%
G04 APERTURE END LIST*
D10*
X227330000Y-148166000D02*
X142410000Y-148166000D01*
X229870000Y-60706000D02*
X229870000Y-145626000D01*
X229870000Y-60706000D02*
G75*
G03*
X227330000Y-58166000I-2540000J0D01*
G01*
X139870000Y-145626000D02*
X139870000Y-60706000D01*
X227330000Y-148166000D02*
G75*
G03*
X229870000Y-145626000I0J2540000D01*
G01*
X139870000Y-145626000D02*
G75*
G03*
X142410000Y-148166000I2540000J0D01*
G01*
X142410000Y-58166000D02*
X227330000Y-58166000D01*
X142410000Y-58166000D02*
G75*
G03*
X139870000Y-60706000I0J-2540000D01*
G01*
D11*
%TO.P,IC4,9*%
%TO.N,N/C*%
X174005000Y-127365000D03*
X172705000Y-126365000D03*
X174005000Y-126365000D03*
X172705000Y-127365000D03*
D12*
X173355000Y-126365000D03*
D11*
X172705000Y-125365000D03*
X174005000Y-125365000D03*
%TD*%
%TO.P,IC3,9*%
%TO.N,N/C*%
X215599000Y-71489000D03*
X215599000Y-72489000D03*
X214299000Y-71489000D03*
X215599000Y-70489000D03*
D12*
X214949000Y-71489000D03*
D11*
X214299000Y-72489000D03*
X214299000Y-70489000D03*
%TD*%
D13*
%TO.P,H4,1,1*%
%TO.N,GND*%
X145542000Y-139523000D03*
X145542000Y-145973000D03*
X147822419Y-140467581D03*
D14*
X145542000Y-142748000D03*
D13*
X143261581Y-145028419D03*
X142317000Y-142748000D03*
X143261581Y-140467581D03*
X147822419Y-145028419D03*
X148767000Y-142748000D03*
%TD*%
D15*
%TO.P,J8,1,Pin_1*%
%TO.N,PE0*%
X164211000Y-65278000D03*
D16*
%TO.P,J8,2,Pin_2*%
%TO.N,PE1*%
X166751000Y-65278000D03*
%TO.P,J8,3,Pin_3*%
%TO.N,PE2*%
X169291000Y-65278000D03*
%TO.P,J8,4,Pin_4*%
%TO.N,PE3*%
X171831000Y-65278000D03*
%TO.P,J8,5,Pin_5*%
%TO.N,PE4*%
X174371000Y-65278000D03*
%TO.P,J8,6,Pin_6*%
%TO.N,PE5*%
X176911000Y-65278000D03*
%TO.P,J8,7,Pin_7*%
%TO.N,PE6*%
X179451000Y-65278000D03*
%TO.P,J8,8,Pin_8*%
%TO.N,ADC3_IN1*%
X181991000Y-65278000D03*
%TO.P,J8,9,Pin_9*%
%TO.N,ADC3_IN2*%
X184531000Y-65278000D03*
%TO.P,J8,10,Pin_10*%
%TO.N,ADC3_IN3*%
X187071000Y-65278000D03*
%TO.P,J8,11,Pin_11*%
%TO.N,DAC_OUT1*%
X189611000Y-65278000D03*
%TO.P,J8,12,Pin_12*%
%TO.N,PE7*%
X192151000Y-65278000D03*
%TO.P,J8,13,Pin_13*%
%TO.N,PE8*%
X194691000Y-65278000D03*
%TO.P,J8,14,Pin_14*%
%TO.N,unconnected-(J8-Pad14)*%
X197231000Y-65278000D03*
%TO.P,J8,15,Pin_15*%
%TO.N,PE10*%
X199771000Y-65278000D03*
%TO.P,J8,16,Pin_16*%
%TO.N,PE11*%
X202311000Y-65278000D03*
%TO.P,J8,17,Pin_17*%
%TO.N,PE12*%
X204851000Y-65278000D03*
%TO.P,J8,18,Pin_18*%
%TO.N,PE13*%
X207391000Y-65278000D03*
%TO.P,J8,19,Pin_19*%
%TO.N,PE14*%
X209931000Y-65278000D03*
%TO.P,J8,20,Pin_20*%
%TO.N,PE15*%
X212471000Y-65278000D03*
%TD*%
D13*
%TO.P,H2,1,1*%
%TO.N,GND*%
X222255581Y-61473581D03*
X224536000Y-60529000D03*
X226816419Y-66034419D03*
X227761000Y-63754000D03*
X222255581Y-66034419D03*
X224536000Y-66979000D03*
D14*
X224536000Y-63754000D03*
D13*
X221311000Y-63754000D03*
X226816419Y-61473581D03*
%TD*%
D15*
%TO.P,J4,1,Pin_1*%
%TO.N,+3.3V*%
X164084000Y-77475000D03*
D16*
%TO.P,J4,2,Pin_2*%
%TO.N,GND*%
X164084000Y-80015000D03*
%TO.P,J4,3,Pin_3*%
%TO.N,I2C1_SDA*%
X164084000Y-82555000D03*
%TO.P,J4,4,Pin_4*%
%TO.N,I2C1_SCL*%
X164084000Y-85095000D03*
%TO.P,J4,5,Pin_5*%
%TO.N,unconnected-(J4-Pad5)*%
X164084000Y-87635000D03*
%TD*%
D15*
%TO.P,J11,1,Pin_1*%
%TO.N,I2C1_SCL*%
X212471000Y-62738000D03*
D16*
%TO.P,J11,2,Pin_2*%
%TO.N,I2C1_SDA*%
X209931000Y-62738000D03*
%TO.P,J11,3,Pin_3*%
%TO.N,GND*%
X207391000Y-62738000D03*
%TO.P,J11,4,Pin_4*%
%TO.N,unconnected-(J11-Pad4)*%
X204851000Y-62738000D03*
%TO.P,J11,5,Pin_5*%
%TO.N,unconnected-(J11-Pad5)*%
X202311000Y-62738000D03*
%TO.P,J11,6,Pin_6*%
%TO.N,unconnected-(J11-Pad6)*%
X199771000Y-62738000D03*
%TO.P,J11,7,Pin_7*%
%TO.N,GND*%
X197231000Y-62738000D03*
%TO.P,J11,8,Pin_8*%
%TO.N,I2C2_SCL*%
X194691000Y-62738000D03*
%TO.P,J11,9,Pin_9*%
%TO.N,I2C2_SDA*%
X192151000Y-62738000D03*
%TO.P,J11,10,Pin_10*%
%TO.N,unconnected-(J11-Pad10)*%
X189611000Y-62738000D03*
%TO.P,J11,11,Pin_11*%
%TO.N,unconnected-(J11-Pad11)*%
X187071000Y-62738000D03*
%TO.P,J11,12,Pin_12*%
%TO.N,GND*%
X184531000Y-62738000D03*
%TO.P,J11,13,Pin_13*%
X181991000Y-62738000D03*
%TO.P,J11,14,Pin_14*%
%TO.N,unconnected-(J11-Pad14)*%
X179451000Y-62738000D03*
%TO.P,J11,15,Pin_15*%
%TO.N,unconnected-(J11-Pad15)*%
X176911000Y-62738000D03*
%TO.P,J11,16,Pin_16*%
%TO.N,ADC3_IN10*%
X174371000Y-62738000D03*
%TO.P,J11,17,Pin_17*%
%TO.N,ADC3_IN11*%
X171831000Y-62738000D03*
%TO.P,J11,18,Pin_18*%
%TO.N,ADC3_IN12*%
X169291000Y-62738000D03*
%TO.P,J11,19,Pin_19*%
%TO.N,ADC3_IN13*%
X166751000Y-62738000D03*
%TO.P,J11,20,Pin_20*%
%TO.N,GND*%
X164211000Y-62738000D03*
%TD*%
D15*
%TO.P,J6,1,Pin_1*%
%TO.N,+3.3V*%
X168758000Y-95875000D03*
D16*
%TO.P,J6,2,Pin_2*%
%TO.N,GND*%
X168758000Y-93335000D03*
%TO.P,J6,3,Pin_3*%
%TO.N,SPI1_SCK*%
X168758000Y-90795000D03*
%TO.P,J6,4,Pin_4*%
%TO.N,SPI1_MOSI*%
X168758000Y-88255000D03*
%TO.P,J6,5,Pin_5*%
%TO.N,SPI1_MISO*%
X168758000Y-85715000D03*
%TO.P,J6,6,Pin_6*%
%TO.N,CS2*%
X168758000Y-83175000D03*
%TO.P,J6,7,Pin_7*%
%TO.N,GND*%
X168758000Y-80635000D03*
%TO.P,J6,8,Pin_8*%
%TO.N,unconnected-(J6-Pad8)*%
X168758000Y-78095000D03*
%TO.P,J6,9,Pin_9*%
%TO.N,unconnected-(J6-Pad9)*%
X168758000Y-75555000D03*
%TD*%
D12*
%TO.P,IC2,9*%
%TO.N,N/C*%
X178308000Y-76454000D03*
D11*
X178958000Y-76454000D03*
X177658000Y-77454000D03*
X177658000Y-76454000D03*
X178958000Y-77454000D03*
X177658000Y-75454000D03*
X178958000Y-75454000D03*
%TD*%
D15*
%TO.P,J12,1,Pin_1*%
%TO.N,+3.3V*%
X185928000Y-69088000D03*
D16*
%TO.P,J12,2,Pin_2*%
%TO.N,Net-(J12-Pad2)*%
X188468000Y-69088000D03*
%TO.P,J12,3,Pin_3*%
%TO.N,GND*%
X191008000Y-69088000D03*
%TD*%
D14*
%TO.P,H3,1,1*%
%TO.N,GND*%
X224536000Y-142748000D03*
D13*
X221311000Y-142748000D03*
X227761000Y-142748000D03*
X222255581Y-145028419D03*
X226816419Y-145028419D03*
X224536000Y-139523000D03*
X224536000Y-145973000D03*
X222255581Y-140467581D03*
X226816419Y-140467581D03*
%TD*%
D17*
%TO.P,IC1,17,EP*%
%TO.N,GND*%
X173355000Y-135890000D03*
%TD*%
D13*
%TO.P,H1,1,1*%
%TO.N,GND*%
X142317000Y-63754000D03*
X143261581Y-61473581D03*
X145542000Y-60529000D03*
X145542000Y-66979000D03*
D14*
X145542000Y-63754000D03*
D13*
X148767000Y-63754000D03*
X143261581Y-66034419D03*
X147822419Y-61473581D03*
X147822419Y-66034419D03*
%TD*%
D15*
%TO.P,J7,1,Pin_1*%
%TO.N,CS1*%
X187071000Y-114300000D03*
D16*
%TO.P,J7,2,Pin_2*%
%TO.N,SPI1_MOSI*%
X189611000Y-114300000D03*
%TO.P,J7,3,Pin_3*%
%TO.N,SPI1_MISO*%
X192151000Y-114300000D03*
%TO.P,J7,4,Pin_4*%
%TO.N,SPI1_SCK*%
X194691000Y-114300000D03*
%TO.P,J7,5,Pin_5*%
%TO.N,GND*%
X197231000Y-114300000D03*
%TO.P,J7,6,Pin_6*%
%TO.N,+3.3V*%
X199771000Y-114300000D03*
%TO.P,J7,7,Pin_7*%
%TO.N,I2C1_SDA*%
X202311000Y-114300000D03*
%TO.P,J7,8,Pin_8*%
%TO.N,I2C1_SCL*%
X204851000Y-114300000D03*
%TD*%
D18*
%TO.P,J5,0*%
%TO.N,N/C*%
X148995331Y-107562000D03*
X148995331Y-74262000D03*
D19*
%TO.P,J5,1,1*%
%TO.N,RFM_UART_TX*%
X150415331Y-100607000D03*
D20*
%TO.P,J5,2,2*%
%TO.N,RFM_UART_RX*%
X150415331Y-97837000D03*
%TO.P,J5,3,3*%
%TO.N,RFM_TX_EMPTY*%
X150415331Y-95067000D03*
%TO.P,J5,4,4*%
%TO.N,RFM_RX_EMPTY*%
X150415331Y-92297000D03*
%TO.P,J5,5,5*%
%TO.N,CC2500_UART_TX*%
X150415331Y-89527000D03*
%TO.P,J5,6,6*%
%TO.N,CC2500_UART_RX*%
X150415331Y-86757000D03*
%TO.P,J5,7,7*%
%TO.N,CC2500_TX_EMPTY*%
X150415331Y-83987000D03*
%TO.P,J5,8,8*%
%TO.N,CC2500_RX_EMPTY*%
X150415331Y-81217000D03*
%TO.P,J5,9,9*%
%TO.N,+5V*%
X147575331Y-99222000D03*
%TO.P,J5,10,10*%
%TO.N,RFM_TX_OVERFLOW*%
X147575331Y-96452000D03*
%TO.P,J5,11,11*%
%TO.N,RFM_RX_OVERFLOW*%
X147575331Y-93682000D03*
%TO.P,J5,12,12*%
%TO.N,GND*%
X147575331Y-90912000D03*
%TO.P,J5,13,13*%
%TO.N,CC2500_TX_OVERFLOW*%
X147575331Y-88142000D03*
%TO.P,J5,14,14*%
%TO.N,CC2500_RX_OVERFLOW*%
X147575331Y-85372000D03*
%TO.P,J5,15,15*%
%TO.N,+3.3V*%
X147575331Y-82602000D03*
%TD*%
D21*
%TO.P,J1,1,Pin_1*%
%TO.N,VIN*%
X149332500Y-115752500D03*
D22*
%TO.P,J1,2,Pin_2*%
%TO.N,GND*%
X149332500Y-120752500D03*
%TD*%
D15*
%TO.P,J10,1,Pin_1*%
%TO.N,PC8*%
X224663000Y-73660000D03*
D16*
%TO.P,J10,2,Pin_2*%
%TO.N,PC9*%
X224663000Y-76200000D03*
%TO.P,J10,3,Pin_3*%
%TO.N,PC15*%
X224663000Y-78740000D03*
%TO.P,J10,4,Pin_4*%
%TO.N,GND*%
X224663000Y-81280000D03*
%TO.P,J10,5,Pin_5*%
X224663000Y-83820000D03*
%TO.P,J10,6,Pin_6*%
X224663000Y-86360000D03*
%TO.P,J10,7,Pin_7*%
X224663000Y-88900000D03*
%TO.P,J10,8,Pin_8*%
X224663000Y-91440000D03*
%TO.P,J10,9,Pin_9*%
X224663000Y-93980000D03*
%TO.P,J10,10,Pin_10*%
X224663000Y-96520000D03*
%TO.P,J10,11,Pin_11*%
%TO.N,+3.3V*%
X224663000Y-99060000D03*
%TO.P,J10,12,Pin_12*%
X224663000Y-101600000D03*
%TO.P,J10,13,Pin_13*%
X224663000Y-104140000D03*
%TO.P,J10,14,Pin_14*%
%TO.N,+5V*%
X224663000Y-106680000D03*
%TO.P,J10,15,Pin_15*%
X224663000Y-109220000D03*
%TO.P,J10,16,Pin_16*%
%TO.N,VIN*%
X224663000Y-111760000D03*
%TO.P,J10,17,Pin_17*%
X224663000Y-114300000D03*
%TO.P,J10,18,Pin_18*%
%TO.N,GND*%
X224663000Y-116840000D03*
%TO.P,J10,19,Pin_19*%
X224663000Y-119380000D03*
%TO.P,J10,20,Pin_20*%
X224663000Y-121920000D03*
%TD*%
D15*
%TO.P,J9,1,Pin_1*%
%TO.N,unconnected-(J9-Pad1)*%
X222123000Y-73660000D03*
D16*
%TO.P,J9,2,Pin_2*%
%TO.N,unconnected-(J9-Pad2)*%
X222123000Y-76200000D03*
%TO.P,J9,3,Pin_3*%
%TO.N,GND*%
X222123000Y-78740000D03*
%TO.P,J9,4,Pin_4*%
%TO.N,PD3*%
X222123000Y-81280000D03*
%TO.P,J9,5,Pin_5*%
%TO.N,PD4*%
X222123000Y-83820000D03*
%TO.P,J9,6,Pin_6*%
%TO.N,UART2_TX*%
X222123000Y-86360000D03*
%TO.P,J9,7,Pin_7*%
%TO.N,UART2_RX*%
X222123000Y-88900000D03*
%TO.P,J9,8,Pin_8*%
%TO.N,PD7*%
X222123000Y-91440000D03*
%TO.P,J9,9,Pin_9*%
%TO.N,PD15*%
X222123000Y-93980000D03*
%TO.P,J9,10,Pin_10*%
%TO.N,PD14*%
X222123000Y-96520000D03*
%TO.P,J9,11,Pin_11*%
%TO.N,PD13*%
X222123000Y-99060000D03*
%TO.P,J9,12,Pin_12*%
%TO.N,PD12*%
X222123000Y-101600000D03*
%TO.P,J9,13,Pin_13*%
%TO.N,PD11*%
X222123000Y-104140000D03*
%TO.P,J9,14,Pin_14*%
%TO.N,PD10*%
X222123000Y-106680000D03*
%TO.P,J9,15,Pin_15*%
%TO.N,SPI2_MOSI*%
X222123000Y-109220000D03*
%TO.P,J9,16,Pin_16*%
%TO.N,SPI2_MISO*%
X222123000Y-111760000D03*
%TO.P,J9,17,Pin_17*%
%TO.N,SPI2_SCK*%
X222123000Y-114300000D03*
%TO.P,J9,18,Pin_18*%
%TO.N,unconnected-(J9-Pad18)*%
X222123000Y-116840000D03*
%TO.P,J9,19,Pin_19*%
%TO.N,unconnected-(J9-Pad19)*%
X222123000Y-119380000D03*
%TO.P,J9,20,Pin_20*%
%TO.N,unconnected-(J9-Pad20)*%
X222123000Y-121920000D03*
%TD*%
D23*
%TO.N,SPI1_SCK*%
X170708500Y-91186000D03*
X190246000Y-95758000D03*
X190839477Y-104606477D03*
%TO.N,SPI1_MISO*%
X185166000Y-102108000D03*
X185674000Y-104381500D03*
%TO.N,CS2*%
X169672000Y-102362000D03*
X174117000Y-101600000D03*
%TO.N,+5V*%
X158242000Y-126746000D03*
X146304000Y-129794000D03*
X161798000Y-124968000D03*
X148336000Y-129794000D03*
X147320000Y-129794000D03*
%TO.N,EN1*%
X167894000Y-136906000D03*
X187198000Y-144272000D03*
X171958000Y-143256000D03*
%TO.N,EN2*%
X176374951Y-139347049D03*
X178562000Y-136652000D03*
%TO.N,GND*%
X218186000Y-74168000D03*
X178562000Y-141732000D03*
X174315000Y-135565000D03*
X165608000Y-138684000D03*
X172537000Y-135565000D03*
X174244000Y-134112000D03*
X172523500Y-137471500D03*
X180340000Y-85852000D03*
X175514000Y-94488000D03*
X179832000Y-98044000D03*
X174244000Y-137414000D03*
X200152000Y-102362000D03*
X170434000Y-80518000D03*
X179070000Y-85471000D03*
X208407000Y-143002000D03*
X180086000Y-88138000D03*
X214376000Y-143002000D03*
X174244000Y-78486000D03*
X186182000Y-100838000D03*
X172466000Y-134112000D03*
X166497000Y-118491000D03*
X186055000Y-78232000D03*
X157734000Y-139192000D03*
X170434000Y-93726000D03*
X205486000Y-83566000D03*
X212852000Y-142855498D03*
X205625500Y-101809692D03*
X171958000Y-128778000D03*
X180086000Y-94996000D03*
X216154000Y-116586000D03*
X214376000Y-129794000D03*
%TO.N,I2C2_SDA*%
X202057000Y-70739000D03*
X199188500Y-88884628D03*
%TO.N,I2C2_SCL*%
X198120000Y-88900000D03*
X198755000Y-70739000D03*
%TO.N,I2C1_SDA*%
X215392000Y-103378000D03*
X169418000Y-122936000D03*
X173990000Y-74946497D03*
X209931000Y-69596000D03*
X195326000Y-72898000D03*
%TO.N,I2C1_SCL*%
X210693000Y-70866000D03*
X216662000Y-107696000D03*
X171323000Y-81534000D03*
X197485000Y-75184000D03*
X165608000Y-85090000D03*
X173990000Y-75946000D03*
X169164000Y-125476000D03*
%TO.N,CS1*%
X208534000Y-99060000D03*
X207518000Y-88392000D03*
X199009000Y-108712000D03*
%TO.N,USB_D+*%
X204570685Y-86767315D03*
X208273600Y-125045100D03*
%TO.N,USB_D-*%
X203861315Y-87476685D03*
X207270400Y-125045100D03*
%TO.N,NEN1*%
X176276000Y-142354500D03*
X186817000Y-111379000D03*
X182626000Y-119253000D03*
X194762925Y-87885990D03*
%TO.N,NEN2*%
X176276000Y-140855500D03*
X175641000Y-119253000D03*
X183769000Y-108712000D03*
X194691000Y-86360000D03*
%TO.N,+3.3V*%
X182165000Y-85852000D03*
X186182000Y-81026000D03*
X188468000Y-100076000D03*
X176530000Y-97536000D03*
X201930000Y-83058000D03*
X193294000Y-133350000D03*
X193548000Y-76200000D03*
X197104000Y-107696000D03*
X217551000Y-68961000D03*
X194310000Y-133350000D03*
X194310000Y-130810000D03*
X182372000Y-88138000D03*
X193294000Y-130810000D03*
X170434000Y-96012000D03*
X200152000Y-100584000D03*
X216154000Y-114046000D03*
X182372000Y-75946000D03*
%TO.N,PE2*%
X176657000Y-79756000D03*
X169291000Y-68580000D03*
%TO.N,PE3*%
X176657000Y-80755503D03*
X171958000Y-69596000D03*
%TO.N,PE4*%
X175641000Y-81661000D03*
X171843500Y-71247000D03*
%TO.N,RFM_RX_OVERFLOW*%
X184531000Y-83565500D03*
X156718000Y-76200000D03*
X186944000Y-85344000D03*
%TO.N,RFM_TX_OVERFLOW*%
X146812000Y-79248000D03*
%TO.N,NRST*%
X187706000Y-89027000D03*
X190766500Y-87884000D03*
X195707000Y-92329000D03*
X206248000Y-118872000D03*
%TO.N,ADC3_IN13*%
X173863000Y-83693000D03*
X168529000Y-69977000D03*
X174498000Y-87630000D03*
X180213000Y-93472000D03*
%TO.N,DAC_OUT1*%
X188976000Y-92964000D03*
X188595000Y-76073000D03*
%TO.N,CC2500_RX_EMPTY*%
X191163117Y-99980677D03*
X153924000Y-88392000D03*
%TO.N,CC2500_TX_EMPTY*%
X152527000Y-88138000D03*
X192405000Y-100965000D03*
%TO.N,PE7*%
X190754000Y-78359000D03*
X191008000Y-93726000D03*
%TO.N,PE8*%
X193368317Y-94983500D03*
X194818000Y-75438000D03*
%TO.N,PE10*%
X201041000Y-74803000D03*
X193294000Y-86106000D03*
X204216000Y-73787000D03*
%TO.N,PE11*%
X195707000Y-89027000D03*
X201803000Y-76200000D03*
X205613000Y-74803000D03*
%TO.N,PE12*%
X196850000Y-89027000D03*
X202819000Y-76835000D03*
X206121000Y-75819000D03*
%TO.N,PE13*%
X211074000Y-104394000D03*
%TO.N,PE14*%
X211455000Y-102743000D03*
%TO.N,PE15*%
X212217000Y-99822000D03*
%TO.N,PC9*%
X219799500Y-90043000D03*
%TO.N,SYS_JTMS-SWDIO*%
X202946000Y-85711787D03*
X211328000Y-112014000D03*
%TO.N,SYS_JTCK-SWCLK*%
X201803000Y-81407000D03*
X210820000Y-109982000D03*
%TO.N,CC2500_UART_TX*%
X155702000Y-85598000D03*
X198080775Y-79057554D03*
%TO.N,CC2500_UART_RX*%
X197125977Y-78761977D03*
%TO.N,RFM_UART_TX*%
X195834000Y-80772000D03*
X157480000Y-95504000D03*
%TO.N,RFM_UART_RX*%
X192532000Y-81026000D03*
X162306000Y-94742000D03*
%TO.N,UART2_TX*%
X209042000Y-84328000D03*
X199136000Y-84455000D03*
%TO.N,UART2_RX*%
X198374000Y-85204500D03*
X207264000Y-85090000D03*
%TO.N,PD7*%
X194437000Y-90424000D03*
X203327000Y-90173500D03*
%TO.N,SYS_JTDO-TRACESWO*%
X193040000Y-92837000D03*
X190881000Y-106299000D03*
X208788000Y-114554000D03*
X208788000Y-108331000D03*
%TO.N,RFM_TX_EMPTY*%
X185166000Y-98298000D03*
X163830000Y-96012000D03*
%TO.N,RFM_RX_EMPTY*%
X167259000Y-98171000D03*
X173736000Y-92710000D03*
X188468000Y-84148500D03*
X173482000Y-94996000D03*
%TO.N,CC2500_RX_OVERFLOW*%
X156718000Y-73660000D03*
%TO.N,CC2500_TX_OVERFLOW*%
X155448000Y-74422000D03*
%TD*%
D24*
%TO.N,PE8*%
X192151000Y-93766183D02*
X193368317Y-94983500D01*
X192151000Y-85598000D02*
X192151000Y-93766183D01*
X194818000Y-75438000D02*
X194818000Y-82931000D01*
X194818000Y-82931000D02*
X192151000Y-85598000D01*
%TO.N,RFM_UART_TX*%
X196088000Y-80518000D02*
X195834000Y-80772000D01*
X196088000Y-74549000D02*
X196088000Y-80518000D01*
X195707000Y-74168000D02*
X196088000Y-74549000D01*
X189538893Y-74168000D02*
X195707000Y-74168000D01*
X189284893Y-73914000D02*
X189538893Y-74168000D01*
X185464661Y-73914000D02*
X189284893Y-73914000D01*
X177562661Y-81816000D02*
X185464661Y-73914000D01*
X172736000Y-86453788D02*
X177373788Y-81816000D01*
X172463661Y-86915000D02*
X172736000Y-86642661D01*
X167339000Y-86915000D02*
X172463661Y-86915000D01*
X177373788Y-81816000D02*
X177562661Y-81816000D01*
X158750000Y-95504000D02*
X167339000Y-86915000D01*
X157480000Y-95504000D02*
X158750000Y-95504000D01*
X172736000Y-86642661D02*
X172736000Y-86453788D01*
%TO.N,CC2500_TX_EMPTY*%
X152654000Y-88265000D02*
X152527000Y-88138000D01*
X192405000Y-100965000D02*
X192405000Y-101981000D01*
X192405000Y-101981000D02*
X188722000Y-105664000D01*
X188722000Y-105664000D02*
X153162000Y-105664000D01*
X153162000Y-105664000D02*
X152654000Y-105156000D01*
X152654000Y-105156000D02*
X152654000Y-88265000D01*
%TO.N,SPI1_SCK*%
X191389000Y-95758000D02*
X190246000Y-95758000D01*
X193294000Y-97663000D02*
X191389000Y-95758000D01*
X193294000Y-102151954D02*
X193294000Y-97663000D01*
X190839477Y-104606477D02*
X193294000Y-102151954D01*
%TO.N,SYS_JTDO-TRACESWO*%
X193040000Y-93218000D02*
X193040000Y-92837000D01*
X194310000Y-94488000D02*
X193040000Y-93218000D01*
X194310000Y-102870000D02*
X194310000Y-94488000D01*
X190881000Y-106299000D02*
X194310000Y-102870000D01*
%TO.N,NEN2*%
X189551894Y-108712000D02*
X183769000Y-108712000D01*
X195453000Y-102810894D02*
X189551894Y-108712000D01*
X195453000Y-94189339D02*
X195453000Y-102810894D01*
X192651000Y-91387339D02*
X195453000Y-94189339D01*
X192651000Y-88400000D02*
X192651000Y-91387339D01*
X194691000Y-86360000D02*
X192651000Y-88400000D01*
%TO.N,PC9*%
X226060000Y-89535000D02*
X226060000Y-77597000D01*
X225393922Y-90201078D02*
X226060000Y-89535000D01*
X226060000Y-77597000D02*
X224663000Y-76200000D01*
X219799500Y-90043000D02*
X219957578Y-90201078D01*
X219957578Y-90201078D02*
X225393922Y-90201078D01*
D25*
%TO.N,I2C1_SCL*%
X219075000Y-78105000D02*
X219964000Y-77216000D01*
X216662000Y-107696000D02*
X219075000Y-105283000D01*
X219075000Y-105283000D02*
X219075000Y-78105000D01*
D24*
%TO.N,I2C1_SDA*%
X217551000Y-75819000D02*
X218567000Y-76835000D01*
X218567000Y-76835000D02*
X218567000Y-100203000D01*
X214585339Y-75819000D02*
X217551000Y-75819000D01*
X209931000Y-71164661D02*
X214585339Y-75819000D01*
X209931000Y-69596000D02*
X209931000Y-71164661D01*
X218567000Y-100203000D02*
X215392000Y-103378000D01*
%TO.N,SPI1_SCK*%
X170708500Y-91968500D02*
X170708500Y-91186000D01*
X175514000Y-95758000D02*
X173482000Y-93726000D01*
X173482000Y-93726000D02*
X172466000Y-93726000D01*
X172466000Y-93726000D02*
X170708500Y-91968500D01*
X190246000Y-95758000D02*
X175514000Y-95758000D01*
%TO.N,SPI1_MISO*%
X185674000Y-104381500D02*
X185674000Y-102616000D01*
X185674000Y-102616000D02*
X185166000Y-102108000D01*
%TO.N,CS2*%
X170434000Y-101600000D02*
X169672000Y-102362000D01*
X174117000Y-101600000D02*
X170434000Y-101600000D01*
D26*
%TO.N,+5V*%
X146304000Y-129794000D02*
X148336000Y-129794000D01*
D27*
X161798000Y-124968000D02*
X160020000Y-124968000D01*
D26*
X144526000Y-122428000D02*
X146304000Y-124206000D01*
X146269000Y-99222000D02*
X144526000Y-100965000D01*
X147575331Y-99222000D02*
X146269000Y-99222000D01*
D27*
X160020000Y-124968000D02*
X158242000Y-126746000D01*
D26*
X146304000Y-124206000D02*
X146304000Y-129794000D01*
X144526000Y-100965000D02*
X144526000Y-122428000D01*
D25*
%TO.N,EN1*%
X167894000Y-136906000D02*
X167894000Y-139192000D01*
X170434000Y-141732000D02*
X171958000Y-143256000D01*
X172974000Y-144272000D02*
X171958000Y-143256000D01*
X187198000Y-144272000D02*
X172974000Y-144272000D01*
X167894000Y-139192000D02*
X170434000Y-141732000D01*
%TO.N,EN2*%
X178562000Y-137160000D02*
X178562000Y-136652000D01*
X176374951Y-139347049D02*
X178562000Y-137160000D01*
D24*
%TO.N,I2C2_SDA*%
X204978000Y-76073000D02*
X200533000Y-71628000D01*
X197612000Y-84074000D02*
X204978000Y-76708000D01*
X200533000Y-70993000D02*
X200533000Y-70104000D01*
X197866000Y-61214000D02*
X193675000Y-61214000D01*
X199188500Y-88884628D02*
X199188500Y-87682500D01*
X193675000Y-61214000D02*
X192151000Y-62738000D01*
X200787000Y-70739000D02*
X202057000Y-70739000D01*
X200533000Y-70993000D02*
X200787000Y-70739000D01*
X200533000Y-70104000D02*
X198501000Y-68072000D01*
X204978000Y-76708000D02*
X204978000Y-76073000D01*
X198501000Y-61849000D02*
X197866000Y-61214000D01*
X200533000Y-71628000D02*
X200533000Y-70993000D01*
X199188500Y-87682500D02*
X197612000Y-86106000D01*
X198501000Y-68072000D02*
X198501000Y-61849000D01*
X197612000Y-86106000D02*
X197612000Y-84074000D01*
%TO.N,I2C2_SCL*%
X195961000Y-64008000D02*
X194691000Y-62738000D01*
X195961000Y-66294000D02*
X195961000Y-64008000D01*
X199644000Y-70739000D02*
X198755000Y-70739000D01*
X198120000Y-88900000D02*
X197112000Y-87892000D01*
X200025000Y-71120000D02*
X199644000Y-70739000D01*
X197112000Y-87892000D02*
X197112000Y-83685000D01*
X200025000Y-70358000D02*
X195961000Y-66294000D01*
X204216000Y-76018106D02*
X200025000Y-71827106D01*
X204216000Y-76581000D02*
X204216000Y-76018106D01*
X197112000Y-83685000D02*
X204216000Y-76581000D01*
X200025000Y-71827106D02*
X200025000Y-71120000D01*
X200025000Y-71120000D02*
X200025000Y-70358000D01*
%TO.N,I2C1_SDA*%
X195326000Y-72898000D02*
X182372000Y-72898000D01*
X175276497Y-73660000D02*
X173990000Y-74946497D01*
X202311000Y-114300000D02*
X198755000Y-117856000D01*
X182372000Y-72898000D02*
X181610000Y-73660000D01*
X198755000Y-117856000D02*
X171577000Y-117856000D01*
X169418000Y-120015000D02*
X169418000Y-122936000D01*
X171577000Y-117856000D02*
X169418000Y-120015000D01*
X181610000Y-73660000D02*
X175276497Y-73660000D01*
D25*
%TO.N,I2C1_SCL*%
X169291000Y-125603000D02*
X169164000Y-125476000D01*
X171740752Y-118364000D02*
X170688000Y-119416752D01*
X200787000Y-118364000D02*
X171740752Y-118364000D01*
D24*
X170882000Y-81975000D02*
X167961000Y-81975000D01*
X177292000Y-74168000D02*
X175514000Y-75946000D01*
X195949000Y-73648000D02*
X189726000Y-73648000D01*
X182634000Y-73398000D02*
X181864000Y-74168000D01*
X175514000Y-75946000D02*
X173990000Y-75946000D01*
D25*
X217932000Y-75184000D02*
X219964000Y-77216000D01*
D24*
X181864000Y-74168000D02*
X177292000Y-74168000D01*
D25*
X210693000Y-70866000D02*
X214921000Y-75094000D01*
X213106000Y-62738000D02*
X212471000Y-62738000D01*
D24*
X189726000Y-73648000D02*
X189476000Y-73398000D01*
D25*
X204851000Y-114300000D02*
X200787000Y-118364000D01*
X216916000Y-75184000D02*
X217932000Y-75184000D01*
X170688000Y-119416752D02*
X170688000Y-125603000D01*
D24*
X171323000Y-81534000D02*
X170882000Y-81975000D01*
X189476000Y-73398000D02*
X182634000Y-73398000D01*
D25*
X214921000Y-75094000D02*
X216826000Y-75094000D01*
X219964000Y-69596000D02*
X213106000Y-62738000D01*
D24*
X167961000Y-81975000D02*
X165608000Y-84328000D01*
D25*
X219964000Y-77216000D02*
X219964000Y-69596000D01*
D24*
X197485000Y-75184000D02*
X195949000Y-73648000D01*
D25*
X170688000Y-125603000D02*
X169291000Y-125603000D01*
D24*
X165608000Y-84328000D02*
X165608000Y-85090000D01*
D25*
X216826000Y-75094000D02*
X216916000Y-75184000D01*
D24*
%TO.N,CS1*%
X199009000Y-108712000D02*
X190966106Y-108712000D01*
X208534000Y-99060000D02*
X208534000Y-89408000D01*
X187071000Y-112607106D02*
X187071000Y-114300000D01*
X190966106Y-108712000D02*
X187071000Y-112607106D01*
X208534000Y-89408000D02*
X207518000Y-88392000D01*
D28*
%TO.N,USB_D+*%
X207645000Y-124386537D02*
X207645000Y-90222681D01*
X204570685Y-87148366D02*
X204570685Y-86767315D01*
X208000956Y-124742493D02*
X207645000Y-124386537D01*
X208273600Y-125045100D02*
X208000956Y-124772456D01*
X207645000Y-90222681D02*
X204570685Y-87148366D01*
X208000956Y-124772456D02*
X208000956Y-124742493D01*
%TO.N,USB_D-*%
X207010000Y-90244319D02*
X204242366Y-87476685D01*
X207010000Y-124784700D02*
X207010000Y-90244319D01*
X207270400Y-125045100D02*
X207010000Y-124784700D01*
X204242366Y-87476685D02*
X203861315Y-87476685D01*
D24*
%TO.N,NEN1*%
X196342000Y-94361000D02*
X196342000Y-102629000D01*
X194762925Y-87885990D02*
X193421000Y-89227915D01*
X182626000Y-136004500D02*
X176276000Y-142354500D01*
X193421000Y-89227915D02*
X193421000Y-91440000D01*
X187592000Y-111379000D02*
X186817000Y-111379000D01*
X182626000Y-119253000D02*
X182626000Y-136004500D01*
X193421000Y-91440000D02*
X196342000Y-94361000D01*
X196342000Y-102629000D02*
X187592000Y-111379000D01*
%TO.N,NEN2*%
X175624951Y-139036388D02*
X175624951Y-140204451D01*
X175641000Y-119253000D02*
X175641000Y-139020339D01*
X175641000Y-139020339D02*
X175624951Y-139036388D01*
X175624951Y-140204451D02*
X176276000Y-140855500D01*
%TO.N,PE2*%
X174117000Y-79756000D02*
X176657000Y-79756000D01*
X172085000Y-68580000D02*
X173101000Y-69596000D01*
X169291000Y-68580000D02*
X172085000Y-68580000D01*
X173101000Y-69596000D02*
X173101000Y-78740000D01*
X173101000Y-78740000D02*
X174117000Y-79756000D01*
%TO.N,PE3*%
X172593000Y-78939106D02*
X172593000Y-70231000D01*
X176657000Y-80755503D02*
X174409397Y-80755503D01*
X174409397Y-80755503D02*
X172593000Y-78939106D01*
X172593000Y-70231000D02*
X171958000Y-69596000D01*
%TO.N,PE4*%
X171843500Y-71247000D02*
X172093000Y-71496500D01*
X172093000Y-79256000D02*
X174498000Y-81661000D01*
X174498000Y-81661000D02*
X175641000Y-81661000D01*
X172093000Y-71496500D02*
X172093000Y-79256000D01*
%TO.N,RFM_RX_OVERFLOW*%
X186944000Y-85344000D02*
X185165500Y-83565500D01*
X148380000Y-93682000D02*
X147575331Y-93682000D01*
X153805985Y-76200000D02*
X149098000Y-80907985D01*
X185165500Y-83565500D02*
X184531000Y-83565500D01*
X156718000Y-76200000D02*
X153805985Y-76200000D01*
X149098000Y-92964000D02*
X148380000Y-93682000D01*
X149098000Y-80907985D02*
X149098000Y-92964000D01*
%TO.N,RFM_TX_OVERFLOW*%
X146812000Y-79248000D02*
X145288000Y-80772000D01*
X145288000Y-80772000D02*
X145288000Y-94164669D01*
X145288000Y-94164669D02*
X147575331Y-96452000D01*
%TO.N,NRST*%
X190385500Y-88265000D02*
X188468000Y-88265000D01*
X190766500Y-87884000D02*
X190385500Y-88265000D01*
X195707000Y-92329000D02*
X197104000Y-90932000D01*
X203962000Y-90932000D02*
X206375500Y-93345500D01*
X188468000Y-88265000D02*
X187706000Y-89027000D01*
X197104000Y-90932000D02*
X203962000Y-90932000D01*
X206375500Y-93345500D02*
X206375500Y-118744500D01*
X206375500Y-118744500D02*
X206248000Y-118872000D01*
%TO.N,ADC3_IN13*%
X174498000Y-92837000D02*
X174498000Y-87630000D01*
X175133000Y-93472000D02*
X175006000Y-93345000D01*
X171323000Y-72771000D02*
X168529000Y-69977000D01*
X180213000Y-93472000D02*
X175133000Y-93472000D01*
X173863000Y-83693000D02*
X173863000Y-81915000D01*
X171577000Y-79629000D02*
X171323000Y-79375000D01*
X171323000Y-73025000D02*
X171323000Y-72771000D01*
X175006000Y-93345000D02*
X174498000Y-92837000D01*
X173863000Y-81915000D02*
X171577000Y-79629000D01*
X171323000Y-79375000D02*
X171323000Y-73025000D01*
%TO.N,DAC_OUT1*%
X186436000Y-90424000D02*
X186436000Y-88011000D01*
X188976000Y-92964000D02*
X186436000Y-90424000D01*
X189992000Y-77470000D02*
X188595000Y-76073000D01*
X186436000Y-88011000D02*
X189992000Y-84455000D01*
X189992000Y-84455000D02*
X189992000Y-77470000D01*
%TO.N,CC2500_RX_EMPTY*%
X191163117Y-101952883D02*
X187984500Y-105131500D01*
X187984500Y-105131500D02*
X153645500Y-105131500D01*
X191163117Y-99980677D02*
X191163117Y-101952883D01*
X153645500Y-105131500D02*
X153416000Y-104902000D01*
X153416000Y-88900000D02*
X153924000Y-88392000D01*
X153416000Y-104902000D02*
X153416000Y-88900000D01*
%TO.N,PE7*%
X190754000Y-82550000D02*
X190754000Y-78359000D01*
X191008000Y-93726000D02*
X191516000Y-93218000D01*
X191516000Y-83312000D02*
X190754000Y-82550000D01*
X191516000Y-93218000D02*
X191516000Y-83312000D01*
%TO.N,PE10*%
X204216000Y-73787000D02*
X204216000Y-69088000D01*
X195580000Y-82931000D02*
X195634894Y-82931000D01*
X200787000Y-75057000D02*
X201041000Y-74803000D01*
X193294000Y-85217000D02*
X195580000Y-82931000D01*
X202565000Y-67437000D02*
X200660000Y-67437000D01*
X200787000Y-77778894D02*
X200787000Y-75057000D01*
X204216000Y-69088000D02*
X202565000Y-67437000D01*
X195634894Y-82931000D02*
X200787000Y-77778894D01*
X199771000Y-66548000D02*
X199771000Y-65278000D01*
X200660000Y-67437000D02*
X199771000Y-66548000D01*
X193294000Y-86106000D02*
X193294000Y-85217000D01*
%TO.N,PE11*%
X203962000Y-66929000D02*
X204597000Y-67564000D01*
X201803000Y-77470000D02*
X195834000Y-83439000D01*
X204597000Y-67564000D02*
X205613000Y-67564000D01*
X201803000Y-76200000D02*
X201803000Y-77089000D01*
X195834000Y-83439000D02*
X195834000Y-88138000D01*
X202311000Y-65278000D02*
X203962000Y-66929000D01*
X206256000Y-69215000D02*
X206256000Y-74160000D01*
X195834000Y-88900000D02*
X195707000Y-89027000D01*
X195834000Y-88138000D02*
X195834000Y-88900000D01*
X201803000Y-77089000D02*
X201803000Y-77470000D01*
X205613000Y-67564000D02*
X206256000Y-68207000D01*
X206256000Y-68207000D02*
X206256000Y-69215000D01*
X206256000Y-74160000D02*
X205613000Y-74803000D01*
%TO.N,PE12*%
X202819000Y-76835000D02*
X202819000Y-77216000D01*
X206756000Y-75184000D02*
X206121000Y-75819000D01*
X206756000Y-67183000D02*
X206756000Y-75184000D01*
X196596000Y-88773000D02*
X196850000Y-89027000D01*
X196596000Y-83439000D02*
X196596000Y-88773000D01*
X202819000Y-77216000D02*
X196596000Y-83439000D01*
X204851000Y-65278000D02*
X206756000Y-67183000D01*
%TO.N,PE13*%
X211074000Y-104394000D02*
X210820000Y-104140000D01*
X211074000Y-98860893D02*
X211074000Y-75819000D01*
X210820000Y-104140000D02*
X210820000Y-103505000D01*
X207391000Y-72136000D02*
X207391000Y-65278000D01*
X210820000Y-103505000D02*
X210705000Y-103390000D01*
X210705000Y-103390000D02*
X210705000Y-99229893D01*
X211074000Y-75819000D02*
X207391000Y-72136000D01*
X210705000Y-99229893D02*
X211074000Y-98860893D01*
%TO.N,PE14*%
X211455000Y-99187000D02*
X211590000Y-99052000D01*
X209931000Y-67183000D02*
X209931000Y-65278000D01*
X208161000Y-68953000D02*
X209931000Y-67183000D01*
X208161000Y-72017000D02*
X208161000Y-68953000D01*
X211455000Y-102743000D02*
X211455000Y-99187000D01*
X211590000Y-75446000D02*
X208161000Y-72017000D01*
X211590000Y-99052000D02*
X211590000Y-75446000D01*
%TO.N,PE15*%
X212090000Y-74930000D02*
X208661000Y-71501000D01*
X211836000Y-68199000D02*
X212471000Y-67564000D01*
X208661000Y-71501000D02*
X208661000Y-69215000D01*
X208661000Y-69215000D02*
X209677000Y-68199000D01*
X212217000Y-99822000D02*
X212090000Y-99695000D01*
X209677000Y-68199000D02*
X211836000Y-68199000D01*
X212090000Y-99695000D02*
X212090000Y-74930000D01*
X212471000Y-67564000D02*
X212471000Y-65278000D01*
%TO.N,SYS_JTMS-SWDIO*%
X209538000Y-108641661D02*
X209538000Y-108020339D01*
X203086213Y-85852000D02*
X202946000Y-85711787D01*
X209423000Y-107905339D02*
X209423000Y-86233000D01*
X211328000Y-112014000D02*
X209423000Y-110109000D01*
X209042000Y-85852000D02*
X203086213Y-85852000D01*
X209423000Y-86233000D02*
X209042000Y-85852000D01*
X209538000Y-108020339D02*
X209423000Y-107905339D01*
X209423000Y-108756661D02*
X209538000Y-108641661D01*
X209423000Y-110109000D02*
X209423000Y-108756661D01*
%TO.N,SYS_JTCK-SWCLK*%
X201930000Y-81280000D02*
X207264000Y-81280000D01*
X201803000Y-81407000D02*
X201930000Y-81280000D01*
X210058000Y-84074000D02*
X210058000Y-109220000D01*
X210058000Y-109220000D02*
X210820000Y-109982000D01*
X207264000Y-81280000D02*
X210058000Y-84074000D01*
%TO.N,CC2500_UART_TX*%
X157988000Y-82804000D02*
X155702000Y-85090000D01*
X198080775Y-78525225D02*
X198755000Y-77851000D01*
X157988000Y-77016893D02*
X157988000Y-82804000D01*
X198755000Y-77851000D02*
X198755000Y-74051233D01*
X198080775Y-79057554D02*
X198080775Y-78525225D01*
X191632767Y-66929000D02*
X168075893Y-66929000D01*
X198755000Y-74051233D02*
X191632767Y-66929000D01*
X155702000Y-85090000D02*
X155702000Y-85598000D01*
X168075893Y-66929000D02*
X157988000Y-77016893D01*
%TO.N,CC2500_UART_RX*%
X198235000Y-74238339D02*
X191425661Y-67429000D01*
X197125977Y-78761977D02*
X198235000Y-77652954D01*
X158496000Y-84328000D02*
X156067000Y-86757000D01*
X156067000Y-86757000D02*
X150415331Y-86757000D01*
X198235000Y-77652954D02*
X198235000Y-74238339D01*
X191425661Y-67429000D02*
X168283000Y-67429000D01*
X158496000Y-77216000D02*
X158496000Y-84328000D01*
X168283000Y-67429000D02*
X158496000Y-77216000D01*
%TO.N,RFM_UART_RX*%
X177769767Y-82316000D02*
X177580894Y-82316000D01*
X173236000Y-86660894D02*
X173236000Y-86849767D01*
X192532000Y-78177106D02*
X188768894Y-74414000D01*
X185671767Y-74414000D02*
X177769767Y-82316000D01*
X188768894Y-74414000D02*
X185671767Y-74414000D01*
X192532000Y-81026000D02*
X192532000Y-78177106D01*
X170490767Y-89595000D02*
X167453000Y-89595000D01*
X167453000Y-89595000D02*
X162306000Y-94742000D01*
X173236000Y-86849767D02*
X170490767Y-89595000D01*
X177580894Y-82316000D02*
X173236000Y-86660894D01*
%TO.N,UART2_TX*%
X199136000Y-84455000D02*
X199263000Y-84328000D01*
X199263000Y-84328000D02*
X209042000Y-84328000D01*
%TO.N,UART2_RX*%
X199447161Y-85204500D02*
X199689874Y-84961787D01*
X199689874Y-84961787D02*
X207135787Y-84961787D01*
X198374000Y-85204500D02*
X199447161Y-85204500D01*
X207135787Y-84961787D02*
X207264000Y-85090000D01*
%TO.N,PD7*%
X194437000Y-90424000D02*
X194945000Y-89916000D01*
X194945000Y-89916000D02*
X203069500Y-89916000D01*
X203069500Y-89916000D02*
X203327000Y-90173500D01*
%TO.N,SYS_JTDO-TRACESWO*%
X208788000Y-108331000D02*
X208788000Y-114554000D01*
%TO.N,RFM_TX_EMPTY*%
X167120000Y-99302000D02*
X184162000Y-99302000D01*
X163830000Y-96012000D02*
X167120000Y-99302000D01*
X184162000Y-99302000D02*
X185166000Y-98298000D01*
%TO.N,RFM_RX_EMPTY*%
X170307000Y-98171000D02*
X167259000Y-98171000D01*
X187135500Y-82816000D02*
X177788000Y-82816000D01*
X173736000Y-86868000D02*
X173736000Y-92710000D01*
X170942000Y-97536000D02*
X170307000Y-98171000D01*
X177788000Y-82816000D02*
X173736000Y-86868000D01*
X188468000Y-84148500D02*
X187135500Y-82816000D01*
X173482000Y-94996000D02*
X170942000Y-97536000D01*
%TO.N,CC2500_RX_OVERFLOW*%
X152858985Y-75692000D02*
X146304000Y-82246985D01*
X156165339Y-75692000D02*
X152858985Y-75692000D01*
X156718000Y-73660000D02*
X156718000Y-75139339D01*
X156718000Y-75139339D02*
X156165339Y-75692000D01*
X146304000Y-84100669D02*
X147575331Y-85372000D01*
X146304000Y-82246985D02*
X146304000Y-84100669D01*
%TO.N,CC2500_TX_OVERFLOW*%
X145796000Y-86362669D02*
X147575331Y-88142000D01*
X145796000Y-82047878D02*
X145796000Y-86362669D01*
X155448000Y-74422000D02*
X153421878Y-74422000D01*
X153421878Y-74422000D02*
X145796000Y-82047878D01*
%TD*%
M02*
