%TF.GenerationSoftware,KiCad,Pcbnew,(6.0.7)*%
%TF.CreationDate,2023-01-26T22:51:55-08:00*%
%TF.ProjectId,FlightComputer,466c6967-6874-4436-9f6d-70757465722e,rev?*%
%TF.SameCoordinates,Original*%
%TF.FileFunction,Drillmap*%
%TF.FilePolarity,Positive*%
%FSLAX45Y45*%
G04 Gerber Fmt 4.5, Leading zero omitted, Abs format (unit mm)*
G04 Created by KiCad (PCBNEW (6.0.7)) date 2023-01-26 22:51:55*
%MOMM*%
%LPD*%
G01*
G04 APERTURE LIST*
%ADD10C,0.200000*%
G04 APERTURE END LIST*
D10*
X22733000Y-14816600D02*
X14241000Y-14816600D01*
X22987000Y-6070600D02*
X22987000Y-14562600D01*
X22987000Y-6070600D02*
G75*
G03*
X22733000Y-5816600I-254000J0D01*
G01*
X13987000Y-14562600D02*
X13987000Y-6070600D01*
X22733000Y-14816600D02*
G75*
G03*
X22987000Y-14562600I0J254000D01*
G01*
X13987000Y-14562600D02*
G75*
G03*
X14241000Y-14816600I254000J0D01*
G01*
X14241000Y-5816600D02*
X22733000Y-5816600D01*
X14241000Y-5816600D02*
G75*
G03*
X13987000Y-6070600I0J-254000D01*
G01*
X14234619Y-15137076D02*
X14234619Y-14937076D01*
X14282238Y-14937076D01*
X14310809Y-14946600D01*
X14329857Y-14965648D01*
X14339381Y-14984695D01*
X14348905Y-15022790D01*
X14348905Y-15051362D01*
X14339381Y-15089457D01*
X14329857Y-15108505D01*
X14310809Y-15127552D01*
X14282238Y-15137076D01*
X14234619Y-15137076D01*
X14434619Y-15137076D02*
X14434619Y-15003743D01*
X14434619Y-15041838D02*
X14444143Y-15022790D01*
X14453667Y-15013267D01*
X14472714Y-15003743D01*
X14491762Y-15003743D01*
X14558428Y-15137076D02*
X14558428Y-15003743D01*
X14558428Y-14937076D02*
X14548905Y-14946600D01*
X14558428Y-14956124D01*
X14567952Y-14946600D01*
X14558428Y-14937076D01*
X14558428Y-14956124D01*
X14682238Y-15137076D02*
X14663190Y-15127552D01*
X14653667Y-15108505D01*
X14653667Y-14937076D01*
X14787000Y-15137076D02*
X14767952Y-15127552D01*
X14758428Y-15108505D01*
X14758428Y-14937076D01*
X15015571Y-15137076D02*
X15015571Y-14937076D01*
X15082238Y-15079933D01*
X15148905Y-14937076D01*
X15148905Y-15137076D01*
X15329857Y-15137076D02*
X15329857Y-15032314D01*
X15320333Y-15013267D01*
X15301286Y-15003743D01*
X15263190Y-15003743D01*
X15244143Y-15013267D01*
X15329857Y-15127552D02*
X15310809Y-15137076D01*
X15263190Y-15137076D01*
X15244143Y-15127552D01*
X15234619Y-15108505D01*
X15234619Y-15089457D01*
X15244143Y-15070409D01*
X15263190Y-15060886D01*
X15310809Y-15060886D01*
X15329857Y-15051362D01*
X15425095Y-15003743D02*
X15425095Y-15203743D01*
X15425095Y-15013267D02*
X15444143Y-15003743D01*
X15482238Y-15003743D01*
X15501286Y-15013267D01*
X15510809Y-15022790D01*
X15520333Y-15041838D01*
X15520333Y-15098981D01*
X15510809Y-15118028D01*
X15501286Y-15127552D01*
X15482238Y-15137076D01*
X15444143Y-15137076D01*
X15425095Y-15127552D01*
X15606048Y-15118028D02*
X15615571Y-15127552D01*
X15606048Y-15137076D01*
X15596524Y-15127552D01*
X15606048Y-15118028D01*
X15606048Y-15137076D01*
X15606048Y-15013267D02*
X15615571Y-15022790D01*
X15606048Y-15032314D01*
X15596524Y-15022790D01*
X15606048Y-15013267D01*
X15606048Y-15032314D01*
M02*
