%TF.GenerationSoftware,KiCad,Pcbnew,(6.0.7)*%
%TF.CreationDate,2023-01-26T22:49:43-08:00*%
%TF.ProjectId,FlightComputer,466c6967-6874-4436-9f6d-70757465722e,rev?*%
%TF.SameCoordinates,Original*%
%TF.FileFunction,Legend,Top*%
%TF.FilePolarity,Positive*%
%FSLAX46Y46*%
G04 Gerber Fmt 4.6, Leading zero omitted, Abs format (unit mm)*
G04 Created by KiCad (PCBNEW (6.0.7)) date 2023-01-26 22:49:43*
%MOMM*%
%LPD*%
G01*
G04 APERTURE LIST*
%ADD10C,0.150000*%
%ADD11C,0.300000*%
%TA.AperFunction,Profile*%
%ADD12C,0.200000*%
%TD*%
%ADD13C,0.125000*%
%ADD14C,0.250000*%
%ADD15C,0.120000*%
G04 APERTURE END LIST*
D10*
X189666714Y-141025571D02*
X190000047Y-141025571D01*
X190142904Y-141549380D02*
X189666714Y-141549380D01*
X189666714Y-140549380D01*
X190142904Y-140549380D01*
X190571476Y-141549380D02*
X190571476Y-140549380D01*
X191142904Y-141549380D01*
X191142904Y-140549380D01*
X192142904Y-141549380D02*
X191571476Y-141549380D01*
X191857190Y-141549380D02*
X191857190Y-140549380D01*
X191761952Y-140692238D01*
X191666714Y-140787476D01*
X191571476Y-140835095D01*
X160202714Y-143438571D02*
X160536047Y-143438571D01*
X160678904Y-143962380D02*
X160202714Y-143962380D01*
X160202714Y-142962380D01*
X160678904Y-142962380D01*
X161107476Y-143962380D02*
X161107476Y-142962380D01*
X161678904Y-143962380D01*
X161678904Y-142962380D01*
X162107476Y-143057619D02*
X162155095Y-143010000D01*
X162250333Y-142962380D01*
X162488428Y-142962380D01*
X162583666Y-143010000D01*
X162631285Y-143057619D01*
X162678904Y-143152857D01*
X162678904Y-143248095D01*
X162631285Y-143390952D01*
X162059857Y-143962380D01*
X162678904Y-143962380D01*
X167259095Y-116594000D02*
X167163857Y-116546380D01*
X167021000Y-116546380D01*
X166878142Y-116594000D01*
X166782904Y-116689238D01*
X166735285Y-116784476D01*
X166687666Y-116974952D01*
X166687666Y-117117809D01*
X166735285Y-117308285D01*
X166782904Y-117403523D01*
X166878142Y-117498761D01*
X167021000Y-117546380D01*
X167116238Y-117546380D01*
X167259095Y-117498761D01*
X167306714Y-117451142D01*
X167306714Y-117117809D01*
X167116238Y-117117809D01*
X167735285Y-117546380D02*
X167735285Y-116546380D01*
X168306714Y-117546380D01*
X168306714Y-116546380D01*
X168782904Y-117546380D02*
X168782904Y-116546380D01*
X169021000Y-116546380D01*
X169163857Y-116594000D01*
X169259095Y-116689238D01*
X169306714Y-116784476D01*
X169354333Y-116974952D01*
X169354333Y-117117809D01*
X169306714Y-117308285D01*
X169259095Y-117403523D01*
X169163857Y-117498761D01*
X169021000Y-117546380D01*
X168782904Y-117546380D01*
D11*
X162997571Y-110342071D02*
X162497571Y-109627785D01*
X162140428Y-110342071D02*
X162140428Y-108842071D01*
X162711857Y-108842071D01*
X162854714Y-108913500D01*
X162926142Y-108984928D01*
X162997571Y-109127785D01*
X162997571Y-109342071D01*
X162926142Y-109484928D01*
X162854714Y-109556357D01*
X162711857Y-109627785D01*
X162140428Y-109627785D01*
X163711857Y-108842071D02*
X163569000Y-109127785D01*
X164283285Y-110270642D02*
X164497571Y-110342071D01*
X164854714Y-110342071D01*
X164997571Y-110270642D01*
X165069000Y-110199214D01*
X165140428Y-110056357D01*
X165140428Y-109913500D01*
X165069000Y-109770642D01*
X164997571Y-109699214D01*
X164854714Y-109627785D01*
X164569000Y-109556357D01*
X164426142Y-109484928D01*
X164354714Y-109413500D01*
X164283285Y-109270642D01*
X164283285Y-109127785D01*
X164354714Y-108984928D01*
X164426142Y-108913500D01*
X164569000Y-108842071D01*
X164926142Y-108842071D01*
X165140428Y-108913500D01*
X166426142Y-110342071D02*
X166426142Y-109556357D01*
X166354714Y-109413500D01*
X166211857Y-109342071D01*
X165926142Y-109342071D01*
X165783285Y-109413500D01*
X166426142Y-110270642D02*
X166283285Y-110342071D01*
X165926142Y-110342071D01*
X165783285Y-110270642D01*
X165711857Y-110127785D01*
X165711857Y-109984928D01*
X165783285Y-109842071D01*
X165926142Y-109770642D01*
X166283285Y-109770642D01*
X166426142Y-109699214D01*
X166926142Y-109342071D02*
X167497571Y-109342071D01*
X167140428Y-108842071D02*
X167140428Y-110127785D01*
X167211857Y-110270642D01*
X167354714Y-110342071D01*
X167497571Y-110342071D01*
X169640428Y-109556357D02*
X169140428Y-109556357D01*
X169140428Y-110342071D02*
X169140428Y-108842071D01*
X169854714Y-108842071D01*
X171283285Y-110199214D02*
X171211857Y-110270642D01*
X170997571Y-110342071D01*
X170854714Y-110342071D01*
X170640428Y-110270642D01*
X170497571Y-110127785D01*
X170426142Y-109984928D01*
X170354714Y-109699214D01*
X170354714Y-109484928D01*
X170426142Y-109199214D01*
X170497571Y-109056357D01*
X170640428Y-108913500D01*
X170854714Y-108842071D01*
X170997571Y-108842071D01*
X171211857Y-108913500D01*
X171283285Y-108984928D01*
X171926142Y-108842071D02*
X171926142Y-110056357D01*
X171997571Y-110199214D01*
X172069000Y-110270642D01*
X172211857Y-110342071D01*
X172497571Y-110342071D01*
X172640428Y-110270642D01*
X172711857Y-110199214D01*
X172783285Y-110056357D01*
X172783285Y-108842071D01*
X175497571Y-110342071D02*
X174997571Y-109627785D01*
X174640428Y-110342071D02*
X174640428Y-108842071D01*
X175211857Y-108842071D01*
X175354714Y-108913500D01*
X175426142Y-108984928D01*
X175497571Y-109127785D01*
X175497571Y-109342071D01*
X175426142Y-109484928D01*
X175354714Y-109556357D01*
X175211857Y-109627785D01*
X174640428Y-109627785D01*
X176711857Y-110270642D02*
X176569000Y-110342071D01*
X176283285Y-110342071D01*
X176140428Y-110270642D01*
X176069000Y-110127785D01*
X176069000Y-109556357D01*
X176140428Y-109413500D01*
X176283285Y-109342071D01*
X176569000Y-109342071D01*
X176711857Y-109413500D01*
X176783285Y-109556357D01*
X176783285Y-109699214D01*
X176069000Y-109842071D01*
X177283285Y-109342071D02*
X177640428Y-110342071D01*
X177997571Y-109342071D01*
X178569000Y-110199214D02*
X178640428Y-110270642D01*
X178569000Y-110342071D01*
X178497571Y-110270642D01*
X178569000Y-110199214D01*
X178569000Y-110342071D01*
X180069000Y-110342071D02*
X179211857Y-110342071D01*
X179640428Y-110342071D02*
X179640428Y-108842071D01*
X179497571Y-109056357D01*
X179354714Y-109199214D01*
X179211857Y-109270642D01*
X159140428Y-111257071D02*
X159140428Y-112328500D01*
X159069000Y-112542785D01*
X158926142Y-112685642D01*
X158711857Y-112757071D01*
X158569000Y-112757071D01*
X160069000Y-112757071D02*
X159926142Y-112685642D01*
X159854714Y-112614214D01*
X159783285Y-112471357D01*
X159783285Y-112042785D01*
X159854714Y-111899928D01*
X159926142Y-111828500D01*
X160069000Y-111757071D01*
X160283285Y-111757071D01*
X160426142Y-111828500D01*
X160497571Y-111899928D01*
X160569000Y-112042785D01*
X160569000Y-112471357D01*
X160497571Y-112614214D01*
X160426142Y-112685642D01*
X160283285Y-112757071D01*
X160069000Y-112757071D01*
X161140428Y-112685642D02*
X161283285Y-112757071D01*
X161569000Y-112757071D01*
X161711857Y-112685642D01*
X161783285Y-112542785D01*
X161783285Y-112471357D01*
X161711857Y-112328500D01*
X161569000Y-112257071D01*
X161354714Y-112257071D01*
X161211857Y-112185642D01*
X161140428Y-112042785D01*
X161140428Y-111971357D01*
X161211857Y-111828500D01*
X161354714Y-111757071D01*
X161569000Y-111757071D01*
X161711857Y-111828500D01*
X162997571Y-112685642D02*
X162854714Y-112757071D01*
X162569000Y-112757071D01*
X162426142Y-112685642D01*
X162354714Y-112542785D01*
X162354714Y-111971357D01*
X162426142Y-111828500D01*
X162569000Y-111757071D01*
X162854714Y-111757071D01*
X162997571Y-111828500D01*
X163069000Y-111971357D01*
X163069000Y-112114214D01*
X162354714Y-112257071D01*
X163711857Y-111757071D02*
X163711857Y-113257071D01*
X163711857Y-111828500D02*
X163854714Y-111757071D01*
X164140428Y-111757071D01*
X164283285Y-111828500D01*
X164354714Y-111899928D01*
X164426142Y-112042785D01*
X164426142Y-112471357D01*
X164354714Y-112614214D01*
X164283285Y-112685642D01*
X164140428Y-112757071D01*
X163854714Y-112757071D01*
X163711857Y-112685642D01*
X165069000Y-112757071D02*
X165069000Y-111257071D01*
X165711857Y-112757071D02*
X165711857Y-111971357D01*
X165640428Y-111828500D01*
X165497571Y-111757071D01*
X165283285Y-111757071D01*
X165140428Y-111828500D01*
X165069000Y-111899928D01*
X168069000Y-111971357D02*
X168283285Y-112042785D01*
X168354714Y-112114214D01*
X168426142Y-112257071D01*
X168426142Y-112471357D01*
X168354714Y-112614214D01*
X168283285Y-112685642D01*
X168140428Y-112757071D01*
X167569000Y-112757071D01*
X167569000Y-111257071D01*
X168069000Y-111257071D01*
X168211857Y-111328500D01*
X168283285Y-111399928D01*
X168354714Y-111542785D01*
X168354714Y-111685642D01*
X168283285Y-111828500D01*
X168211857Y-111899928D01*
X168069000Y-111971357D01*
X167569000Y-111971357D01*
X169069000Y-112757071D02*
X169069000Y-111757071D01*
X169069000Y-112042785D02*
X169140428Y-111899928D01*
X169211857Y-111828500D01*
X169354714Y-111757071D01*
X169497571Y-111757071D01*
X170211857Y-112757071D02*
X170069000Y-112685642D01*
X169997571Y-112614214D01*
X169926142Y-112471357D01*
X169926142Y-112042785D01*
X169997571Y-111899928D01*
X170069000Y-111828500D01*
X170211857Y-111757071D01*
X170426142Y-111757071D01*
X170569000Y-111828500D01*
X170640428Y-111899928D01*
X170711857Y-112042785D01*
X170711857Y-112471357D01*
X170640428Y-112614214D01*
X170569000Y-112685642D01*
X170426142Y-112757071D01*
X170211857Y-112757071D01*
X171211857Y-111757071D02*
X171497571Y-112757071D01*
X171783285Y-112042785D01*
X172069000Y-112757071D01*
X172354714Y-111757071D01*
X172926142Y-111757071D02*
X172926142Y-112757071D01*
X172926142Y-111899928D02*
X172997571Y-111828500D01*
X173140428Y-111757071D01*
X173354714Y-111757071D01*
X173497571Y-111828500D01*
X173569000Y-111971357D01*
X173569000Y-112757071D01*
X175426142Y-112185642D02*
X176569000Y-112185642D01*
X178354714Y-111399928D02*
X178426142Y-111328500D01*
X178569000Y-111257071D01*
X178926142Y-111257071D01*
X179069000Y-111328500D01*
X179140428Y-111399928D01*
X179211857Y-111542785D01*
X179211857Y-111685642D01*
X179140428Y-111899928D01*
X178283285Y-112757071D01*
X179211857Y-112757071D01*
X180140428Y-111257071D02*
X180283285Y-111257071D01*
X180426142Y-111328500D01*
X180497571Y-111399928D01*
X180569000Y-111542785D01*
X180640428Y-111828500D01*
X180640428Y-112185642D01*
X180569000Y-112471357D01*
X180497571Y-112614214D01*
X180426142Y-112685642D01*
X180283285Y-112757071D01*
X180140428Y-112757071D01*
X179997571Y-112685642D01*
X179926142Y-112614214D01*
X179854714Y-112471357D01*
X179783285Y-112185642D01*
X179783285Y-111828500D01*
X179854714Y-111542785D01*
X179926142Y-111399928D01*
X179997571Y-111328500D01*
X180140428Y-111257071D01*
X181211857Y-111399928D02*
X181283285Y-111328500D01*
X181426142Y-111257071D01*
X181783285Y-111257071D01*
X181926142Y-111328500D01*
X181997571Y-111399928D01*
X182069000Y-111542785D01*
X182069000Y-111685642D01*
X181997571Y-111899928D01*
X181140428Y-112757071D01*
X182069000Y-112757071D01*
X182569000Y-111257071D02*
X183497571Y-111257071D01*
X182997571Y-111828500D01*
X183211857Y-111828500D01*
X183354714Y-111899928D01*
X183426142Y-111971357D01*
X183497571Y-112114214D01*
X183497571Y-112471357D01*
X183426142Y-112614214D01*
X183354714Y-112685642D01*
X183211857Y-112757071D01*
X182783285Y-112757071D01*
X182640428Y-112685642D01*
X182569000Y-112614214D01*
D12*
X227330000Y-148166000D02*
X142410000Y-148166000D01*
X229870000Y-60706000D02*
X229870000Y-145626000D01*
X229870000Y-60706000D02*
G75*
G03*
X227330000Y-58166000I-2540000J0D01*
G01*
X139870000Y-145626000D02*
X139870000Y-60706000D01*
X227330000Y-148166000D02*
G75*
G03*
X229870000Y-145626000I0J2540000D01*
G01*
X139870000Y-145626000D02*
G75*
G03*
X142410000Y-148166000I2540000J0D01*
G01*
X142410000Y-58166000D02*
X227330000Y-58166000D01*
X142410000Y-58166000D02*
G75*
G03*
X139870000Y-60706000I0J-2540000D01*
G01*
D13*
X186424333Y-117090000D02*
X186391000Y-117123333D01*
X186291000Y-117156666D01*
X186224333Y-117156666D01*
X186124333Y-117123333D01*
X186057666Y-117056666D01*
X186024333Y-116990000D01*
X185991000Y-116856666D01*
X185991000Y-116756666D01*
X186024333Y-116623333D01*
X186057666Y-116556666D01*
X186124333Y-116490000D01*
X186224333Y-116456666D01*
X186291000Y-116456666D01*
X186391000Y-116490000D01*
X186424333Y-116523333D01*
X186691000Y-117123333D02*
X186791000Y-117156666D01*
X186957666Y-117156666D01*
X187024333Y-117123333D01*
X187057666Y-117090000D01*
X187091000Y-117023333D01*
X187091000Y-116956666D01*
X187057666Y-116890000D01*
X187024333Y-116856666D01*
X186957666Y-116823333D01*
X186824333Y-116790000D01*
X186757666Y-116756666D01*
X186724333Y-116723333D01*
X186691000Y-116656666D01*
X186691000Y-116590000D01*
X186724333Y-116523333D01*
X186757666Y-116490000D01*
X186824333Y-116456666D01*
X186991000Y-116456666D01*
X187091000Y-116490000D01*
X188457666Y-117156666D02*
X188457666Y-116456666D01*
X188691000Y-116956666D01*
X188924333Y-116456666D01*
X188924333Y-117156666D01*
X189391000Y-116456666D02*
X189524333Y-116456666D01*
X189591000Y-116490000D01*
X189657666Y-116556666D01*
X189691000Y-116690000D01*
X189691000Y-116923333D01*
X189657666Y-117056666D01*
X189591000Y-117123333D01*
X189524333Y-117156666D01*
X189391000Y-117156666D01*
X189324333Y-117123333D01*
X189257666Y-117056666D01*
X189224333Y-116923333D01*
X189224333Y-116690000D01*
X189257666Y-116556666D01*
X189324333Y-116490000D01*
X189391000Y-116456666D01*
X189957666Y-117123333D02*
X190057666Y-117156666D01*
X190224333Y-117156666D01*
X190291000Y-117123333D01*
X190324333Y-117090000D01*
X190357666Y-117023333D01*
X190357666Y-116956666D01*
X190324333Y-116890000D01*
X190291000Y-116856666D01*
X190224333Y-116823333D01*
X190091000Y-116790000D01*
X190024333Y-116756666D01*
X189991000Y-116723333D01*
X189957666Y-116656666D01*
X189957666Y-116590000D01*
X189991000Y-116523333D01*
X190024333Y-116490000D01*
X190091000Y-116456666D01*
X190257666Y-116456666D01*
X190357666Y-116490000D01*
X190657666Y-117156666D02*
X190657666Y-116456666D01*
D10*
X184284666Y-71436666D02*
X184284666Y-70736666D01*
X184284666Y-71070000D02*
X184684666Y-71070000D01*
X184684666Y-71436666D02*
X184684666Y-70736666D01*
X185018000Y-71436666D02*
X185018000Y-70970000D01*
X185018000Y-70736666D02*
X184984666Y-70770000D01*
X185018000Y-70803333D01*
X185051333Y-70770000D01*
X185018000Y-70736666D01*
X185018000Y-70803333D01*
X185651333Y-70970000D02*
X185651333Y-71536666D01*
X185618000Y-71603333D01*
X185584666Y-71636666D01*
X185518000Y-71670000D01*
X185418000Y-71670000D01*
X185351333Y-71636666D01*
X185651333Y-71403333D02*
X185584666Y-71436666D01*
X185451333Y-71436666D01*
X185384666Y-71403333D01*
X185351333Y-71370000D01*
X185318000Y-71303333D01*
X185318000Y-71103333D01*
X185351333Y-71036666D01*
X185384666Y-71003333D01*
X185451333Y-70970000D01*
X185584666Y-70970000D01*
X185651333Y-71003333D01*
X185984666Y-71436666D02*
X185984666Y-70736666D01*
X186284666Y-71436666D02*
X186284666Y-71070000D01*
X186251333Y-71003333D01*
X186184666Y-70970000D01*
X186084666Y-70970000D01*
X186018000Y-71003333D01*
X185984666Y-71036666D01*
X187384666Y-71070000D02*
X187484666Y-71103333D01*
X187518000Y-71136666D01*
X187551333Y-71203333D01*
X187551333Y-71303333D01*
X187518000Y-71370000D01*
X187484666Y-71403333D01*
X187418000Y-71436666D01*
X187151333Y-71436666D01*
X187151333Y-70736666D01*
X187384666Y-70736666D01*
X187451333Y-70770000D01*
X187484666Y-70803333D01*
X187518000Y-70870000D01*
X187518000Y-70936666D01*
X187484666Y-71003333D01*
X187451333Y-71036666D01*
X187384666Y-71070000D01*
X187151333Y-71070000D01*
X187984666Y-70736666D02*
X188118000Y-70736666D01*
X188184666Y-70770000D01*
X188251333Y-70836666D01*
X188284666Y-70970000D01*
X188284666Y-71203333D01*
X188251333Y-71336666D01*
X188184666Y-71403333D01*
X188118000Y-71436666D01*
X187984666Y-71436666D01*
X187918000Y-71403333D01*
X187851333Y-71336666D01*
X187818000Y-71203333D01*
X187818000Y-70970000D01*
X187851333Y-70836666D01*
X187918000Y-70770000D01*
X187984666Y-70736666D01*
X188718000Y-70736666D02*
X188851333Y-70736666D01*
X188918000Y-70770000D01*
X188984666Y-70836666D01*
X189018000Y-70970000D01*
X189018000Y-71203333D01*
X188984666Y-71336666D01*
X188918000Y-71403333D01*
X188851333Y-71436666D01*
X188718000Y-71436666D01*
X188651333Y-71403333D01*
X188584666Y-71336666D01*
X188551333Y-71203333D01*
X188551333Y-70970000D01*
X188584666Y-70836666D01*
X188651333Y-70770000D01*
X188718000Y-70736666D01*
X189218000Y-70736666D02*
X189618000Y-70736666D01*
X189418000Y-71436666D02*
X189418000Y-70736666D01*
X189984666Y-70736666D02*
X190051333Y-70736666D01*
X190118000Y-70770000D01*
X190151333Y-70803333D01*
X190184666Y-70870000D01*
X190218000Y-71003333D01*
X190218000Y-71170000D01*
X190184666Y-71303333D01*
X190151333Y-71370000D01*
X190118000Y-71403333D01*
X190051333Y-71436666D01*
X189984666Y-71436666D01*
X189918000Y-71403333D01*
X189884666Y-71370000D01*
X189851333Y-71303333D01*
X189818000Y-71170000D01*
X189818000Y-71003333D01*
X189851333Y-70870000D01*
X189884666Y-70803333D01*
X189918000Y-70770000D01*
X189984666Y-70736666D01*
X191384666Y-71436666D02*
X191051333Y-71436666D01*
X191051333Y-70736666D01*
X191718000Y-71436666D02*
X191651333Y-71403333D01*
X191618000Y-71370000D01*
X191584666Y-71303333D01*
X191584666Y-71103333D01*
X191618000Y-71036666D01*
X191651333Y-71003333D01*
X191718000Y-70970000D01*
X191818000Y-70970000D01*
X191884666Y-71003333D01*
X191918000Y-71036666D01*
X191951333Y-71103333D01*
X191951333Y-71303333D01*
X191918000Y-71370000D01*
X191884666Y-71403333D01*
X191818000Y-71436666D01*
X191718000Y-71436666D01*
X192184666Y-70970000D02*
X192318000Y-71436666D01*
X192451333Y-71103333D01*
X192584666Y-71436666D01*
X192718000Y-70970000D01*
D13*
X204150333Y-101281666D02*
X203817000Y-101281666D01*
X203817000Y-100581666D01*
X204383666Y-100915000D02*
X204617000Y-100915000D01*
X204717000Y-101281666D02*
X204383666Y-101281666D01*
X204383666Y-100581666D01*
X204717000Y-100581666D01*
X205017000Y-101281666D02*
X205017000Y-100581666D01*
X205183666Y-100581666D01*
X205283666Y-100615000D01*
X205350333Y-100681666D01*
X205383666Y-100748333D01*
X205417000Y-100881666D01*
X205417000Y-100981666D01*
X205383666Y-101115000D01*
X205350333Y-101181666D01*
X205283666Y-101248333D01*
X205183666Y-101281666D01*
X205017000Y-101281666D01*
X206650333Y-101281666D02*
X206417000Y-100948333D01*
X206250333Y-101281666D02*
X206250333Y-100581666D01*
X206517000Y-100581666D01*
X206583666Y-100615000D01*
X206617000Y-100648333D01*
X206650333Y-100715000D01*
X206650333Y-100815000D01*
X206617000Y-100881666D01*
X206583666Y-100915000D01*
X206517000Y-100948333D01*
X206250333Y-100948333D01*
X206950333Y-100915000D02*
X207183666Y-100915000D01*
X207283666Y-101281666D02*
X206950333Y-101281666D01*
X206950333Y-100581666D01*
X207283666Y-100581666D01*
X207550333Y-101248333D02*
X207650333Y-101281666D01*
X207817000Y-101281666D01*
X207883666Y-101248333D01*
X207917000Y-101215000D01*
X207950333Y-101148333D01*
X207950333Y-101081666D01*
X207917000Y-101015000D01*
X207883666Y-100981666D01*
X207817000Y-100948333D01*
X207683666Y-100915000D01*
X207617000Y-100881666D01*
X207583666Y-100848333D01*
X207550333Y-100781666D01*
X207550333Y-100715000D01*
X207583666Y-100648333D01*
X207617000Y-100615000D01*
X207683666Y-100581666D01*
X207850333Y-100581666D01*
X207950333Y-100615000D01*
D14*
X141232000Y-121768761D02*
X141184380Y-121864000D01*
X141184380Y-122006857D01*
X141232000Y-122149714D01*
X141327238Y-122244952D01*
X141422476Y-122292571D01*
X141612952Y-122340190D01*
X141755809Y-122340190D01*
X141946285Y-122292571D01*
X142041523Y-122244952D01*
X142136761Y-122149714D01*
X142184380Y-122006857D01*
X142184380Y-121911619D01*
X142136761Y-121768761D01*
X142089142Y-121721142D01*
X141755809Y-121721142D01*
X141755809Y-121911619D01*
X142184380Y-121292571D02*
X141184380Y-121292571D01*
X142184380Y-120721142D01*
X141184380Y-120721142D01*
X142184380Y-120244952D02*
X141184380Y-120244952D01*
X141184380Y-120006857D01*
X141232000Y-119864000D01*
X141327238Y-119768761D01*
X141422476Y-119721142D01*
X141612952Y-119673523D01*
X141755809Y-119673523D01*
X141946285Y-119721142D01*
X142041523Y-119768761D01*
X142136761Y-119864000D01*
X142184380Y-120006857D01*
X142184380Y-120244952D01*
X141184380Y-116340190D02*
X142184380Y-116006857D01*
X141184380Y-115673523D01*
X142184380Y-115340190D02*
X141517714Y-115340190D01*
X141184380Y-115340190D02*
X141232000Y-115387809D01*
X141279619Y-115340190D01*
X141232000Y-115292571D01*
X141184380Y-115340190D01*
X141279619Y-115340190D01*
X141517714Y-114864000D02*
X142184380Y-114864000D01*
X141612952Y-114864000D02*
X141565333Y-114816380D01*
X141517714Y-114721142D01*
X141517714Y-114578285D01*
X141565333Y-114483047D01*
X141660571Y-114435428D01*
X142184380Y-114435428D01*
D10*
%TO.C,J9*%
X221789666Y-70782380D02*
X221789666Y-71496666D01*
X221742047Y-71639523D01*
X221646809Y-71734761D01*
X221503952Y-71782380D01*
X221408714Y-71782380D01*
X222313476Y-71782380D02*
X222503952Y-71782380D01*
X222599190Y-71734761D01*
X222646809Y-71687142D01*
X222742047Y-71544285D01*
X222789666Y-71353809D01*
X222789666Y-70972857D01*
X222742047Y-70877619D01*
X222694428Y-70830000D01*
X222599190Y-70782380D01*
X222408714Y-70782380D01*
X222313476Y-70830000D01*
X222265857Y-70877619D01*
X222218238Y-70972857D01*
X222218238Y-71210952D01*
X222265857Y-71306190D01*
X222313476Y-71353809D01*
X222408714Y-71401428D01*
X222599190Y-71401428D01*
X222694428Y-71353809D01*
X222742047Y-71306190D01*
X222789666Y-71210952D01*
%TO.C,J8*%
X161123380Y-65611333D02*
X161837666Y-65611333D01*
X161980523Y-65658952D01*
X162075761Y-65754190D01*
X162123380Y-65897047D01*
X162123380Y-65992285D01*
X161551952Y-64992285D02*
X161504333Y-65087523D01*
X161456714Y-65135142D01*
X161361476Y-65182761D01*
X161313857Y-65182761D01*
X161218619Y-65135142D01*
X161171000Y-65087523D01*
X161123380Y-64992285D01*
X161123380Y-64801809D01*
X161171000Y-64706571D01*
X161218619Y-64658952D01*
X161313857Y-64611333D01*
X161361476Y-64611333D01*
X161456714Y-64658952D01*
X161504333Y-64706571D01*
X161551952Y-64801809D01*
X161551952Y-64992285D01*
X161599571Y-65087523D01*
X161647190Y-65135142D01*
X161742428Y-65182761D01*
X161932904Y-65182761D01*
X162028142Y-65135142D01*
X162075761Y-65087523D01*
X162123380Y-64992285D01*
X162123380Y-64801809D01*
X162075761Y-64706571D01*
X162028142Y-64658952D01*
X161932904Y-64611333D01*
X161742428Y-64611333D01*
X161647190Y-64658952D01*
X161599571Y-64706571D01*
X161551952Y-64801809D01*
%TO.C,IC4*%
X172378809Y-123417380D02*
X172378809Y-122417380D01*
X173426428Y-123322142D02*
X173378809Y-123369761D01*
X173235952Y-123417380D01*
X173140714Y-123417380D01*
X172997857Y-123369761D01*
X172902619Y-123274523D01*
X172855000Y-123179285D01*
X172807380Y-122988809D01*
X172807380Y-122845952D01*
X172855000Y-122655476D01*
X172902619Y-122560238D01*
X172997857Y-122465000D01*
X173140714Y-122417380D01*
X173235952Y-122417380D01*
X173378809Y-122465000D01*
X173426428Y-122512619D01*
X174283571Y-122750714D02*
X174283571Y-123417380D01*
X174045476Y-122369761D02*
X173807380Y-123084047D01*
X174426428Y-123084047D01*
%TO.C,TP3*%
X160282095Y-141692380D02*
X160853523Y-141692380D01*
X160567809Y-142692380D02*
X160567809Y-141692380D01*
X161186857Y-142692380D02*
X161186857Y-141692380D01*
X161567809Y-141692380D01*
X161663047Y-141740000D01*
X161710666Y-141787619D01*
X161758285Y-141882857D01*
X161758285Y-142025714D01*
X161710666Y-142120952D01*
X161663047Y-142168571D01*
X161567809Y-142216190D01*
X161186857Y-142216190D01*
X162091619Y-141692380D02*
X162710666Y-141692380D01*
X162377333Y-142073333D01*
X162520190Y-142073333D01*
X162615428Y-142120952D01*
X162663047Y-142168571D01*
X162710666Y-142263809D01*
X162710666Y-142501904D01*
X162663047Y-142597142D01*
X162615428Y-142644761D01*
X162520190Y-142692380D01*
X162234476Y-142692380D01*
X162139238Y-142644761D01*
X162091619Y-142597142D01*
%TO.C,TP8*%
X192329380Y-121784904D02*
X192329380Y-121213476D01*
X193329380Y-121499190D02*
X192329380Y-121499190D01*
X193329380Y-120880142D02*
X192329380Y-120880142D01*
X192329380Y-120499190D01*
X192377000Y-120403952D01*
X192424619Y-120356333D01*
X192519857Y-120308714D01*
X192662714Y-120308714D01*
X192757952Y-120356333D01*
X192805571Y-120403952D01*
X192853190Y-120499190D01*
X192853190Y-120880142D01*
X192757952Y-119737285D02*
X192710333Y-119832523D01*
X192662714Y-119880142D01*
X192567476Y-119927761D01*
X192519857Y-119927761D01*
X192424619Y-119880142D01*
X192377000Y-119832523D01*
X192329380Y-119737285D01*
X192329380Y-119546809D01*
X192377000Y-119451571D01*
X192424619Y-119403952D01*
X192519857Y-119356333D01*
X192567476Y-119356333D01*
X192662714Y-119403952D01*
X192710333Y-119451571D01*
X192757952Y-119546809D01*
X192757952Y-119737285D01*
X192805571Y-119832523D01*
X192853190Y-119880142D01*
X192948428Y-119927761D01*
X193138904Y-119927761D01*
X193234142Y-119880142D01*
X193281761Y-119832523D01*
X193329380Y-119737285D01*
X193329380Y-119546809D01*
X193281761Y-119451571D01*
X193234142Y-119403952D01*
X193138904Y-119356333D01*
X192948428Y-119356333D01*
X192853190Y-119403952D01*
X192805571Y-119451571D01*
X192757952Y-119546809D01*
X188734142Y-121165857D02*
X188781761Y-121213476D01*
X188829380Y-121356333D01*
X188829380Y-121451571D01*
X188781761Y-121594428D01*
X188686523Y-121689666D01*
X188591285Y-121737285D01*
X188400809Y-121784904D01*
X188257952Y-121784904D01*
X188067476Y-121737285D01*
X187972238Y-121689666D01*
X187877000Y-121594428D01*
X187829380Y-121451571D01*
X187829380Y-121356333D01*
X187877000Y-121213476D01*
X187924619Y-121165857D01*
X188781761Y-120784904D02*
X188829380Y-120642047D01*
X188829380Y-120403952D01*
X188781761Y-120308714D01*
X188734142Y-120261095D01*
X188638904Y-120213476D01*
X188543666Y-120213476D01*
X188448428Y-120261095D01*
X188400809Y-120308714D01*
X188353190Y-120403952D01*
X188305571Y-120594428D01*
X188257952Y-120689666D01*
X188210333Y-120737285D01*
X188115095Y-120784904D01*
X188019857Y-120784904D01*
X187924619Y-120737285D01*
X187877000Y-120689666D01*
X187829380Y-120594428D01*
X187829380Y-120356333D01*
X187877000Y-120213476D01*
X188829380Y-119261095D02*
X188829380Y-119832523D01*
X188829380Y-119546809D02*
X187829380Y-119546809D01*
X187972238Y-119642047D01*
X188067476Y-119737285D01*
X188115095Y-119832523D01*
%TO.C,L1*%
X155728333Y-129882380D02*
X155252142Y-129882380D01*
X155252142Y-128882380D01*
X156585476Y-129882380D02*
X156014047Y-129882380D01*
X156299761Y-129882380D02*
X156299761Y-128882380D01*
X156204523Y-129025238D01*
X156109285Y-129120476D01*
X156014047Y-129168095D01*
%TO.C,TP13*%
X202350904Y-66798380D02*
X202922333Y-66798380D01*
X202636619Y-67798380D02*
X202636619Y-66798380D01*
X203255666Y-67798380D02*
X203255666Y-66798380D01*
X203636619Y-66798380D01*
X203731857Y-66846000D01*
X203779476Y-66893619D01*
X203827095Y-66988857D01*
X203827095Y-67131714D01*
X203779476Y-67226952D01*
X203731857Y-67274571D01*
X203636619Y-67322190D01*
X203255666Y-67322190D01*
X204779476Y-67798380D02*
X204208047Y-67798380D01*
X204493761Y-67798380D02*
X204493761Y-66798380D01*
X204398523Y-66941238D01*
X204303285Y-67036476D01*
X204208047Y-67084095D01*
X205112809Y-66798380D02*
X205731857Y-66798380D01*
X205398523Y-67179333D01*
X205541380Y-67179333D01*
X205636619Y-67226952D01*
X205684238Y-67274571D01*
X205731857Y-67369809D01*
X205731857Y-67607904D01*
X205684238Y-67703142D01*
X205636619Y-67750761D01*
X205541380Y-67798380D01*
X205255666Y-67798380D01*
X205160428Y-67750761D01*
X205112809Y-67703142D01*
X201358904Y-72334380D02*
X201358904Y-71334380D01*
X201787476Y-71429619D02*
X201835095Y-71382000D01*
X201930333Y-71334380D01*
X202168428Y-71334380D01*
X202263666Y-71382000D01*
X202311285Y-71429619D01*
X202358904Y-71524857D01*
X202358904Y-71620095D01*
X202311285Y-71762952D01*
X201739857Y-72334380D01*
X202358904Y-72334380D01*
X203358904Y-72239142D02*
X203311285Y-72286761D01*
X203168428Y-72334380D01*
X203073190Y-72334380D01*
X202930333Y-72286761D01*
X202835095Y-72191523D01*
X202787476Y-72096285D01*
X202739857Y-71905809D01*
X202739857Y-71762952D01*
X202787476Y-71572476D01*
X202835095Y-71477238D01*
X202930333Y-71382000D01*
X203073190Y-71334380D01*
X203168428Y-71334380D01*
X203311285Y-71382000D01*
X203358904Y-71429619D01*
X203739857Y-71429619D02*
X203787476Y-71382000D01*
X203882714Y-71334380D01*
X204120809Y-71334380D01*
X204216047Y-71382000D01*
X204263666Y-71429619D01*
X204311285Y-71524857D01*
X204311285Y-71620095D01*
X204263666Y-71762952D01*
X203692238Y-72334380D01*
X204311285Y-72334380D01*
X204501761Y-72429619D02*
X205263666Y-72429619D01*
X205454142Y-72286761D02*
X205597000Y-72334380D01*
X205835095Y-72334380D01*
X205930333Y-72286761D01*
X205977952Y-72239142D01*
X206025571Y-72143904D01*
X206025571Y-72048666D01*
X205977952Y-71953428D01*
X205930333Y-71905809D01*
X205835095Y-71858190D01*
X205644619Y-71810571D01*
X205549380Y-71762952D01*
X205501761Y-71715333D01*
X205454142Y-71620095D01*
X205454142Y-71524857D01*
X205501761Y-71429619D01*
X205549380Y-71382000D01*
X205644619Y-71334380D01*
X205882714Y-71334380D01*
X206025571Y-71382000D01*
X206454142Y-72334380D02*
X206454142Y-71334380D01*
X206692238Y-71334380D01*
X206835095Y-71382000D01*
X206930333Y-71477238D01*
X206977952Y-71572476D01*
X207025571Y-71762952D01*
X207025571Y-71905809D01*
X206977952Y-72096285D01*
X206930333Y-72191523D01*
X206835095Y-72286761D01*
X206692238Y-72334380D01*
X206454142Y-72334380D01*
X207406523Y-72048666D02*
X207882714Y-72048666D01*
X207311285Y-72334380D02*
X207644619Y-71334380D01*
X207977952Y-72334380D01*
%TO.C,C13*%
X181120642Y-101863142D02*
X181073023Y-101910761D01*
X180930166Y-101958380D01*
X180834928Y-101958380D01*
X180692071Y-101910761D01*
X180596833Y-101815523D01*
X180549214Y-101720285D01*
X180501595Y-101529809D01*
X180501595Y-101386952D01*
X180549214Y-101196476D01*
X180596833Y-101101238D01*
X180692071Y-101006000D01*
X180834928Y-100958380D01*
X180930166Y-100958380D01*
X181073023Y-101006000D01*
X181120642Y-101053619D01*
X182073023Y-101958380D02*
X181501595Y-101958380D01*
X181787309Y-101958380D02*
X181787309Y-100958380D01*
X181692071Y-101101238D01*
X181596833Y-101196476D01*
X181501595Y-101244095D01*
X182406357Y-100958380D02*
X183025404Y-100958380D01*
X182692071Y-101339333D01*
X182834928Y-101339333D01*
X182930166Y-101386952D01*
X182977785Y-101434571D01*
X183025404Y-101529809D01*
X183025404Y-101767904D01*
X182977785Y-101863142D01*
X182930166Y-101910761D01*
X182834928Y-101958380D01*
X182549214Y-101958380D01*
X182453976Y-101910761D01*
X182406357Y-101863142D01*
%TO.C,C23*%
X176802642Y-84525142D02*
X176755023Y-84572761D01*
X176612166Y-84620380D01*
X176516928Y-84620380D01*
X176374071Y-84572761D01*
X176278833Y-84477523D01*
X176231214Y-84382285D01*
X176183595Y-84191809D01*
X176183595Y-84048952D01*
X176231214Y-83858476D01*
X176278833Y-83763238D01*
X176374071Y-83668000D01*
X176516928Y-83620380D01*
X176612166Y-83620380D01*
X176755023Y-83668000D01*
X176802642Y-83715619D01*
X177183595Y-83715619D02*
X177231214Y-83668000D01*
X177326452Y-83620380D01*
X177564547Y-83620380D01*
X177659785Y-83668000D01*
X177707404Y-83715619D01*
X177755023Y-83810857D01*
X177755023Y-83906095D01*
X177707404Y-84048952D01*
X177135976Y-84620380D01*
X177755023Y-84620380D01*
X178088357Y-83620380D02*
X178707404Y-83620380D01*
X178374071Y-84001333D01*
X178516928Y-84001333D01*
X178612166Y-84048952D01*
X178659785Y-84096571D01*
X178707404Y-84191809D01*
X178707404Y-84429904D01*
X178659785Y-84525142D01*
X178612166Y-84572761D01*
X178516928Y-84620380D01*
X178231214Y-84620380D01*
X178135976Y-84572761D01*
X178088357Y-84525142D01*
%TO.C,C9*%
X180857142Y-133516666D02*
X180904761Y-133564285D01*
X180952380Y-133707142D01*
X180952380Y-133802380D01*
X180904761Y-133945238D01*
X180809523Y-134040476D01*
X180714285Y-134088095D01*
X180523809Y-134135714D01*
X180380952Y-134135714D01*
X180190476Y-134088095D01*
X180095238Y-134040476D01*
X180000000Y-133945238D01*
X179952380Y-133802380D01*
X179952380Y-133707142D01*
X180000000Y-133564285D01*
X180047619Y-133516666D01*
X180952380Y-133040476D02*
X180952380Y-132850000D01*
X180904761Y-132754761D01*
X180857142Y-132707142D01*
X180714285Y-132611904D01*
X180523809Y-132564285D01*
X180142857Y-132564285D01*
X180047619Y-132611904D01*
X180000000Y-132659523D01*
X179952380Y-132754761D01*
X179952380Y-132945238D01*
X180000000Y-133040476D01*
X180047619Y-133088095D01*
X180142857Y-133135714D01*
X180380952Y-133135714D01*
X180476190Y-133088095D01*
X180523809Y-133040476D01*
X180571428Y-132945238D01*
X180571428Y-132754761D01*
X180523809Y-132659523D01*
X180476190Y-132611904D01*
X180380952Y-132564285D01*
%TO.C,C6*%
X185087142Y-133224166D02*
X185134761Y-133271785D01*
X185182380Y-133414642D01*
X185182380Y-133509880D01*
X185134761Y-133652738D01*
X185039523Y-133747976D01*
X184944285Y-133795595D01*
X184753809Y-133843214D01*
X184610952Y-133843214D01*
X184420476Y-133795595D01*
X184325238Y-133747976D01*
X184230000Y-133652738D01*
X184182380Y-133509880D01*
X184182380Y-133414642D01*
X184230000Y-133271785D01*
X184277619Y-133224166D01*
X184182380Y-132367023D02*
X184182380Y-132557500D01*
X184230000Y-132652738D01*
X184277619Y-132700357D01*
X184420476Y-132795595D01*
X184610952Y-132843214D01*
X184991904Y-132843214D01*
X185087142Y-132795595D01*
X185134761Y-132747976D01*
X185182380Y-132652738D01*
X185182380Y-132462261D01*
X185134761Y-132367023D01*
X185087142Y-132319404D01*
X184991904Y-132271785D01*
X184753809Y-132271785D01*
X184658571Y-132319404D01*
X184610952Y-132367023D01*
X184563333Y-132462261D01*
X184563333Y-132652738D01*
X184610952Y-132747976D01*
X184658571Y-132795595D01*
X184753809Y-132843214D01*
%TO.C,R14*%
X206913642Y-142502380D02*
X206580309Y-142026190D01*
X206342214Y-142502380D02*
X206342214Y-141502380D01*
X206723166Y-141502380D01*
X206818404Y-141550000D01*
X206866023Y-141597619D01*
X206913642Y-141692857D01*
X206913642Y-141835714D01*
X206866023Y-141930952D01*
X206818404Y-141978571D01*
X206723166Y-142026190D01*
X206342214Y-142026190D01*
X207866023Y-142502380D02*
X207294595Y-142502380D01*
X207580309Y-142502380D02*
X207580309Y-141502380D01*
X207485071Y-141645238D01*
X207389833Y-141740476D01*
X207294595Y-141788095D01*
X208723166Y-141835714D02*
X208723166Y-142502380D01*
X208485071Y-141454761D02*
X208246976Y-142169047D01*
X208866023Y-142169047D01*
%TO.C,TP6*%
X157996095Y-75180380D02*
X158567523Y-75180380D01*
X158281809Y-76180380D02*
X158281809Y-75180380D01*
X158900857Y-76180380D02*
X158900857Y-75180380D01*
X159281809Y-75180380D01*
X159377047Y-75228000D01*
X159424666Y-75275619D01*
X159472285Y-75370857D01*
X159472285Y-75513714D01*
X159424666Y-75608952D01*
X159377047Y-75656571D01*
X159281809Y-75704190D01*
X158900857Y-75704190D01*
X160329428Y-75180380D02*
X160138952Y-75180380D01*
X160043714Y-75228000D01*
X159996095Y-75275619D01*
X159900857Y-75418476D01*
X159853238Y-75608952D01*
X159853238Y-75989904D01*
X159900857Y-76085142D01*
X159948476Y-76132761D01*
X160043714Y-76180380D01*
X160234190Y-76180380D01*
X160329428Y-76132761D01*
X160377047Y-76085142D01*
X160424666Y-75989904D01*
X160424666Y-75751809D01*
X160377047Y-75656571D01*
X160329428Y-75608952D01*
X160234190Y-75561333D01*
X160043714Y-75561333D01*
X159948476Y-75608952D01*
X159900857Y-75656571D01*
X159853238Y-75751809D01*
%TO.C,C15*%
X178429142Y-101957142D02*
X178381523Y-102004761D01*
X178238666Y-102052380D01*
X178143428Y-102052380D01*
X178000571Y-102004761D01*
X177905333Y-101909523D01*
X177857714Y-101814285D01*
X177810095Y-101623809D01*
X177810095Y-101480952D01*
X177857714Y-101290476D01*
X177905333Y-101195238D01*
X178000571Y-101100000D01*
X178143428Y-101052380D01*
X178238666Y-101052380D01*
X178381523Y-101100000D01*
X178429142Y-101147619D01*
X179381523Y-102052380D02*
X178810095Y-102052380D01*
X179095809Y-102052380D02*
X179095809Y-101052380D01*
X179000571Y-101195238D01*
X178905333Y-101290476D01*
X178810095Y-101338095D01*
X180286285Y-101052380D02*
X179810095Y-101052380D01*
X179762476Y-101528571D01*
X179810095Y-101480952D01*
X179905333Y-101433333D01*
X180143428Y-101433333D01*
X180238666Y-101480952D01*
X180286285Y-101528571D01*
X180333904Y-101623809D01*
X180333904Y-101861904D01*
X180286285Y-101957142D01*
X180238666Y-102004761D01*
X180143428Y-102052380D01*
X179905333Y-102052380D01*
X179810095Y-102004761D01*
X179762476Y-101957142D01*
%TO.C,IC3*%
X213972809Y-68541380D02*
X213972809Y-67541380D01*
X215020428Y-68446142D02*
X214972809Y-68493761D01*
X214829952Y-68541380D01*
X214734714Y-68541380D01*
X214591857Y-68493761D01*
X214496619Y-68398523D01*
X214449000Y-68303285D01*
X214401380Y-68112809D01*
X214401380Y-67969952D01*
X214449000Y-67779476D01*
X214496619Y-67684238D01*
X214591857Y-67589000D01*
X214734714Y-67541380D01*
X214829952Y-67541380D01*
X214972809Y-67589000D01*
X215020428Y-67636619D01*
X215353761Y-67541380D02*
X215972809Y-67541380D01*
X215639476Y-67922333D01*
X215782333Y-67922333D01*
X215877571Y-67969952D01*
X215925190Y-68017571D01*
X215972809Y-68112809D01*
X215972809Y-68350904D01*
X215925190Y-68446142D01*
X215877571Y-68493761D01*
X215782333Y-68541380D01*
X215496619Y-68541380D01*
X215401380Y-68493761D01*
X215353761Y-68446142D01*
%TO.C,R5*%
X186667380Y-137961666D02*
X186191190Y-138295000D01*
X186667380Y-138533095D02*
X185667380Y-138533095D01*
X185667380Y-138152142D01*
X185715000Y-138056904D01*
X185762619Y-138009285D01*
X185857857Y-137961666D01*
X186000714Y-137961666D01*
X186095952Y-138009285D01*
X186143571Y-138056904D01*
X186191190Y-138152142D01*
X186191190Y-138533095D01*
X185667380Y-137056904D02*
X185667380Y-137533095D01*
X186143571Y-137580714D01*
X186095952Y-137533095D01*
X186048333Y-137437857D01*
X186048333Y-137199761D01*
X186095952Y-137104523D01*
X186143571Y-137056904D01*
X186238809Y-137009285D01*
X186476904Y-137009285D01*
X186572142Y-137056904D01*
X186619761Y-137104523D01*
X186667380Y-137199761D01*
X186667380Y-137437857D01*
X186619761Y-137533095D01*
X186572142Y-137580714D01*
%TO.C,C19*%
X201050142Y-102089357D02*
X201097761Y-102136976D01*
X201145380Y-102279833D01*
X201145380Y-102375071D01*
X201097761Y-102517928D01*
X201002523Y-102613166D01*
X200907285Y-102660785D01*
X200716809Y-102708404D01*
X200573952Y-102708404D01*
X200383476Y-102660785D01*
X200288238Y-102613166D01*
X200193000Y-102517928D01*
X200145380Y-102375071D01*
X200145380Y-102279833D01*
X200193000Y-102136976D01*
X200240619Y-102089357D01*
X201145380Y-101136976D02*
X201145380Y-101708404D01*
X201145380Y-101422690D02*
X200145380Y-101422690D01*
X200288238Y-101517928D01*
X200383476Y-101613166D01*
X200431095Y-101708404D01*
X201145380Y-100660785D02*
X201145380Y-100470309D01*
X201097761Y-100375071D01*
X201050142Y-100327452D01*
X200907285Y-100232214D01*
X200716809Y-100184595D01*
X200335857Y-100184595D01*
X200240619Y-100232214D01*
X200193000Y-100279833D01*
X200145380Y-100375071D01*
X200145380Y-100565547D01*
X200193000Y-100660785D01*
X200240619Y-100708404D01*
X200335857Y-100756023D01*
X200573952Y-100756023D01*
X200669190Y-100708404D01*
X200716809Y-100660785D01*
X200764428Y-100565547D01*
X200764428Y-100375071D01*
X200716809Y-100279833D01*
X200669190Y-100232214D01*
X200573952Y-100184595D01*
%TO.C,C17*%
X181120642Y-96656142D02*
X181073023Y-96703761D01*
X180930166Y-96751380D01*
X180834928Y-96751380D01*
X180692071Y-96703761D01*
X180596833Y-96608523D01*
X180549214Y-96513285D01*
X180501595Y-96322809D01*
X180501595Y-96179952D01*
X180549214Y-95989476D01*
X180596833Y-95894238D01*
X180692071Y-95799000D01*
X180834928Y-95751380D01*
X180930166Y-95751380D01*
X181073023Y-95799000D01*
X181120642Y-95846619D01*
X182073023Y-96751380D02*
X181501595Y-96751380D01*
X181787309Y-96751380D02*
X181787309Y-95751380D01*
X181692071Y-95894238D01*
X181596833Y-95989476D01*
X181501595Y-96037095D01*
X182406357Y-95751380D02*
X183073023Y-95751380D01*
X182644452Y-96751380D01*
%TO.C,C22*%
X186936142Y-103133142D02*
X186888523Y-103180761D01*
X186745666Y-103228380D01*
X186650428Y-103228380D01*
X186507571Y-103180761D01*
X186412333Y-103085523D01*
X186364714Y-102990285D01*
X186317095Y-102799809D01*
X186317095Y-102656952D01*
X186364714Y-102466476D01*
X186412333Y-102371238D01*
X186507571Y-102276000D01*
X186650428Y-102228380D01*
X186745666Y-102228380D01*
X186888523Y-102276000D01*
X186936142Y-102323619D01*
X187317095Y-102323619D02*
X187364714Y-102276000D01*
X187459952Y-102228380D01*
X187698047Y-102228380D01*
X187793285Y-102276000D01*
X187840904Y-102323619D01*
X187888523Y-102418857D01*
X187888523Y-102514095D01*
X187840904Y-102656952D01*
X187269476Y-103228380D01*
X187888523Y-103228380D01*
X188269476Y-102323619D02*
X188317095Y-102276000D01*
X188412333Y-102228380D01*
X188650428Y-102228380D01*
X188745666Y-102276000D01*
X188793285Y-102323619D01*
X188840904Y-102418857D01*
X188840904Y-102514095D01*
X188793285Y-102656952D01*
X188221857Y-103228380D01*
X188840904Y-103228380D01*
%TO.C,C10*%
X198472142Y-130002857D02*
X198519761Y-130050476D01*
X198567380Y-130193333D01*
X198567380Y-130288571D01*
X198519761Y-130431428D01*
X198424523Y-130526666D01*
X198329285Y-130574285D01*
X198138809Y-130621904D01*
X197995952Y-130621904D01*
X197805476Y-130574285D01*
X197710238Y-130526666D01*
X197615000Y-130431428D01*
X197567380Y-130288571D01*
X197567380Y-130193333D01*
X197615000Y-130050476D01*
X197662619Y-130002857D01*
X198567380Y-129050476D02*
X198567380Y-129621904D01*
X198567380Y-129336190D02*
X197567380Y-129336190D01*
X197710238Y-129431428D01*
X197805476Y-129526666D01*
X197853095Y-129621904D01*
X197567380Y-128431428D02*
X197567380Y-128336190D01*
X197615000Y-128240952D01*
X197662619Y-128193333D01*
X197757857Y-128145714D01*
X197948333Y-128098095D01*
X198186428Y-128098095D01*
X198376904Y-128145714D01*
X198472142Y-128193333D01*
X198519761Y-128240952D01*
X198567380Y-128336190D01*
X198567380Y-128431428D01*
X198519761Y-128526666D01*
X198472142Y-128574285D01*
X198376904Y-128621904D01*
X198186428Y-128669523D01*
X197948333Y-128669523D01*
X197757857Y-128621904D01*
X197662619Y-128574285D01*
X197615000Y-128526666D01*
X197567380Y-128431428D01*
%TO.C,TP2*%
X192794095Y-142708380D02*
X193365523Y-142708380D01*
X193079809Y-143708380D02*
X193079809Y-142708380D01*
X193698857Y-143708380D02*
X193698857Y-142708380D01*
X194079809Y-142708380D01*
X194175047Y-142756000D01*
X194222666Y-142803619D01*
X194270285Y-142898857D01*
X194270285Y-143041714D01*
X194222666Y-143136952D01*
X194175047Y-143184571D01*
X194079809Y-143232190D01*
X193698857Y-143232190D01*
X194651238Y-142803619D02*
X194698857Y-142756000D01*
X194794095Y-142708380D01*
X195032190Y-142708380D01*
X195127428Y-142756000D01*
X195175047Y-142803619D01*
X195222666Y-142898857D01*
X195222666Y-142994095D01*
X195175047Y-143136952D01*
X194603619Y-143708380D01*
X195222666Y-143708380D01*
%TO.C,D1*%
X201714380Y-99417095D02*
X200714380Y-99417095D01*
X200714380Y-99179000D01*
X200762000Y-99036142D01*
X200857238Y-98940904D01*
X200952476Y-98893285D01*
X201142952Y-98845666D01*
X201285809Y-98845666D01*
X201476285Y-98893285D01*
X201571523Y-98940904D01*
X201666761Y-99036142D01*
X201714380Y-99179000D01*
X201714380Y-99417095D01*
X201714380Y-97893285D02*
X201714380Y-98464714D01*
X201714380Y-98179000D02*
X200714380Y-98179000D01*
X200857238Y-98274238D01*
X200952476Y-98369476D01*
X201000095Y-98464714D01*
%TO.C,J2*%
X212772666Y-120356380D02*
X212772666Y-121070666D01*
X212725047Y-121213523D01*
X212629809Y-121308761D01*
X212486952Y-121356380D01*
X212391714Y-121356380D01*
X213201238Y-120451619D02*
X213248857Y-120404000D01*
X213344095Y-120356380D01*
X213582190Y-120356380D01*
X213677428Y-120404000D01*
X213725047Y-120451619D01*
X213772666Y-120546857D01*
X213772666Y-120642095D01*
X213725047Y-120784952D01*
X213153619Y-121356380D01*
X213772666Y-121356380D01*
%TO.C,R9*%
X195143380Y-106823166D02*
X194667190Y-107156500D01*
X195143380Y-107394595D02*
X194143380Y-107394595D01*
X194143380Y-107013642D01*
X194191000Y-106918404D01*
X194238619Y-106870785D01*
X194333857Y-106823166D01*
X194476714Y-106823166D01*
X194571952Y-106870785D01*
X194619571Y-106918404D01*
X194667190Y-107013642D01*
X194667190Y-107394595D01*
X195143380Y-106346976D02*
X195143380Y-106156500D01*
X195095761Y-106061261D01*
X195048142Y-106013642D01*
X194905285Y-105918404D01*
X194714809Y-105870785D01*
X194333857Y-105870785D01*
X194238619Y-105918404D01*
X194191000Y-105966023D01*
X194143380Y-106061261D01*
X194143380Y-106251738D01*
X194191000Y-106346976D01*
X194238619Y-106394595D01*
X194333857Y-106442214D01*
X194571952Y-106442214D01*
X194667190Y-106394595D01*
X194714809Y-106346976D01*
X194762428Y-106251738D01*
X194762428Y-106061261D01*
X194714809Y-105966023D01*
X194667190Y-105918404D01*
X194571952Y-105870785D01*
%TO.C,J4*%
X163750666Y-74597380D02*
X163750666Y-75311666D01*
X163703047Y-75454523D01*
X163607809Y-75549761D01*
X163464952Y-75597380D01*
X163369714Y-75597380D01*
X164655428Y-74930714D02*
X164655428Y-75597380D01*
X164417333Y-74549761D02*
X164179238Y-75264047D01*
X164798285Y-75264047D01*
%TO.C,R11*%
X181197642Y-93576380D02*
X180864309Y-93100190D01*
X180626214Y-93576380D02*
X180626214Y-92576380D01*
X181007166Y-92576380D01*
X181102404Y-92624000D01*
X181150023Y-92671619D01*
X181197642Y-92766857D01*
X181197642Y-92909714D01*
X181150023Y-93004952D01*
X181102404Y-93052571D01*
X181007166Y-93100190D01*
X180626214Y-93100190D01*
X182150023Y-93576380D02*
X181578595Y-93576380D01*
X181864309Y-93576380D02*
X181864309Y-92576380D01*
X181769071Y-92719238D01*
X181673833Y-92814476D01*
X181578595Y-92862095D01*
X183102404Y-93576380D02*
X182530976Y-93576380D01*
X182816690Y-93576380D02*
X182816690Y-92576380D01*
X182721452Y-92719238D01*
X182626214Y-92814476D01*
X182530976Y-92862095D01*
%TO.C,TP15*%
X162599904Y-115185380D02*
X163171333Y-115185380D01*
X162885619Y-116185380D02*
X162885619Y-115185380D01*
X163504666Y-116185380D02*
X163504666Y-115185380D01*
X163885619Y-115185380D01*
X163980857Y-115233000D01*
X164028476Y-115280619D01*
X164076095Y-115375857D01*
X164076095Y-115518714D01*
X164028476Y-115613952D01*
X163980857Y-115661571D01*
X163885619Y-115709190D01*
X163504666Y-115709190D01*
X165028476Y-116185380D02*
X164457047Y-116185380D01*
X164742761Y-116185380D02*
X164742761Y-115185380D01*
X164647523Y-115328238D01*
X164552285Y-115423476D01*
X164457047Y-115471095D01*
X165933238Y-115185380D02*
X165457047Y-115185380D01*
X165409428Y-115661571D01*
X165457047Y-115613952D01*
X165552285Y-115566333D01*
X165790380Y-115566333D01*
X165885619Y-115613952D01*
X165933238Y-115661571D01*
X165980857Y-115756809D01*
X165980857Y-115994904D01*
X165933238Y-116090142D01*
X165885619Y-116137761D01*
X165790380Y-116185380D01*
X165552285Y-116185380D01*
X165457047Y-116137761D01*
X165409428Y-116090142D01*
%TO.C,C4*%
X166727142Y-140501666D02*
X166774761Y-140549285D01*
X166822380Y-140692142D01*
X166822380Y-140787380D01*
X166774761Y-140930238D01*
X166679523Y-141025476D01*
X166584285Y-141073095D01*
X166393809Y-141120714D01*
X166250952Y-141120714D01*
X166060476Y-141073095D01*
X165965238Y-141025476D01*
X165870000Y-140930238D01*
X165822380Y-140787380D01*
X165822380Y-140692142D01*
X165870000Y-140549285D01*
X165917619Y-140501666D01*
X166155714Y-139644523D02*
X166822380Y-139644523D01*
X165774761Y-139882619D02*
X166489047Y-140120714D01*
X166489047Y-139501666D01*
%TO.C,TP10*%
X212383904Y-106132380D02*
X212955333Y-106132380D01*
X212669619Y-107132380D02*
X212669619Y-106132380D01*
X213288666Y-107132380D02*
X213288666Y-106132380D01*
X213669619Y-106132380D01*
X213764857Y-106180000D01*
X213812476Y-106227619D01*
X213860095Y-106322857D01*
X213860095Y-106465714D01*
X213812476Y-106560952D01*
X213764857Y-106608571D01*
X213669619Y-106656190D01*
X213288666Y-106656190D01*
X214812476Y-107132380D02*
X214241047Y-107132380D01*
X214526761Y-107132380D02*
X214526761Y-106132380D01*
X214431523Y-106275238D01*
X214336285Y-106370476D01*
X214241047Y-106418095D01*
X215431523Y-106132380D02*
X215526761Y-106132380D01*
X215622000Y-106180000D01*
X215669619Y-106227619D01*
X215717238Y-106322857D01*
X215764857Y-106513333D01*
X215764857Y-106751428D01*
X215717238Y-106941904D01*
X215669619Y-107037142D01*
X215622000Y-107084761D01*
X215526761Y-107132380D01*
X215431523Y-107132380D01*
X215336285Y-107084761D01*
X215288666Y-107037142D01*
X215241047Y-106941904D01*
X215193428Y-106751428D01*
X215193428Y-106513333D01*
X215241047Y-106322857D01*
X215288666Y-106227619D01*
X215336285Y-106180000D01*
X215431523Y-106132380D01*
X211161714Y-111196380D02*
X211161714Y-110196380D01*
X211590285Y-110291619D02*
X211637904Y-110244000D01*
X211733142Y-110196380D01*
X211971238Y-110196380D01*
X212066476Y-110244000D01*
X212114095Y-110291619D01*
X212161714Y-110386857D01*
X212161714Y-110482095D01*
X212114095Y-110624952D01*
X211542666Y-111196380D01*
X212161714Y-111196380D01*
X213161714Y-111101142D02*
X213114095Y-111148761D01*
X212971238Y-111196380D01*
X212876000Y-111196380D01*
X212733142Y-111148761D01*
X212637904Y-111053523D01*
X212590285Y-110958285D01*
X212542666Y-110767809D01*
X212542666Y-110624952D01*
X212590285Y-110434476D01*
X212637904Y-110339238D01*
X212733142Y-110244000D01*
X212876000Y-110196380D01*
X212971238Y-110196380D01*
X213114095Y-110244000D01*
X213161714Y-110291619D01*
X214114095Y-111196380D02*
X213542666Y-111196380D01*
X213828380Y-111196380D02*
X213828380Y-110196380D01*
X213733142Y-110339238D01*
X213637904Y-110434476D01*
X213542666Y-110482095D01*
X214304571Y-111291619D02*
X215066476Y-111291619D01*
X215256952Y-111148761D02*
X215399809Y-111196380D01*
X215637904Y-111196380D01*
X215733142Y-111148761D01*
X215780761Y-111101142D01*
X215828380Y-111005904D01*
X215828380Y-110910666D01*
X215780761Y-110815428D01*
X215733142Y-110767809D01*
X215637904Y-110720190D01*
X215447428Y-110672571D01*
X215352190Y-110624952D01*
X215304571Y-110577333D01*
X215256952Y-110482095D01*
X215256952Y-110386857D01*
X215304571Y-110291619D01*
X215352190Y-110244000D01*
X215447428Y-110196380D01*
X215685523Y-110196380D01*
X215828380Y-110244000D01*
X216828380Y-111101142D02*
X216780761Y-111148761D01*
X216637904Y-111196380D01*
X216542666Y-111196380D01*
X216399809Y-111148761D01*
X216304571Y-111053523D01*
X216256952Y-110958285D01*
X216209333Y-110767809D01*
X216209333Y-110624952D01*
X216256952Y-110434476D01*
X216304571Y-110339238D01*
X216399809Y-110244000D01*
X216542666Y-110196380D01*
X216637904Y-110196380D01*
X216780761Y-110244000D01*
X216828380Y-110291619D01*
X217733142Y-111196380D02*
X217256952Y-111196380D01*
X217256952Y-110196380D01*
%TO.C,R12*%
X191000142Y-76398380D02*
X190666809Y-75922190D01*
X190428714Y-76398380D02*
X190428714Y-75398380D01*
X190809666Y-75398380D01*
X190904904Y-75446000D01*
X190952523Y-75493619D01*
X191000142Y-75588857D01*
X191000142Y-75731714D01*
X190952523Y-75826952D01*
X190904904Y-75874571D01*
X190809666Y-75922190D01*
X190428714Y-75922190D01*
X191952523Y-76398380D02*
X191381095Y-76398380D01*
X191666809Y-76398380D02*
X191666809Y-75398380D01*
X191571571Y-75541238D01*
X191476333Y-75636476D01*
X191381095Y-75684095D01*
X192333476Y-75493619D02*
X192381095Y-75446000D01*
X192476333Y-75398380D01*
X192714428Y-75398380D01*
X192809666Y-75446000D01*
X192857285Y-75493619D01*
X192904904Y-75588857D01*
X192904904Y-75684095D01*
X192857285Y-75826952D01*
X192285857Y-76398380D01*
X192904904Y-76398380D01*
%TO.C,R6*%
X186667380Y-142764166D02*
X186191190Y-143097500D01*
X186667380Y-143335595D02*
X185667380Y-143335595D01*
X185667380Y-142954642D01*
X185715000Y-142859404D01*
X185762619Y-142811785D01*
X185857857Y-142764166D01*
X186000714Y-142764166D01*
X186095952Y-142811785D01*
X186143571Y-142859404D01*
X186191190Y-142954642D01*
X186191190Y-143335595D01*
X185667380Y-141907023D02*
X185667380Y-142097500D01*
X185715000Y-142192738D01*
X185762619Y-142240357D01*
X185905476Y-142335595D01*
X186095952Y-142383214D01*
X186476904Y-142383214D01*
X186572142Y-142335595D01*
X186619761Y-142287976D01*
X186667380Y-142192738D01*
X186667380Y-142002261D01*
X186619761Y-141907023D01*
X186572142Y-141859404D01*
X186476904Y-141811785D01*
X186238809Y-141811785D01*
X186143571Y-141859404D01*
X186095952Y-141907023D01*
X186048333Y-142002261D01*
X186048333Y-142192738D01*
X186095952Y-142287976D01*
X186143571Y-142335595D01*
X186238809Y-142383214D01*
%TO.C,L2*%
X189378333Y-129882380D02*
X188902142Y-129882380D01*
X188902142Y-128882380D01*
X189664047Y-128977619D02*
X189711666Y-128930000D01*
X189806904Y-128882380D01*
X190045000Y-128882380D01*
X190140238Y-128930000D01*
X190187857Y-128977619D01*
X190235476Y-129072857D01*
X190235476Y-129168095D01*
X190187857Y-129310952D01*
X189616428Y-129882380D01*
X190235476Y-129882380D01*
%TO.C,TP9*%
X165997095Y-99691380D02*
X166568523Y-99691380D01*
X166282809Y-100691380D02*
X166282809Y-99691380D01*
X166901857Y-100691380D02*
X166901857Y-99691380D01*
X167282809Y-99691380D01*
X167378047Y-99739000D01*
X167425666Y-99786619D01*
X167473285Y-99881857D01*
X167473285Y-100024714D01*
X167425666Y-100119952D01*
X167378047Y-100167571D01*
X167282809Y-100215190D01*
X166901857Y-100215190D01*
X167949476Y-100691380D02*
X168139952Y-100691380D01*
X168235190Y-100643761D01*
X168282809Y-100596142D01*
X168378047Y-100453285D01*
X168425666Y-100262809D01*
X168425666Y-99881857D01*
X168378047Y-99786619D01*
X168330428Y-99739000D01*
X168235190Y-99691380D01*
X168044714Y-99691380D01*
X167949476Y-99739000D01*
X167901857Y-99786619D01*
X167854238Y-99881857D01*
X167854238Y-100119952D01*
X167901857Y-100215190D01*
X167949476Y-100262809D01*
X168044714Y-100310428D01*
X168235190Y-100310428D01*
X168330428Y-100262809D01*
X168378047Y-100215190D01*
X168425666Y-100119952D01*
X166616142Y-105096142D02*
X166568523Y-105143761D01*
X166425666Y-105191380D01*
X166330428Y-105191380D01*
X166187571Y-105143761D01*
X166092333Y-105048523D01*
X166044714Y-104953285D01*
X165997095Y-104762809D01*
X165997095Y-104619952D01*
X166044714Y-104429476D01*
X166092333Y-104334238D01*
X166187571Y-104239000D01*
X166330428Y-104191380D01*
X166425666Y-104191380D01*
X166568523Y-104239000D01*
X166616142Y-104286619D01*
X166997095Y-105143761D02*
X167139952Y-105191380D01*
X167378047Y-105191380D01*
X167473285Y-105143761D01*
X167520904Y-105096142D01*
X167568523Y-105000904D01*
X167568523Y-104905666D01*
X167520904Y-104810428D01*
X167473285Y-104762809D01*
X167378047Y-104715190D01*
X167187571Y-104667571D01*
X167092333Y-104619952D01*
X167044714Y-104572333D01*
X166997095Y-104477095D01*
X166997095Y-104381857D01*
X167044714Y-104286619D01*
X167092333Y-104239000D01*
X167187571Y-104191380D01*
X167425666Y-104191380D01*
X167568523Y-104239000D01*
X167949476Y-104286619D02*
X167997095Y-104239000D01*
X168092333Y-104191380D01*
X168330428Y-104191380D01*
X168425666Y-104239000D01*
X168473285Y-104286619D01*
X168520904Y-104381857D01*
X168520904Y-104477095D01*
X168473285Y-104619952D01*
X167901857Y-105191380D01*
X168520904Y-105191380D01*
%TO.C,TP14*%
X210986904Y-77430380D02*
X211558333Y-77430380D01*
X211272619Y-78430380D02*
X211272619Y-77430380D01*
X211891666Y-78430380D02*
X211891666Y-77430380D01*
X212272619Y-77430380D01*
X212367857Y-77478000D01*
X212415476Y-77525619D01*
X212463095Y-77620857D01*
X212463095Y-77763714D01*
X212415476Y-77858952D01*
X212367857Y-77906571D01*
X212272619Y-77954190D01*
X211891666Y-77954190D01*
X213415476Y-78430380D02*
X212844047Y-78430380D01*
X213129761Y-78430380D02*
X213129761Y-77430380D01*
X213034523Y-77573238D01*
X212939285Y-77668476D01*
X212844047Y-77716095D01*
X214272619Y-77763714D02*
X214272619Y-78430380D01*
X214034523Y-77382761D02*
X213796428Y-78097047D01*
X214415476Y-78097047D01*
%TO.C,TP11*%
X212383904Y-99020380D02*
X212955333Y-99020380D01*
X212669619Y-100020380D02*
X212669619Y-99020380D01*
X213288666Y-100020380D02*
X213288666Y-99020380D01*
X213669619Y-99020380D01*
X213764857Y-99068000D01*
X213812476Y-99115619D01*
X213860095Y-99210857D01*
X213860095Y-99353714D01*
X213812476Y-99448952D01*
X213764857Y-99496571D01*
X213669619Y-99544190D01*
X213288666Y-99544190D01*
X214812476Y-100020380D02*
X214241047Y-100020380D01*
X214526761Y-100020380D02*
X214526761Y-99020380D01*
X214431523Y-99163238D01*
X214336285Y-99258476D01*
X214241047Y-99306095D01*
X215764857Y-100020380D02*
X215193428Y-100020380D01*
X215479142Y-100020380D02*
X215479142Y-99020380D01*
X215383904Y-99163238D01*
X215288666Y-99258476D01*
X215193428Y-99306095D01*
X210883904Y-104429380D02*
X210883904Y-103429380D01*
X211312476Y-103524619D02*
X211360095Y-103477000D01*
X211455333Y-103429380D01*
X211693428Y-103429380D01*
X211788666Y-103477000D01*
X211836285Y-103524619D01*
X211883904Y-103619857D01*
X211883904Y-103715095D01*
X211836285Y-103857952D01*
X211264857Y-104429380D01*
X211883904Y-104429380D01*
X212883904Y-104334142D02*
X212836285Y-104381761D01*
X212693428Y-104429380D01*
X212598190Y-104429380D01*
X212455333Y-104381761D01*
X212360095Y-104286523D01*
X212312476Y-104191285D01*
X212264857Y-104000809D01*
X212264857Y-103857952D01*
X212312476Y-103667476D01*
X212360095Y-103572238D01*
X212455333Y-103477000D01*
X212598190Y-103429380D01*
X212693428Y-103429380D01*
X212836285Y-103477000D01*
X212883904Y-103524619D01*
X213836285Y-104429380D02*
X213264857Y-104429380D01*
X213550571Y-104429380D02*
X213550571Y-103429380D01*
X213455333Y-103572238D01*
X213360095Y-103667476D01*
X213264857Y-103715095D01*
X214026761Y-104524619D02*
X214788666Y-104524619D01*
X214979142Y-104381761D02*
X215122000Y-104429380D01*
X215360095Y-104429380D01*
X215455333Y-104381761D01*
X215502952Y-104334142D01*
X215550571Y-104238904D01*
X215550571Y-104143666D01*
X215502952Y-104048428D01*
X215455333Y-104000809D01*
X215360095Y-103953190D01*
X215169619Y-103905571D01*
X215074380Y-103857952D01*
X215026761Y-103810333D01*
X214979142Y-103715095D01*
X214979142Y-103619857D01*
X215026761Y-103524619D01*
X215074380Y-103477000D01*
X215169619Y-103429380D01*
X215407714Y-103429380D01*
X215550571Y-103477000D01*
X215979142Y-104429380D02*
X215979142Y-103429380D01*
X216217238Y-103429380D01*
X216360095Y-103477000D01*
X216455333Y-103572238D01*
X216502952Y-103667476D01*
X216550571Y-103857952D01*
X216550571Y-104000809D01*
X216502952Y-104191285D01*
X216455333Y-104286523D01*
X216360095Y-104381761D01*
X216217238Y-104429380D01*
X215979142Y-104429380D01*
X216931523Y-104143666D02*
X217407714Y-104143666D01*
X216836285Y-104429380D02*
X217169619Y-103429380D01*
X217502952Y-104429380D01*
%TO.C,TP1*%
X150122095Y-124710380D02*
X150693523Y-124710380D01*
X150407809Y-125710380D02*
X150407809Y-124710380D01*
X151026857Y-125710380D02*
X151026857Y-124710380D01*
X151407809Y-124710380D01*
X151503047Y-124758000D01*
X151550666Y-124805619D01*
X151598285Y-124900857D01*
X151598285Y-125043714D01*
X151550666Y-125138952D01*
X151503047Y-125186571D01*
X151407809Y-125234190D01*
X151026857Y-125234190D01*
X152550666Y-125710380D02*
X151979238Y-125710380D01*
X152264952Y-125710380D02*
X152264952Y-124710380D01*
X152169714Y-124853238D01*
X152074476Y-124948476D01*
X151979238Y-124996095D01*
%TO.C,J11*%
X214253380Y-63547523D02*
X214967666Y-63547523D01*
X215110523Y-63595142D01*
X215205761Y-63690380D01*
X215253380Y-63833238D01*
X215253380Y-63928476D01*
X215253380Y-62547523D02*
X215253380Y-63118952D01*
X215253380Y-62833238D02*
X214253380Y-62833238D01*
X214396238Y-62928476D01*
X214491476Y-63023714D01*
X214539095Y-63118952D01*
X215253380Y-61595142D02*
X215253380Y-62166571D01*
X215253380Y-61880857D02*
X214253380Y-61880857D01*
X214396238Y-61976095D01*
X214491476Y-62071333D01*
X214539095Y-62166571D01*
%TO.C,R2*%
X159599333Y-138374380D02*
X159266000Y-137898190D01*
X159027904Y-138374380D02*
X159027904Y-137374380D01*
X159408857Y-137374380D01*
X159504095Y-137422000D01*
X159551714Y-137469619D01*
X159599333Y-137564857D01*
X159599333Y-137707714D01*
X159551714Y-137802952D01*
X159504095Y-137850571D01*
X159408857Y-137898190D01*
X159027904Y-137898190D01*
X159980285Y-137469619D02*
X160027904Y-137422000D01*
X160123142Y-137374380D01*
X160361238Y-137374380D01*
X160456476Y-137422000D01*
X160504095Y-137469619D01*
X160551714Y-137564857D01*
X160551714Y-137660095D01*
X160504095Y-137802952D01*
X159932666Y-138374380D01*
X160551714Y-138374380D01*
%TO.C,J6*%
X168424666Y-98097380D02*
X168424666Y-98811666D01*
X168377047Y-98954523D01*
X168281809Y-99049761D01*
X168138952Y-99097380D01*
X168043714Y-99097380D01*
X169329428Y-98097380D02*
X169138952Y-98097380D01*
X169043714Y-98145000D01*
X168996095Y-98192619D01*
X168900857Y-98335476D01*
X168853238Y-98525952D01*
X168853238Y-98906904D01*
X168900857Y-99002142D01*
X168948476Y-99049761D01*
X169043714Y-99097380D01*
X169234190Y-99097380D01*
X169329428Y-99049761D01*
X169377047Y-99002142D01*
X169424666Y-98906904D01*
X169424666Y-98668809D01*
X169377047Y-98573571D01*
X169329428Y-98525952D01*
X169234190Y-98478333D01*
X169043714Y-98478333D01*
X168948476Y-98525952D01*
X168900857Y-98573571D01*
X168853238Y-98668809D01*
%TO.C,R15*%
X214320380Y-139938357D02*
X213844190Y-140271690D01*
X214320380Y-140509785D02*
X213320380Y-140509785D01*
X213320380Y-140128833D01*
X213368000Y-140033595D01*
X213415619Y-139985976D01*
X213510857Y-139938357D01*
X213653714Y-139938357D01*
X213748952Y-139985976D01*
X213796571Y-140033595D01*
X213844190Y-140128833D01*
X213844190Y-140509785D01*
X214320380Y-138985976D02*
X214320380Y-139557404D01*
X214320380Y-139271690D02*
X213320380Y-139271690D01*
X213463238Y-139366928D01*
X213558476Y-139462166D01*
X213606095Y-139557404D01*
X213320380Y-138081214D02*
X213320380Y-138557404D01*
X213796571Y-138605023D01*
X213748952Y-138557404D01*
X213701333Y-138462166D01*
X213701333Y-138224071D01*
X213748952Y-138128833D01*
X213796571Y-138081214D01*
X213891809Y-138033595D01*
X214129904Y-138033595D01*
X214225142Y-138081214D01*
X214272761Y-138128833D01*
X214320380Y-138224071D01*
X214320380Y-138462166D01*
X214272761Y-138557404D01*
X214225142Y-138605023D01*
%TO.C,C1*%
X145121333Y-134977142D02*
X145073714Y-135024761D01*
X144930857Y-135072380D01*
X144835619Y-135072380D01*
X144692761Y-135024761D01*
X144597523Y-134929523D01*
X144549904Y-134834285D01*
X144502285Y-134643809D01*
X144502285Y-134500952D01*
X144549904Y-134310476D01*
X144597523Y-134215238D01*
X144692761Y-134120000D01*
X144835619Y-134072380D01*
X144930857Y-134072380D01*
X145073714Y-134120000D01*
X145121333Y-134167619D01*
X146073714Y-135072380D02*
X145502285Y-135072380D01*
X145788000Y-135072380D02*
X145788000Y-134072380D01*
X145692761Y-134215238D01*
X145597523Y-134310476D01*
X145502285Y-134358095D01*
%TO.C,C14*%
X203472642Y-77286142D02*
X203425023Y-77333761D01*
X203282166Y-77381380D01*
X203186928Y-77381380D01*
X203044071Y-77333761D01*
X202948833Y-77238523D01*
X202901214Y-77143285D01*
X202853595Y-76952809D01*
X202853595Y-76809952D01*
X202901214Y-76619476D01*
X202948833Y-76524238D01*
X203044071Y-76429000D01*
X203186928Y-76381380D01*
X203282166Y-76381380D01*
X203425023Y-76429000D01*
X203472642Y-76476619D01*
X204425023Y-77381380D02*
X203853595Y-77381380D01*
X204139309Y-77381380D02*
X204139309Y-76381380D01*
X204044071Y-76524238D01*
X203948833Y-76619476D01*
X203853595Y-76667095D01*
X205282166Y-76714714D02*
X205282166Y-77381380D01*
X205044071Y-76333761D02*
X204805976Y-77048047D01*
X205425023Y-77048047D01*
%TO.C,IC2*%
X177331809Y-73506380D02*
X177331809Y-72506380D01*
X178379428Y-73411142D02*
X178331809Y-73458761D01*
X178188952Y-73506380D01*
X178093714Y-73506380D01*
X177950857Y-73458761D01*
X177855619Y-73363523D01*
X177808000Y-73268285D01*
X177760380Y-73077809D01*
X177760380Y-72934952D01*
X177808000Y-72744476D01*
X177855619Y-72649238D01*
X177950857Y-72554000D01*
X178093714Y-72506380D01*
X178188952Y-72506380D01*
X178331809Y-72554000D01*
X178379428Y-72601619D01*
X178760380Y-72601619D02*
X178808000Y-72554000D01*
X178903238Y-72506380D01*
X179141333Y-72506380D01*
X179236571Y-72554000D01*
X179284190Y-72601619D01*
X179331809Y-72696857D01*
X179331809Y-72792095D01*
X179284190Y-72934952D01*
X178712761Y-73506380D01*
X179331809Y-73506380D01*
%TO.C,C3*%
X167489142Y-130722666D02*
X167536761Y-130770285D01*
X167584380Y-130913142D01*
X167584380Y-131008380D01*
X167536761Y-131151238D01*
X167441523Y-131246476D01*
X167346285Y-131294095D01*
X167155809Y-131341714D01*
X167012952Y-131341714D01*
X166822476Y-131294095D01*
X166727238Y-131246476D01*
X166632000Y-131151238D01*
X166584380Y-131008380D01*
X166584380Y-130913142D01*
X166632000Y-130770285D01*
X166679619Y-130722666D01*
X166584380Y-130389333D02*
X166584380Y-129770285D01*
X166965333Y-130103619D01*
X166965333Y-129960761D01*
X167012952Y-129865523D01*
X167060571Y-129817904D01*
X167155809Y-129770285D01*
X167393904Y-129770285D01*
X167489142Y-129817904D01*
X167536761Y-129865523D01*
X167584380Y-129960761D01*
X167584380Y-130246476D01*
X167536761Y-130341714D01*
X167489142Y-130389333D01*
%TO.C,R8*%
X195159333Y-78834880D02*
X194826000Y-78358690D01*
X194587904Y-78834880D02*
X194587904Y-77834880D01*
X194968857Y-77834880D01*
X195064095Y-77882500D01*
X195111714Y-77930119D01*
X195159333Y-78025357D01*
X195159333Y-78168214D01*
X195111714Y-78263452D01*
X195064095Y-78311071D01*
X194968857Y-78358690D01*
X194587904Y-78358690D01*
X195730761Y-78263452D02*
X195635523Y-78215833D01*
X195587904Y-78168214D01*
X195540285Y-78072976D01*
X195540285Y-78025357D01*
X195587904Y-77930119D01*
X195635523Y-77882500D01*
X195730761Y-77834880D01*
X195921238Y-77834880D01*
X196016476Y-77882500D01*
X196064095Y-77930119D01*
X196111714Y-78025357D01*
X196111714Y-78072976D01*
X196064095Y-78168214D01*
X196016476Y-78215833D01*
X195921238Y-78263452D01*
X195730761Y-78263452D01*
X195635523Y-78311071D01*
X195587904Y-78358690D01*
X195540285Y-78453928D01*
X195540285Y-78644404D01*
X195587904Y-78739642D01*
X195635523Y-78787261D01*
X195730761Y-78834880D01*
X195921238Y-78834880D01*
X196016476Y-78787261D01*
X196064095Y-78739642D01*
X196111714Y-78644404D01*
X196111714Y-78453928D01*
X196064095Y-78358690D01*
X196016476Y-78311071D01*
X195921238Y-78263452D01*
%TO.C,C21*%
X180967142Y-87733142D02*
X180919523Y-87780761D01*
X180776666Y-87828380D01*
X180681428Y-87828380D01*
X180538571Y-87780761D01*
X180443333Y-87685523D01*
X180395714Y-87590285D01*
X180348095Y-87399809D01*
X180348095Y-87256952D01*
X180395714Y-87066476D01*
X180443333Y-86971238D01*
X180538571Y-86876000D01*
X180681428Y-86828380D01*
X180776666Y-86828380D01*
X180919523Y-86876000D01*
X180967142Y-86923619D01*
X181348095Y-86923619D02*
X181395714Y-86876000D01*
X181490952Y-86828380D01*
X181729047Y-86828380D01*
X181824285Y-86876000D01*
X181871904Y-86923619D01*
X181919523Y-87018857D01*
X181919523Y-87114095D01*
X181871904Y-87256952D01*
X181300476Y-87828380D01*
X181919523Y-87828380D01*
X182871904Y-87828380D02*
X182300476Y-87828380D01*
X182586190Y-87828380D02*
X182586190Y-86828380D01*
X182490952Y-86971238D01*
X182395714Y-87066476D01*
X182300476Y-87114095D01*
%TO.C,C24*%
X176802642Y-96275142D02*
X176755023Y-96322761D01*
X176612166Y-96370380D01*
X176516928Y-96370380D01*
X176374071Y-96322761D01*
X176278833Y-96227523D01*
X176231214Y-96132285D01*
X176183595Y-95941809D01*
X176183595Y-95798952D01*
X176231214Y-95608476D01*
X176278833Y-95513238D01*
X176374071Y-95418000D01*
X176516928Y-95370380D01*
X176612166Y-95370380D01*
X176755023Y-95418000D01*
X176802642Y-95465619D01*
X177183595Y-95465619D02*
X177231214Y-95418000D01*
X177326452Y-95370380D01*
X177564547Y-95370380D01*
X177659785Y-95418000D01*
X177707404Y-95465619D01*
X177755023Y-95560857D01*
X177755023Y-95656095D01*
X177707404Y-95798952D01*
X177135976Y-96370380D01*
X177755023Y-96370380D01*
X178612166Y-95703714D02*
X178612166Y-96370380D01*
X178374071Y-95322761D02*
X178135976Y-96037047D01*
X178755023Y-96037047D01*
%TO.C,R16*%
X209748380Y-139938357D02*
X209272190Y-140271690D01*
X209748380Y-140509785D02*
X208748380Y-140509785D01*
X208748380Y-140128833D01*
X208796000Y-140033595D01*
X208843619Y-139985976D01*
X208938857Y-139938357D01*
X209081714Y-139938357D01*
X209176952Y-139985976D01*
X209224571Y-140033595D01*
X209272190Y-140128833D01*
X209272190Y-140509785D01*
X209748380Y-138985976D02*
X209748380Y-139557404D01*
X209748380Y-139271690D02*
X208748380Y-139271690D01*
X208891238Y-139366928D01*
X208986476Y-139462166D01*
X209034095Y-139557404D01*
X208748380Y-138128833D02*
X208748380Y-138319309D01*
X208796000Y-138414547D01*
X208843619Y-138462166D01*
X208986476Y-138557404D01*
X209176952Y-138605023D01*
X209557904Y-138605023D01*
X209653142Y-138557404D01*
X209700761Y-138509785D01*
X209748380Y-138414547D01*
X209748380Y-138224071D01*
X209700761Y-138128833D01*
X209653142Y-138081214D01*
X209557904Y-138033595D01*
X209319809Y-138033595D01*
X209224571Y-138081214D01*
X209176952Y-138128833D01*
X209129333Y-138224071D01*
X209129333Y-138414547D01*
X209176952Y-138509785D01*
X209224571Y-138557404D01*
X209319809Y-138605023D01*
%TO.C,U2*%
X183896095Y-82002380D02*
X183896095Y-82811904D01*
X183943714Y-82907142D01*
X183991333Y-82954761D01*
X184086571Y-83002380D01*
X184277047Y-83002380D01*
X184372285Y-82954761D01*
X184419904Y-82907142D01*
X184467523Y-82811904D01*
X184467523Y-82002380D01*
X184896095Y-82097619D02*
X184943714Y-82050000D01*
X185038952Y-82002380D01*
X185277047Y-82002380D01*
X185372285Y-82050000D01*
X185419904Y-82097619D01*
X185467523Y-82192857D01*
X185467523Y-82288095D01*
X185419904Y-82430952D01*
X184848476Y-83002380D01*
X185467523Y-83002380D01*
%TO.C,C18*%
X185617142Y-79790357D02*
X185664761Y-79837976D01*
X185712380Y-79980833D01*
X185712380Y-80076071D01*
X185664761Y-80218928D01*
X185569523Y-80314166D01*
X185474285Y-80361785D01*
X185283809Y-80409404D01*
X185140952Y-80409404D01*
X184950476Y-80361785D01*
X184855238Y-80314166D01*
X184760000Y-80218928D01*
X184712380Y-80076071D01*
X184712380Y-79980833D01*
X184760000Y-79837976D01*
X184807619Y-79790357D01*
X185712380Y-78837976D02*
X185712380Y-79409404D01*
X185712380Y-79123690D02*
X184712380Y-79123690D01*
X184855238Y-79218928D01*
X184950476Y-79314166D01*
X184998095Y-79409404D01*
X185140952Y-78266547D02*
X185093333Y-78361785D01*
X185045714Y-78409404D01*
X184950476Y-78457023D01*
X184902857Y-78457023D01*
X184807619Y-78409404D01*
X184760000Y-78361785D01*
X184712380Y-78266547D01*
X184712380Y-78076071D01*
X184760000Y-77980833D01*
X184807619Y-77933214D01*
X184902857Y-77885595D01*
X184950476Y-77885595D01*
X185045714Y-77933214D01*
X185093333Y-77980833D01*
X185140952Y-78076071D01*
X185140952Y-78266547D01*
X185188571Y-78361785D01*
X185236190Y-78409404D01*
X185331428Y-78457023D01*
X185521904Y-78457023D01*
X185617142Y-78409404D01*
X185664761Y-78361785D01*
X185712380Y-78266547D01*
X185712380Y-78076071D01*
X185664761Y-77980833D01*
X185617142Y-77933214D01*
X185521904Y-77885595D01*
X185331428Y-77885595D01*
X185236190Y-77933214D01*
X185188571Y-77980833D01*
X185140952Y-78076071D01*
%TO.C,TP4*%
X182888095Y-124202380D02*
X183459523Y-124202380D01*
X183173809Y-125202380D02*
X183173809Y-124202380D01*
X183792857Y-125202380D02*
X183792857Y-124202380D01*
X184173809Y-124202380D01*
X184269047Y-124250000D01*
X184316666Y-124297619D01*
X184364285Y-124392857D01*
X184364285Y-124535714D01*
X184316666Y-124630952D01*
X184269047Y-124678571D01*
X184173809Y-124726190D01*
X183792857Y-124726190D01*
X185221428Y-124535714D02*
X185221428Y-125202380D01*
X184983333Y-124154761D02*
X184745238Y-124869047D01*
X185364285Y-124869047D01*
%TO.C,J12*%
X183050380Y-69897523D02*
X183764666Y-69897523D01*
X183907523Y-69945142D01*
X184002761Y-70040380D01*
X184050380Y-70183238D01*
X184050380Y-70278476D01*
X184050380Y-68897523D02*
X184050380Y-69468952D01*
X184050380Y-69183238D02*
X183050380Y-69183238D01*
X183193238Y-69278476D01*
X183288476Y-69373714D01*
X183336095Y-69468952D01*
X183145619Y-68516571D02*
X183098000Y-68468952D01*
X183050380Y-68373714D01*
X183050380Y-68135619D01*
X183098000Y-68040380D01*
X183145619Y-67992761D01*
X183240857Y-67945142D01*
X183336095Y-67945142D01*
X183478952Y-67992761D01*
X184050380Y-68564190D01*
X184050380Y-67945142D01*
%TO.C,R10*%
X204692642Y-104606380D02*
X204359309Y-104130190D01*
X204121214Y-104606380D02*
X204121214Y-103606380D01*
X204502166Y-103606380D01*
X204597404Y-103654000D01*
X204645023Y-103701619D01*
X204692642Y-103796857D01*
X204692642Y-103939714D01*
X204645023Y-104034952D01*
X204597404Y-104082571D01*
X204502166Y-104130190D01*
X204121214Y-104130190D01*
X205645023Y-104606380D02*
X205073595Y-104606380D01*
X205359309Y-104606380D02*
X205359309Y-103606380D01*
X205264071Y-103749238D01*
X205168833Y-103844476D01*
X205073595Y-103892095D01*
X206264071Y-103606380D02*
X206359309Y-103606380D01*
X206454547Y-103654000D01*
X206502166Y-103701619D01*
X206549785Y-103796857D01*
X206597404Y-103987333D01*
X206597404Y-104225428D01*
X206549785Y-104415904D01*
X206502166Y-104511142D01*
X206454547Y-104558761D01*
X206359309Y-104606380D01*
X206264071Y-104606380D01*
X206168833Y-104558761D01*
X206121214Y-104511142D01*
X206073595Y-104415904D01*
X206025976Y-104225428D01*
X206025976Y-103987333D01*
X206073595Y-103796857D01*
X206121214Y-103701619D01*
X206168833Y-103654000D01*
X206264071Y-103606380D01*
%TO.C,R13*%
X197096142Y-109545380D02*
X196762809Y-109069190D01*
X196524714Y-109545380D02*
X196524714Y-108545380D01*
X196905666Y-108545380D01*
X197000904Y-108593000D01*
X197048523Y-108640619D01*
X197096142Y-108735857D01*
X197096142Y-108878714D01*
X197048523Y-108973952D01*
X197000904Y-109021571D01*
X196905666Y-109069190D01*
X196524714Y-109069190D01*
X198048523Y-109545380D02*
X197477095Y-109545380D01*
X197762809Y-109545380D02*
X197762809Y-108545380D01*
X197667571Y-108688238D01*
X197572333Y-108783476D01*
X197477095Y-108831095D01*
X198381857Y-108545380D02*
X199000904Y-108545380D01*
X198667571Y-108926333D01*
X198810428Y-108926333D01*
X198905666Y-108973952D01*
X198953285Y-109021571D01*
X199000904Y-109116809D01*
X199000904Y-109354904D01*
X198953285Y-109450142D01*
X198905666Y-109497761D01*
X198810428Y-109545380D01*
X198524714Y-109545380D01*
X198429476Y-109497761D01*
X198381857Y-109450142D01*
%TO.C,Y1*%
X174728190Y-90424190D02*
X175204380Y-90424190D01*
X174204380Y-90757523D02*
X174728190Y-90424190D01*
X174204380Y-90090857D01*
X175204380Y-89233714D02*
X175204380Y-89805142D01*
X175204380Y-89519428D02*
X174204380Y-89519428D01*
X174347238Y-89614666D01*
X174442476Y-89709904D01*
X174490095Y-89805142D01*
%TO.C,C8*%
X182127142Y-137453666D02*
X182174761Y-137501285D01*
X182222380Y-137644142D01*
X182222380Y-137739380D01*
X182174761Y-137882238D01*
X182079523Y-137977476D01*
X181984285Y-138025095D01*
X181793809Y-138072714D01*
X181650952Y-138072714D01*
X181460476Y-138025095D01*
X181365238Y-137977476D01*
X181270000Y-137882238D01*
X181222380Y-137739380D01*
X181222380Y-137644142D01*
X181270000Y-137501285D01*
X181317619Y-137453666D01*
X181650952Y-136882238D02*
X181603333Y-136977476D01*
X181555714Y-137025095D01*
X181460476Y-137072714D01*
X181412857Y-137072714D01*
X181317619Y-137025095D01*
X181270000Y-136977476D01*
X181222380Y-136882238D01*
X181222380Y-136691761D01*
X181270000Y-136596523D01*
X181317619Y-136548904D01*
X181412857Y-136501285D01*
X181460476Y-136501285D01*
X181555714Y-136548904D01*
X181603333Y-136596523D01*
X181650952Y-136691761D01*
X181650952Y-136882238D01*
X181698571Y-136977476D01*
X181746190Y-137025095D01*
X181841428Y-137072714D01*
X182031904Y-137072714D01*
X182127142Y-137025095D01*
X182174761Y-136977476D01*
X182222380Y-136882238D01*
X182222380Y-136691761D01*
X182174761Y-136596523D01*
X182127142Y-136548904D01*
X182031904Y-136501285D01*
X181841428Y-136501285D01*
X181746190Y-136548904D01*
X181698571Y-136596523D01*
X181650952Y-136691761D01*
%TO.C,IC1*%
X172378809Y-132892380D02*
X172378809Y-131892380D01*
X173426428Y-132797142D02*
X173378809Y-132844761D01*
X173235952Y-132892380D01*
X173140714Y-132892380D01*
X172997857Y-132844761D01*
X172902619Y-132749523D01*
X172855000Y-132654285D01*
X172807380Y-132463809D01*
X172807380Y-132320952D01*
X172855000Y-132130476D01*
X172902619Y-132035238D01*
X172997857Y-131940000D01*
X173140714Y-131892380D01*
X173235952Y-131892380D01*
X173378809Y-131940000D01*
X173426428Y-131987619D01*
X174378809Y-132892380D02*
X173807380Y-132892380D01*
X174093095Y-132892380D02*
X174093095Y-131892380D01*
X173997857Y-132035238D01*
X173902619Y-132130476D01*
X173807380Y-132178095D01*
%TO.C,TP12*%
X195619904Y-66798380D02*
X196191333Y-66798380D01*
X195905619Y-67798380D02*
X195905619Y-66798380D01*
X196524666Y-67798380D02*
X196524666Y-66798380D01*
X196905619Y-66798380D01*
X197000857Y-66846000D01*
X197048476Y-66893619D01*
X197096095Y-66988857D01*
X197096095Y-67131714D01*
X197048476Y-67226952D01*
X197000857Y-67274571D01*
X196905619Y-67322190D01*
X196524666Y-67322190D01*
X198048476Y-67798380D02*
X197477047Y-67798380D01*
X197762761Y-67798380D02*
X197762761Y-66798380D01*
X197667523Y-66941238D01*
X197572285Y-67036476D01*
X197477047Y-67084095D01*
X198429428Y-66893619D02*
X198477047Y-66846000D01*
X198572285Y-66798380D01*
X198810380Y-66798380D01*
X198905619Y-66846000D01*
X198953238Y-66893619D01*
X199000857Y-66988857D01*
X199000857Y-67084095D01*
X198953238Y-67226952D01*
X198381809Y-67798380D01*
X199000857Y-67798380D01*
X194143714Y-72334380D02*
X194143714Y-71334380D01*
X194572285Y-71429619D02*
X194619904Y-71382000D01*
X194715142Y-71334380D01*
X194953238Y-71334380D01*
X195048476Y-71382000D01*
X195096095Y-71429619D01*
X195143714Y-71524857D01*
X195143714Y-71620095D01*
X195096095Y-71762952D01*
X194524666Y-72334380D01*
X195143714Y-72334380D01*
X196143714Y-72239142D02*
X196096095Y-72286761D01*
X195953238Y-72334380D01*
X195858000Y-72334380D01*
X195715142Y-72286761D01*
X195619904Y-72191523D01*
X195572285Y-72096285D01*
X195524666Y-71905809D01*
X195524666Y-71762952D01*
X195572285Y-71572476D01*
X195619904Y-71477238D01*
X195715142Y-71382000D01*
X195858000Y-71334380D01*
X195953238Y-71334380D01*
X196096095Y-71382000D01*
X196143714Y-71429619D01*
X196524666Y-71429619D02*
X196572285Y-71382000D01*
X196667523Y-71334380D01*
X196905619Y-71334380D01*
X197000857Y-71382000D01*
X197048476Y-71429619D01*
X197096095Y-71524857D01*
X197096095Y-71620095D01*
X197048476Y-71762952D01*
X196477047Y-72334380D01*
X197096095Y-72334380D01*
X197286571Y-72429619D02*
X198048476Y-72429619D01*
X198238952Y-72286761D02*
X198381809Y-72334380D01*
X198619904Y-72334380D01*
X198715142Y-72286761D01*
X198762761Y-72239142D01*
X198810380Y-72143904D01*
X198810380Y-72048666D01*
X198762761Y-71953428D01*
X198715142Y-71905809D01*
X198619904Y-71858190D01*
X198429428Y-71810571D01*
X198334190Y-71762952D01*
X198286571Y-71715333D01*
X198238952Y-71620095D01*
X198238952Y-71524857D01*
X198286571Y-71429619D01*
X198334190Y-71382000D01*
X198429428Y-71334380D01*
X198667523Y-71334380D01*
X198810380Y-71382000D01*
X199810380Y-72239142D02*
X199762761Y-72286761D01*
X199619904Y-72334380D01*
X199524666Y-72334380D01*
X199381809Y-72286761D01*
X199286571Y-72191523D01*
X199238952Y-72096285D01*
X199191333Y-71905809D01*
X199191333Y-71762952D01*
X199238952Y-71572476D01*
X199286571Y-71477238D01*
X199381809Y-71382000D01*
X199524666Y-71334380D01*
X199619904Y-71334380D01*
X199762761Y-71382000D01*
X199810380Y-71429619D01*
X200715142Y-72334380D02*
X200238952Y-72334380D01*
X200238952Y-71334380D01*
%TO.C,R7*%
X188760380Y-78525666D02*
X188284190Y-78859000D01*
X188760380Y-79097095D02*
X187760380Y-79097095D01*
X187760380Y-78716142D01*
X187808000Y-78620904D01*
X187855619Y-78573285D01*
X187950857Y-78525666D01*
X188093714Y-78525666D01*
X188188952Y-78573285D01*
X188236571Y-78620904D01*
X188284190Y-78716142D01*
X188284190Y-79097095D01*
X187760380Y-78192333D02*
X187760380Y-77525666D01*
X188760380Y-77954238D01*
%TO.C,L3*%
X175458380Y-99168399D02*
X175458380Y-99644590D01*
X174458380Y-99644590D01*
X174458380Y-98930304D02*
X174458380Y-98311256D01*
X174839333Y-98644590D01*
X174839333Y-98501733D01*
X174886952Y-98406494D01*
X174934571Y-98358875D01*
X175029809Y-98311256D01*
X175267904Y-98311256D01*
X175363142Y-98358875D01*
X175410761Y-98406494D01*
X175458380Y-98501733D01*
X175458380Y-98787447D01*
X175410761Y-98882685D01*
X175363142Y-98930304D01*
%TO.C,U3*%
X211455095Y-131582380D02*
X211455095Y-132391904D01*
X211502714Y-132487142D01*
X211550333Y-132534761D01*
X211645571Y-132582380D01*
X211836047Y-132582380D01*
X211931285Y-132534761D01*
X211978904Y-132487142D01*
X212026523Y-132391904D01*
X212026523Y-131582380D01*
X212407476Y-131582380D02*
X213026523Y-131582380D01*
X212693190Y-131963333D01*
X212836047Y-131963333D01*
X212931285Y-132010952D01*
X212978904Y-132058571D01*
X213026523Y-132153809D01*
X213026523Y-132391904D01*
X212978904Y-132487142D01*
X212931285Y-132534761D01*
X212836047Y-132582380D01*
X212550333Y-132582380D01*
X212455095Y-132534761D01*
X212407476Y-132487142D01*
%TO.C,TP7*%
X157996095Y-79752380D02*
X158567523Y-79752380D01*
X158281809Y-80752380D02*
X158281809Y-79752380D01*
X158900857Y-80752380D02*
X158900857Y-79752380D01*
X159281809Y-79752380D01*
X159377047Y-79800000D01*
X159424666Y-79847619D01*
X159472285Y-79942857D01*
X159472285Y-80085714D01*
X159424666Y-80180952D01*
X159377047Y-80228571D01*
X159281809Y-80276190D01*
X158900857Y-80276190D01*
X159805619Y-79752380D02*
X160472285Y-79752380D01*
X160043714Y-80752380D01*
%TO.C,R1*%
X164329880Y-138596666D02*
X163853690Y-138930000D01*
X164329880Y-139168095D02*
X163329880Y-139168095D01*
X163329880Y-138787142D01*
X163377500Y-138691904D01*
X163425119Y-138644285D01*
X163520357Y-138596666D01*
X163663214Y-138596666D01*
X163758452Y-138644285D01*
X163806071Y-138691904D01*
X163853690Y-138787142D01*
X163853690Y-139168095D01*
X164329880Y-137644285D02*
X164329880Y-138215714D01*
X164329880Y-137930000D02*
X163329880Y-137930000D01*
X163472738Y-138025238D01*
X163567976Y-138120476D01*
X163615595Y-138215714D01*
%TO.C,R4*%
X173672833Y-144056380D02*
X173339500Y-143580190D01*
X173101404Y-144056380D02*
X173101404Y-143056380D01*
X173482357Y-143056380D01*
X173577595Y-143104000D01*
X173625214Y-143151619D01*
X173672833Y-143246857D01*
X173672833Y-143389714D01*
X173625214Y-143484952D01*
X173577595Y-143532571D01*
X173482357Y-143580190D01*
X173101404Y-143580190D01*
X174529976Y-143389714D02*
X174529976Y-144056380D01*
X174291880Y-143008761D02*
X174053785Y-143723047D01*
X174672833Y-143723047D01*
%TO.C,TP5*%
X157996095Y-84324380D02*
X158567523Y-84324380D01*
X158281809Y-85324380D02*
X158281809Y-84324380D01*
X158900857Y-85324380D02*
X158900857Y-84324380D01*
X159281809Y-84324380D01*
X159377047Y-84372000D01*
X159424666Y-84419619D01*
X159472285Y-84514857D01*
X159472285Y-84657714D01*
X159424666Y-84752952D01*
X159377047Y-84800571D01*
X159281809Y-84848190D01*
X158900857Y-84848190D01*
X160377047Y-84324380D02*
X159900857Y-84324380D01*
X159853238Y-84800571D01*
X159900857Y-84752952D01*
X159996095Y-84705333D01*
X160234190Y-84705333D01*
X160329428Y-84752952D01*
X160377047Y-84800571D01*
X160424666Y-84895809D01*
X160424666Y-85133904D01*
X160377047Y-85229142D01*
X160329428Y-85276761D01*
X160234190Y-85324380D01*
X159996095Y-85324380D01*
X159900857Y-85276761D01*
X159853238Y-85229142D01*
%TO.C,R3*%
X169100833Y-144056380D02*
X168767500Y-143580190D01*
X168529404Y-144056380D02*
X168529404Y-143056380D01*
X168910357Y-143056380D01*
X169005595Y-143104000D01*
X169053214Y-143151619D01*
X169100833Y-143246857D01*
X169100833Y-143389714D01*
X169053214Y-143484952D01*
X169005595Y-143532571D01*
X168910357Y-143580190D01*
X168529404Y-143580190D01*
X169434166Y-143056380D02*
X170053214Y-143056380D01*
X169719880Y-143437333D01*
X169862738Y-143437333D01*
X169957976Y-143484952D01*
X170005595Y-143532571D01*
X170053214Y-143627809D01*
X170053214Y-143865904D01*
X170005595Y-143961142D01*
X169957976Y-144008761D01*
X169862738Y-144056380D01*
X169577023Y-144056380D01*
X169481785Y-144008761D01*
X169434166Y-143961142D01*
%TO.C,J7*%
X184193380Y-114633333D02*
X184907666Y-114633333D01*
X185050523Y-114680952D01*
X185145761Y-114776190D01*
X185193380Y-114919047D01*
X185193380Y-115014285D01*
X184193380Y-114252380D02*
X184193380Y-113585714D01*
X185193380Y-114014285D01*
X194215000Y-117324142D02*
X194167380Y-117371761D01*
X194024523Y-117419380D01*
X193929285Y-117419380D01*
X193786428Y-117371761D01*
X193691190Y-117276523D01*
X193643571Y-117181285D01*
X193595952Y-116990809D01*
X193595952Y-116847952D01*
X193643571Y-116657476D01*
X193691190Y-116562238D01*
X193786428Y-116467000D01*
X193929285Y-116419380D01*
X194024523Y-116419380D01*
X194167380Y-116467000D01*
X194215000Y-116514619D01*
X195072142Y-117419380D02*
X195072142Y-116895571D01*
X195024523Y-116800333D01*
X194929285Y-116752714D01*
X194738809Y-116752714D01*
X194643571Y-116800333D01*
X195072142Y-117371761D02*
X194976904Y-117419380D01*
X194738809Y-117419380D01*
X194643571Y-117371761D01*
X194595952Y-117276523D01*
X194595952Y-117181285D01*
X194643571Y-117086047D01*
X194738809Y-117038428D01*
X194976904Y-117038428D01*
X195072142Y-116990809D01*
X195548333Y-117419380D02*
X195548333Y-116752714D01*
X195548333Y-116847952D02*
X195595952Y-116800333D01*
X195691190Y-116752714D01*
X195834047Y-116752714D01*
X195929285Y-116800333D01*
X195976904Y-116895571D01*
X195976904Y-117419380D01*
X195976904Y-116895571D02*
X196024523Y-116800333D01*
X196119761Y-116752714D01*
X196262619Y-116752714D01*
X196357857Y-116800333D01*
X196405476Y-116895571D01*
X196405476Y-117419380D01*
X197262619Y-117371761D02*
X197167380Y-117419380D01*
X196976904Y-117419380D01*
X196881666Y-117371761D01*
X196834047Y-117276523D01*
X196834047Y-116895571D01*
X196881666Y-116800333D01*
X196976904Y-116752714D01*
X197167380Y-116752714D01*
X197262619Y-116800333D01*
X197310238Y-116895571D01*
X197310238Y-116990809D01*
X196834047Y-117086047D01*
X197738809Y-117419380D02*
X197738809Y-116752714D01*
X197738809Y-116943190D02*
X197786428Y-116847952D01*
X197834047Y-116800333D01*
X197929285Y-116752714D01*
X198024523Y-116752714D01*
X198786428Y-117419380D02*
X198786428Y-116895571D01*
X198738809Y-116800333D01*
X198643571Y-116752714D01*
X198453095Y-116752714D01*
X198357857Y-116800333D01*
X198786428Y-117371761D02*
X198691190Y-117419380D01*
X198453095Y-117419380D01*
X198357857Y-117371761D01*
X198310238Y-117276523D01*
X198310238Y-117181285D01*
X198357857Y-117086047D01*
X198453095Y-117038428D01*
X198691190Y-117038428D01*
X198786428Y-116990809D01*
%TO.C,C5*%
X163171142Y-128944666D02*
X163218761Y-128992285D01*
X163266380Y-129135142D01*
X163266380Y-129230380D01*
X163218761Y-129373238D01*
X163123523Y-129468476D01*
X163028285Y-129516095D01*
X162837809Y-129563714D01*
X162694952Y-129563714D01*
X162504476Y-129516095D01*
X162409238Y-129468476D01*
X162314000Y-129373238D01*
X162266380Y-129230380D01*
X162266380Y-129135142D01*
X162314000Y-128992285D01*
X162361619Y-128944666D01*
X162266380Y-128039904D02*
X162266380Y-128516095D01*
X162742571Y-128563714D01*
X162694952Y-128516095D01*
X162647333Y-128420857D01*
X162647333Y-128182761D01*
X162694952Y-128087523D01*
X162742571Y-128039904D01*
X162837809Y-127992285D01*
X163075904Y-127992285D01*
X163171142Y-128039904D01*
X163218761Y-128087523D01*
X163266380Y-128182761D01*
X163266380Y-128420857D01*
X163218761Y-128516095D01*
X163171142Y-128563714D01*
%TO.C,C20*%
X181247642Y-90687142D02*
X181200023Y-90734761D01*
X181057166Y-90782380D01*
X180961928Y-90782380D01*
X180819071Y-90734761D01*
X180723833Y-90639523D01*
X180676214Y-90544285D01*
X180628595Y-90353809D01*
X180628595Y-90210952D01*
X180676214Y-90020476D01*
X180723833Y-89925238D01*
X180819071Y-89830000D01*
X180961928Y-89782380D01*
X181057166Y-89782380D01*
X181200023Y-89830000D01*
X181247642Y-89877619D01*
X181628595Y-89877619D02*
X181676214Y-89830000D01*
X181771452Y-89782380D01*
X182009547Y-89782380D01*
X182104785Y-89830000D01*
X182152404Y-89877619D01*
X182200023Y-89972857D01*
X182200023Y-90068095D01*
X182152404Y-90210952D01*
X181580976Y-90782380D01*
X182200023Y-90782380D01*
X182819071Y-89782380D02*
X182914309Y-89782380D01*
X183009547Y-89830000D01*
X183057166Y-89877619D01*
X183104785Y-89972857D01*
X183152404Y-90163333D01*
X183152404Y-90401428D01*
X183104785Y-90591904D01*
X183057166Y-90687142D01*
X183009547Y-90734761D01*
X182914309Y-90782380D01*
X182819071Y-90782380D01*
X182723833Y-90734761D01*
X182676214Y-90687142D01*
X182628595Y-90591904D01*
X182580976Y-90401428D01*
X182580976Y-90163333D01*
X182628595Y-89972857D01*
X182676214Y-89877619D01*
X182723833Y-89830000D01*
X182819071Y-89782380D01*
%TO.C,C12*%
X184507142Y-98940857D02*
X184554761Y-98988476D01*
X184602380Y-99131333D01*
X184602380Y-99226571D01*
X184554761Y-99369428D01*
X184459523Y-99464666D01*
X184364285Y-99512285D01*
X184173809Y-99559904D01*
X184030952Y-99559904D01*
X183840476Y-99512285D01*
X183745238Y-99464666D01*
X183650000Y-99369428D01*
X183602380Y-99226571D01*
X183602380Y-99131333D01*
X183650000Y-98988476D01*
X183697619Y-98940857D01*
X184602380Y-97988476D02*
X184602380Y-98559904D01*
X184602380Y-98274190D02*
X183602380Y-98274190D01*
X183745238Y-98369428D01*
X183840476Y-98464666D01*
X183888095Y-98559904D01*
X183697619Y-97607523D02*
X183650000Y-97559904D01*
X183602380Y-97464666D01*
X183602380Y-97226571D01*
X183650000Y-97131333D01*
X183697619Y-97083714D01*
X183792857Y-97036095D01*
X183888095Y-97036095D01*
X184030952Y-97083714D01*
X184602380Y-97655142D01*
X184602380Y-97036095D01*
%TO.C,J5*%
X155757711Y-91245333D02*
X156471997Y-91245333D01*
X156614854Y-91292952D01*
X156710092Y-91388190D01*
X156757711Y-91531047D01*
X156757711Y-91626285D01*
X155757711Y-90292952D02*
X155757711Y-90769142D01*
X156233902Y-90816761D01*
X156186283Y-90769142D01*
X156138664Y-90673904D01*
X156138664Y-90435809D01*
X156186283Y-90340571D01*
X156233902Y-90292952D01*
X156329140Y-90245333D01*
X156567235Y-90245333D01*
X156662473Y-90292952D01*
X156710092Y-90340571D01*
X156757711Y-90435809D01*
X156757711Y-90673904D01*
X156710092Y-90769142D01*
X156662473Y-90816761D01*
%TO.C,C16*%
X203292642Y-82366142D02*
X203245023Y-82413761D01*
X203102166Y-82461380D01*
X203006928Y-82461380D01*
X202864071Y-82413761D01*
X202768833Y-82318523D01*
X202721214Y-82223285D01*
X202673595Y-82032809D01*
X202673595Y-81889952D01*
X202721214Y-81699476D01*
X202768833Y-81604238D01*
X202864071Y-81509000D01*
X203006928Y-81461380D01*
X203102166Y-81461380D01*
X203245023Y-81509000D01*
X203292642Y-81556619D01*
X204245023Y-82461380D02*
X203673595Y-82461380D01*
X203959309Y-82461380D02*
X203959309Y-81461380D01*
X203864071Y-81604238D01*
X203768833Y-81699476D01*
X203673595Y-81747095D01*
X205102166Y-81461380D02*
X204911690Y-81461380D01*
X204816452Y-81509000D01*
X204768833Y-81556619D01*
X204673595Y-81699476D01*
X204625976Y-81889952D01*
X204625976Y-82270904D01*
X204673595Y-82366142D01*
X204721214Y-82413761D01*
X204816452Y-82461380D01*
X205006928Y-82461380D01*
X205102166Y-82413761D01*
X205149785Y-82366142D01*
X205197404Y-82270904D01*
X205197404Y-82032809D01*
X205149785Y-81937571D01*
X205102166Y-81889952D01*
X205006928Y-81842333D01*
X204816452Y-81842333D01*
X204721214Y-81889952D01*
X204673595Y-81937571D01*
X204625976Y-82032809D01*
%TO.C,J1*%
X156638666Y-113879380D02*
X156638666Y-114593666D01*
X156591047Y-114736523D01*
X156495809Y-114831761D01*
X156352952Y-114879380D01*
X156257714Y-114879380D01*
X157638666Y-114879380D02*
X157067238Y-114879380D01*
X157352952Y-114879380D02*
X157352952Y-113879380D01*
X157257714Y-114022238D01*
X157162476Y-114117476D01*
X157067238Y-114165095D01*
%TO.C,J10*%
X223853476Y-70782380D02*
X223853476Y-71496666D01*
X223805857Y-71639523D01*
X223710619Y-71734761D01*
X223567761Y-71782380D01*
X223472523Y-71782380D01*
X224853476Y-71782380D02*
X224282047Y-71782380D01*
X224567761Y-71782380D02*
X224567761Y-70782380D01*
X224472523Y-70925238D01*
X224377285Y-71020476D01*
X224282047Y-71068095D01*
X225472523Y-70782380D02*
X225567761Y-70782380D01*
X225663000Y-70830000D01*
X225710619Y-70877619D01*
X225758238Y-70972857D01*
X225805857Y-71163333D01*
X225805857Y-71401428D01*
X225758238Y-71591904D01*
X225710619Y-71687142D01*
X225663000Y-71734761D01*
X225567761Y-71782380D01*
X225472523Y-71782380D01*
X225377285Y-71734761D01*
X225329666Y-71687142D01*
X225282047Y-71591904D01*
X225234428Y-71401428D01*
X225234428Y-71163333D01*
X225282047Y-70972857D01*
X225329666Y-70877619D01*
X225377285Y-70830000D01*
X225472523Y-70782380D01*
%TO.C,J3*%
X214296666Y-141692380D02*
X214296666Y-142406666D01*
X214249047Y-142549523D01*
X214153809Y-142644761D01*
X214010952Y-142692380D01*
X213915714Y-142692380D01*
X214677619Y-141692380D02*
X215296666Y-141692380D01*
X214963333Y-142073333D01*
X215106190Y-142073333D01*
X215201428Y-142120952D01*
X215249047Y-142168571D01*
X215296666Y-142263809D01*
X215296666Y-142501904D01*
X215249047Y-142597142D01*
X215201428Y-142644761D01*
X215106190Y-142692380D01*
X214820476Y-142692380D01*
X214725238Y-142644761D01*
X214677619Y-142597142D01*
%TO.C,U1*%
X169926095Y-140803380D02*
X169926095Y-141612904D01*
X169973714Y-141708142D01*
X170021333Y-141755761D01*
X170116571Y-141803380D01*
X170307047Y-141803380D01*
X170402285Y-141755761D01*
X170449904Y-141708142D01*
X170497523Y-141612904D01*
X170497523Y-140803380D01*
X171497523Y-141803380D02*
X170926095Y-141803380D01*
X171211809Y-141803380D02*
X171211809Y-140803380D01*
X171116571Y-140946238D01*
X171021333Y-141041476D01*
X170926095Y-141089095D01*
%TO.C,C7*%
X179935142Y-141136666D02*
X179982761Y-141184285D01*
X180030380Y-141327142D01*
X180030380Y-141422380D01*
X179982761Y-141565238D01*
X179887523Y-141660476D01*
X179792285Y-141708095D01*
X179601809Y-141755714D01*
X179458952Y-141755714D01*
X179268476Y-141708095D01*
X179173238Y-141660476D01*
X179078000Y-141565238D01*
X179030380Y-141422380D01*
X179030380Y-141327142D01*
X179078000Y-141184285D01*
X179125619Y-141136666D01*
X179030380Y-140803333D02*
X179030380Y-140136666D01*
X180030380Y-140565238D01*
%TO.C,C2*%
X150201333Y-134977142D02*
X150153714Y-135024761D01*
X150010857Y-135072380D01*
X149915619Y-135072380D01*
X149772761Y-135024761D01*
X149677523Y-134929523D01*
X149629904Y-134834285D01*
X149582285Y-134643809D01*
X149582285Y-134500952D01*
X149629904Y-134310476D01*
X149677523Y-134215238D01*
X149772761Y-134120000D01*
X149915619Y-134072380D01*
X150010857Y-134072380D01*
X150153714Y-134120000D01*
X150201333Y-134167619D01*
X150582285Y-134167619D02*
X150629904Y-134120000D01*
X150725142Y-134072380D01*
X150963238Y-134072380D01*
X151058476Y-134120000D01*
X151106095Y-134167619D01*
X151153714Y-134262857D01*
X151153714Y-134358095D01*
X151106095Y-134500952D01*
X150534666Y-135072380D01*
X151153714Y-135072380D01*
%TO.C,C11*%
X195937142Y-130002857D02*
X195984761Y-130050476D01*
X196032380Y-130193333D01*
X196032380Y-130288571D01*
X195984761Y-130431428D01*
X195889523Y-130526666D01*
X195794285Y-130574285D01*
X195603809Y-130621904D01*
X195460952Y-130621904D01*
X195270476Y-130574285D01*
X195175238Y-130526666D01*
X195080000Y-130431428D01*
X195032380Y-130288571D01*
X195032380Y-130193333D01*
X195080000Y-130050476D01*
X195127619Y-130002857D01*
X196032380Y-129050476D02*
X196032380Y-129621904D01*
X196032380Y-129336190D02*
X195032380Y-129336190D01*
X195175238Y-129431428D01*
X195270476Y-129526666D01*
X195318095Y-129621904D01*
X196032380Y-128098095D02*
X196032380Y-128669523D01*
X196032380Y-128383809D02*
X195032380Y-128383809D01*
X195175238Y-128479047D01*
X195270476Y-128574285D01*
X195318095Y-128669523D01*
D15*
%TO.C,J9*%
X220793000Y-72330000D02*
X222123000Y-72330000D01*
X220793000Y-73660000D02*
X220793000Y-72330000D01*
X220793000Y-74930000D02*
X220793000Y-123250000D01*
%TO.C,J8*%
X162881000Y-66608000D02*
X162881000Y-65278000D01*
X164211000Y-66608000D02*
X162881000Y-66608000D01*
X165481000Y-66608000D02*
X213801000Y-66608000D01*
%TO.C,IC4*%
X173355000Y-123805000D02*
X175305000Y-123805000D01*
X173355000Y-128925000D02*
X171405000Y-128925000D01*
X173355000Y-128925000D02*
X175305000Y-128925000D01*
X173355000Y-123805000D02*
X169905000Y-123805000D01*
D10*
%TO.C,TP3*%
X163200000Y-143848000D02*
X163200000Y-141648000D01*
X163200000Y-141648000D02*
X167000000Y-141648000D01*
X167000000Y-141648000D02*
X167000000Y-143848000D01*
X167000000Y-143848000D02*
X163200000Y-143848000D01*
%TO.C,TP8*%
X191727000Y-118623000D02*
X191727000Y-122423000D01*
X191727000Y-122423000D02*
X189527000Y-122423000D01*
X189527000Y-122423000D02*
X189527000Y-118623000D01*
X189527000Y-118623000D02*
X191727000Y-118623000D01*
D15*
%TO.C,L1*%
X154508748Y-133790000D02*
X157281252Y-133790000D01*
X154508748Y-130370000D02*
X157281252Y-130370000D01*
D10*
%TO.C,TP13*%
X202189000Y-68496000D02*
X205989000Y-68496000D01*
X202189000Y-70696000D02*
X202189000Y-68496000D01*
X205989000Y-68496000D02*
X205989000Y-70696000D01*
X205989000Y-70696000D02*
X202189000Y-70696000D01*
D15*
%TO.C,C13*%
X181909767Y-100586000D02*
X181617233Y-100586000D01*
X181909767Y-99566000D02*
X181617233Y-99566000D01*
%TO.C,C23*%
X177299233Y-85088000D02*
X177591767Y-85088000D01*
X177299233Y-86108000D02*
X177591767Y-86108000D01*
%TO.C,C9*%
X178560000Y-133203733D02*
X178560000Y-133496267D01*
X179580000Y-133203733D02*
X179580000Y-133496267D01*
%TO.C,C6*%
X183790000Y-132346248D02*
X183790000Y-133768752D01*
X181970000Y-132346248D02*
X181970000Y-133768752D01*
%TO.C,R14*%
X210565276Y-142508500D02*
X211074724Y-142508500D01*
X210565276Y-141463500D02*
X211074724Y-141463500D01*
D10*
%TO.C,TP6*%
X161158000Y-79078000D02*
X157358000Y-79078000D01*
X161158000Y-76878000D02*
X161158000Y-79078000D01*
X157358000Y-76878000D02*
X161158000Y-76878000D01*
X157358000Y-79078000D02*
X157358000Y-76878000D01*
D15*
%TO.C,C15*%
X179072000Y-99359767D02*
X179072000Y-99067233D01*
X178052000Y-99359767D02*
X178052000Y-99067233D01*
%TO.C,IC3*%
X214949000Y-68929000D02*
X211499000Y-68929000D01*
X214949000Y-74049000D02*
X216899000Y-74049000D01*
X214949000Y-68929000D02*
X216899000Y-68929000D01*
X214949000Y-74049000D02*
X212999000Y-74049000D01*
%TO.C,R5*%
X184262500Y-137540276D02*
X184262500Y-138049724D01*
X185307500Y-137540276D02*
X185307500Y-138049724D01*
%TO.C,C19*%
X198753000Y-101300233D02*
X198753000Y-101592767D01*
X199773000Y-101300233D02*
X199773000Y-101592767D01*
%TO.C,C17*%
X181909767Y-94359000D02*
X181617233Y-94359000D01*
X181909767Y-95379000D02*
X181617233Y-95379000D01*
%TO.C,C22*%
X187725267Y-101856000D02*
X187432733Y-101856000D01*
X187725267Y-100836000D02*
X187432733Y-100836000D01*
%TO.C,C10*%
X197605000Y-132796233D02*
X197605000Y-133088767D01*
X198625000Y-132796233D02*
X198625000Y-133088767D01*
D10*
%TO.C,TP2*%
X192146000Y-141902000D02*
X192146000Y-144102000D01*
X188346000Y-144102000D02*
X188346000Y-141902000D01*
X188346000Y-141902000D02*
X192146000Y-141902000D01*
X192146000Y-144102000D02*
X188346000Y-144102000D01*
D15*
%TO.C,D1*%
X203427000Y-100339000D02*
X203427000Y-97879000D01*
X201957000Y-100339000D02*
X203427000Y-100339000D01*
X201957000Y-97879000D02*
X201957000Y-100339000D01*
%TO.C,J2*%
X211776000Y-119821000D02*
X214436000Y-119821000D01*
X211776000Y-113351000D02*
X214436000Y-113351000D01*
X214436000Y-113351000D02*
X214436000Y-113411000D01*
X214436000Y-113411000D02*
X215896000Y-113411000D01*
X211776000Y-119761000D02*
X211776000Y-119821000D01*
X214436000Y-119761000D02*
X214436000Y-119821000D01*
X211776000Y-113351000D02*
X211776000Y-113411000D01*
%TO.C,R9*%
X196610500Y-106911224D02*
X196610500Y-106401776D01*
X195565500Y-106911224D02*
X195565500Y-106401776D01*
%TO.C,J4*%
X162754000Y-78745000D02*
X162754000Y-88965000D01*
X162754000Y-77475000D02*
X162754000Y-76145000D01*
X162754000Y-78745000D02*
X165414000Y-78745000D01*
X162754000Y-76145000D02*
X164084000Y-76145000D01*
X162754000Y-88965000D02*
X165414000Y-88965000D01*
X165414000Y-78745000D02*
X165414000Y-88965000D01*
%TO.C,R11*%
X182095224Y-92216500D02*
X181585776Y-92216500D01*
X182095224Y-91171500D02*
X181585776Y-91171500D01*
D10*
%TO.C,TP15*%
X162438000Y-116883000D02*
X166238000Y-116883000D01*
X166238000Y-119083000D02*
X162438000Y-119083000D01*
X162438000Y-119083000D02*
X162438000Y-116883000D01*
X166238000Y-116883000D02*
X166238000Y-119083000D01*
D15*
%TO.C,C4*%
X165860000Y-137941267D02*
X165860000Y-137648733D01*
X166880000Y-137941267D02*
X166880000Y-137648733D01*
D10*
%TO.C,TP10*%
X216022000Y-109812000D02*
X212222000Y-109812000D01*
X212222000Y-109812000D02*
X212222000Y-107612000D01*
X212222000Y-107612000D02*
X216022000Y-107612000D01*
X216022000Y-107612000D02*
X216022000Y-109812000D01*
D15*
%TO.C,R12*%
X192165500Y-78127776D02*
X192165500Y-78637224D01*
X191120500Y-78127776D02*
X191120500Y-78637224D01*
%TO.C,R6*%
X184262500Y-142342776D02*
X184262500Y-142852224D01*
X185307500Y-142342776D02*
X185307500Y-142852224D01*
%TO.C,L2*%
X188158748Y-133790000D02*
X190931252Y-133790000D01*
X188158748Y-130370000D02*
X190931252Y-130370000D01*
D10*
%TO.C,TP9*%
X165359000Y-101389000D02*
X169159000Y-101389000D01*
X169159000Y-101389000D02*
X169159000Y-103589000D01*
X169159000Y-103589000D02*
X165359000Y-103589000D01*
X165359000Y-103589000D02*
X165359000Y-101389000D01*
%TO.C,TP14*%
X210815000Y-78951000D02*
X207015000Y-78951000D01*
X207015000Y-78951000D02*
X207015000Y-76751000D01*
X207015000Y-76751000D02*
X210815000Y-76751000D01*
X210815000Y-76751000D02*
X210815000Y-78951000D01*
%TO.C,TP11*%
X216022000Y-100627000D02*
X216022000Y-102827000D01*
X212222000Y-102827000D02*
X212222000Y-100627000D01*
X216022000Y-102827000D02*
X212222000Y-102827000D01*
X212222000Y-100627000D02*
X216022000Y-100627000D01*
%TO.C,TP1*%
X149484000Y-126408000D02*
X153284000Y-126408000D01*
X153284000Y-128608000D02*
X149484000Y-128608000D01*
X149484000Y-128608000D02*
X149484000Y-126408000D01*
X153284000Y-126408000D02*
X153284000Y-128608000D01*
D15*
%TO.C,J11*%
X162881000Y-61408000D02*
X162881000Y-64068000D01*
X211201000Y-61408000D02*
X162881000Y-61408000D01*
X211201000Y-61408000D02*
X211201000Y-64068000D01*
X212471000Y-61408000D02*
X213801000Y-61408000D01*
X213801000Y-61408000D02*
X213801000Y-62738000D01*
X211201000Y-64068000D02*
X162881000Y-64068000D01*
%TO.C,R2*%
X159663224Y-138669500D02*
X159153776Y-138669500D01*
X159663224Y-139714500D02*
X159153776Y-139714500D01*
%TO.C,J6*%
X170088000Y-94605000D02*
X167428000Y-94605000D01*
X167428000Y-94605000D02*
X167428000Y-74225000D01*
X170088000Y-94605000D02*
X170088000Y-74225000D01*
X170088000Y-74225000D02*
X167428000Y-74225000D01*
X167428000Y-97205000D02*
X167428000Y-95875000D01*
X168758000Y-97205000D02*
X167428000Y-97205000D01*
%TO.C,R15*%
X211821500Y-139550224D02*
X211821500Y-139040776D01*
X212866500Y-139550224D02*
X212866500Y-139040776D01*
%TO.C,C1*%
X144270000Y-131933733D02*
X144270000Y-132226267D01*
X145290000Y-131933733D02*
X145290000Y-132226267D01*
%TO.C,C14*%
X203969233Y-77849000D02*
X204261767Y-77849000D01*
X203969233Y-78869000D02*
X204261767Y-78869000D01*
%TO.C,IC2*%
X178308000Y-79014000D02*
X176358000Y-79014000D01*
X178308000Y-73894000D02*
X180258000Y-73894000D01*
X178308000Y-73894000D02*
X174858000Y-73894000D01*
X178308000Y-79014000D02*
X180258000Y-79014000D01*
%TO.C,C3*%
X167515000Y-133496267D02*
X167515000Y-133203733D01*
X166495000Y-133496267D02*
X166495000Y-133203733D01*
%TO.C,R8*%
X194070500Y-78127776D02*
X194070500Y-78637224D01*
X193025500Y-78127776D02*
X193025500Y-78637224D01*
%TO.C,C21*%
X182036767Y-85469000D02*
X181744233Y-85469000D01*
X182036767Y-86489000D02*
X181744233Y-86489000D01*
%TO.C,C24*%
X177591767Y-93978000D02*
X177299233Y-93978000D01*
X177591767Y-94998000D02*
X177299233Y-94998000D01*
%TO.C,R16*%
X211342500Y-139040776D02*
X211342500Y-139550224D01*
X210297500Y-139040776D02*
X210297500Y-139550224D01*
%TO.C,U2*%
X200023000Y-83314000D02*
X200023000Y-84014000D01*
X185803000Y-83314000D02*
X185803000Y-84014000D01*
X185803000Y-97534000D02*
X185803000Y-96834000D01*
X199323000Y-83314000D02*
X200023000Y-83314000D01*
X199323000Y-97534000D02*
X200023000Y-97534000D01*
X186503000Y-97534000D02*
X185803000Y-97534000D01*
X185803000Y-84014000D02*
X184438000Y-84014000D01*
X200023000Y-97534000D02*
X200023000Y-96834000D01*
X186503000Y-83314000D02*
X185803000Y-83314000D01*
%TO.C,C18*%
X187200000Y-79293767D02*
X187200000Y-79001233D01*
X186180000Y-79293767D02*
X186180000Y-79001233D01*
D10*
%TO.C,TP4*%
X186050000Y-125900000D02*
X186050000Y-128100000D01*
X182250000Y-125900000D02*
X186050000Y-125900000D01*
X182250000Y-128100000D02*
X182250000Y-125900000D01*
X186050000Y-128100000D02*
X182250000Y-128100000D01*
D15*
%TO.C,J12*%
X185928000Y-70418000D02*
X184598000Y-70418000D01*
X192338000Y-70418000D02*
X192338000Y-67758000D01*
X187198000Y-70418000D02*
X187198000Y-67758000D01*
X187198000Y-70418000D02*
X192338000Y-70418000D01*
X184598000Y-70418000D02*
X184598000Y-69088000D01*
X187198000Y-67758000D02*
X192338000Y-67758000D01*
%TO.C,R10*%
X205080776Y-101726500D02*
X205590224Y-101726500D01*
X205080776Y-102771500D02*
X205590224Y-102771500D01*
%TO.C,R13*%
X197470500Y-106911224D02*
X197470500Y-106401776D01*
X198515500Y-106911224D02*
X198515500Y-106401776D01*
%TO.C,Y1*%
X175803000Y-90848000D02*
X175803000Y-89048000D01*
X175803000Y-89048000D02*
X175563000Y-89048000D01*
X178003000Y-92648000D02*
X177203000Y-92648000D01*
X177203000Y-86848000D02*
X177203000Y-87248000D01*
X179403000Y-89048000D02*
X179403000Y-90848000D01*
X177203000Y-87248000D02*
X178003000Y-87248000D01*
%TO.C,C8*%
X179830000Y-137421233D02*
X179830000Y-137713767D01*
X180850000Y-137421233D02*
X180850000Y-137713767D01*
%TO.C,IC1*%
X173355000Y-138650000D02*
X171155000Y-138650000D01*
X173355000Y-138650000D02*
X175555000Y-138650000D01*
X173355000Y-133130000D02*
X169705000Y-133130000D01*
X173355000Y-133130000D02*
X175555000Y-133130000D01*
D10*
%TO.C,TP12*%
X195458000Y-68496000D02*
X199258000Y-68496000D01*
X195458000Y-70696000D02*
X195458000Y-68496000D01*
X199258000Y-70696000D02*
X195458000Y-70696000D01*
X199258000Y-68496000D02*
X199258000Y-70696000D01*
D15*
%TO.C,R7*%
X190260500Y-78613724D02*
X190260500Y-78104276D01*
X189215500Y-78613724D02*
X189215500Y-78104276D01*
%TO.C,L3*%
X177040000Y-99001733D02*
X177040000Y-99344267D01*
X176020000Y-99001733D02*
X176020000Y-99344267D01*
%TO.C,U3*%
X212217000Y-128170000D02*
X213017000Y-128170000D01*
X212217000Y-131290000D02*
X211417000Y-131290000D01*
X212217000Y-128170000D02*
X211417000Y-128170000D01*
X212217000Y-131290000D02*
X214017000Y-131290000D01*
D10*
%TO.C,TP7*%
X161158000Y-83650000D02*
X157358000Y-83650000D01*
X161158000Y-81450000D02*
X161158000Y-83650000D01*
X157358000Y-83650000D02*
X157358000Y-81450000D01*
X157358000Y-81450000D02*
X161158000Y-81450000D01*
D15*
%TO.C,R1*%
X161925000Y-138175276D02*
X161925000Y-138684724D01*
X162970000Y-138175276D02*
X162970000Y-138684724D01*
%TO.C,R4*%
X173584776Y-144511500D02*
X174094224Y-144511500D01*
X173584776Y-145556500D02*
X174094224Y-145556500D01*
D10*
%TO.C,TP5*%
X161158000Y-86022000D02*
X161158000Y-88222000D01*
X161158000Y-88222000D02*
X157358000Y-88222000D01*
X157358000Y-86022000D02*
X161158000Y-86022000D01*
X157358000Y-88222000D02*
X157358000Y-86022000D01*
D15*
%TO.C,R3*%
X169012776Y-145556500D02*
X169522224Y-145556500D01*
X169012776Y-144511500D02*
X169522224Y-144511500D01*
%TO.C,J7*%
X187071000Y-115630000D02*
X185741000Y-115630000D01*
X206181000Y-115630000D02*
X206181000Y-112970000D01*
X188341000Y-115630000D02*
X188341000Y-112970000D01*
X188341000Y-112970000D02*
X206181000Y-112970000D01*
X188341000Y-115630000D02*
X206181000Y-115630000D01*
X185741000Y-115630000D02*
X185741000Y-114300000D01*
%TO.C,C5*%
X163470000Y-131661248D02*
X163470000Y-133083752D01*
X161650000Y-131661248D02*
X161650000Y-133083752D01*
%TO.C,C20*%
X182036767Y-88390000D02*
X181744233Y-88390000D01*
X182036767Y-89410000D02*
X181744233Y-89410000D01*
%TO.C,C12*%
X181909767Y-98554000D02*
X181617233Y-98554000D01*
X181909767Y-97534000D02*
X181617233Y-97534000D01*
%TO.C,J5*%
X155305331Y-72312000D02*
G75*
G03*
X154245331Y-71252000I-1060001J-1D01*
G01*
X154245331Y-110572000D02*
G75*
G03*
X155305331Y-109512000I0J1060000D01*
G01*
X142685331Y-109512000D02*
G75*
G03*
X143745331Y-110572000I1060000J0D01*
G01*
X153005331Y-80530311D02*
G75*
G03*
X151057075Y-78895530I-1659999J1D01*
G01*
X143745331Y-71252000D02*
G75*
G03*
X142685331Y-72312000I1J-1060001D01*
G01*
X151057075Y-102928471D02*
G75*
G03*
X153005331Y-101293689I288256J1634781D01*
G01*
X146357075Y-79724267D02*
G75*
G03*
X144985331Y-81359048I288255J-1634780D01*
G01*
X144985331Y-100464952D02*
G75*
G03*
X146357075Y-102099733I1659999J-1D01*
G01*
X156199669Y-100857000D02*
X155766656Y-100607000D01*
X151057075Y-102928470D02*
X146357075Y-102099733D01*
X155766656Y-100607000D02*
X156199669Y-100357000D01*
X154245331Y-110572000D02*
X143745331Y-110572000D01*
X155305331Y-72312000D02*
X155305331Y-109512000D01*
X142685331Y-109512000D02*
X142685331Y-72312000D01*
X156199669Y-100357000D02*
X156199669Y-100857000D01*
X143745331Y-71252000D02*
X154245331Y-71252000D01*
X144985331Y-81359048D02*
X144985331Y-100464952D01*
X151057075Y-78895530D02*
X146357075Y-79724267D01*
X153005331Y-80530311D02*
X153005331Y-101293689D01*
%TO.C,C16*%
X203789233Y-82929000D02*
X204081767Y-82929000D01*
X203789233Y-83949000D02*
X204081767Y-83949000D01*
%TO.C,J1*%
X155452500Y-113132500D02*
X142712500Y-113132500D01*
X152832500Y-112752500D02*
X155832500Y-112752500D01*
X155452500Y-113132500D02*
X155452500Y-123372500D01*
X142712500Y-113132500D02*
X142712500Y-123372500D01*
X142712500Y-113132500D02*
X142712500Y-123372500D01*
X155832500Y-112752500D02*
X155832500Y-115752500D01*
X155452500Y-123372500D02*
X142712500Y-123372500D01*
X155452500Y-113132500D02*
X155452500Y-123372500D01*
X155452500Y-113132500D02*
X142712500Y-113132500D01*
X155452500Y-123372500D02*
X142712500Y-123372500D01*
%TO.C,J10*%
X223333000Y-74930000D02*
X225993000Y-74930000D01*
X223333000Y-123250000D02*
X225993000Y-123250000D01*
X223333000Y-72330000D02*
X224663000Y-72330000D01*
X223333000Y-74930000D02*
X223333000Y-123250000D01*
X223333000Y-73660000D02*
X223333000Y-72330000D01*
X225993000Y-74930000D02*
X225993000Y-123250000D01*
%TO.C,J3*%
X215392000Y-147945000D02*
X215392000Y-148205000D01*
X215392000Y-143895000D02*
X215012000Y-143895000D01*
X207772000Y-143895000D02*
X208152000Y-143895000D01*
X207772000Y-145665000D02*
X207772000Y-143895000D01*
X215392000Y-143895000D02*
X215392000Y-145665000D01*
X207772000Y-148205000D02*
X207772000Y-147945000D01*
%TO.C,U1*%
X174300000Y-142455000D02*
X172600000Y-142455000D01*
X174150000Y-140755000D02*
X172600000Y-140755000D01*
%TO.C,C7*%
X178310000Y-140823733D02*
X178310000Y-141116267D01*
X177290000Y-140823733D02*
X177290000Y-141116267D01*
%TO.C,C2*%
X150370000Y-131933733D02*
X150370000Y-132226267D01*
X149350000Y-131933733D02*
X149350000Y-132226267D01*
%TO.C,C11*%
X195070000Y-132796233D02*
X195070000Y-133088767D01*
X196090000Y-132796233D02*
X196090000Y-133088767D01*
%TD*%
M02*
