%TF.GenerationSoftware,KiCad,Pcbnew,(6.0.7)*%
%TF.CreationDate,2023-01-26T22:49:43-08:00*%
%TF.ProjectId,FlightComputer,466c6967-6874-4436-9f6d-70757465722e,rev?*%
%TF.SameCoordinates,Original*%
%TF.FileFunction,Soldermask,Top*%
%TF.FilePolarity,Negative*%
%FSLAX46Y46*%
G04 Gerber Fmt 4.6, Leading zero omitted, Abs format (unit mm)*
G04 Created by KiCad (PCBNEW (6.0.7)) date 2023-01-26 22:49:43*
%MOMM*%
%LPD*%
G01*
G04 APERTURE LIST*
G04 Aperture macros list*
%AMRoundRect*
0 Rectangle with rounded corners*
0 $1 Rounding radius*
0 $2 $3 $4 $5 $6 $7 $8 $9 X,Y pos of 4 corners*
0 Add a 4 corners polygon primitive as box body*
4,1,4,$2,$3,$4,$5,$6,$7,$8,$9,$2,$3,0*
0 Add four circle primitives for the rounded corners*
1,1,$1+$1,$2,$3*
1,1,$1+$1,$4,$5*
1,1,$1+$1,$6,$7*
1,1,$1+$1,$8,$9*
0 Add four rect primitives between the rounded corners*
20,1,$1+$1,$2,$3,$4,$5,0*
20,1,$1+$1,$4,$5,$6,$7,0*
20,1,$1+$1,$6,$7,$8,$9,0*
20,1,$1+$1,$8,$9,$2,$3,0*%
G04 Aperture macros list end*
%TA.AperFunction,Profile*%
%ADD10C,0.200000*%
%TD*%
%ADD11O,1.700000X1.700000*%
%ADD12R,1.700000X1.700000*%
%ADD13R,2.290000X3.000000*%
%ADD14RoundRect,0.150000X-0.825000X-0.150000X0.825000X-0.150000X0.825000X0.150000X-0.825000X0.150000X0*%
%ADD15R,3.400000X1.800000*%
%ADD16R,1.800000X3.400000*%
%ADD17RoundRect,0.250000X-0.400000X-1.450000X0.400000X-1.450000X0.400000X1.450000X-0.400000X1.450000X0*%
%ADD18RoundRect,0.237500X0.300000X0.237500X-0.300000X0.237500X-0.300000X-0.237500X0.300000X-0.237500X0*%
%ADD19RoundRect,0.237500X-0.300000X-0.237500X0.300000X-0.237500X0.300000X0.237500X-0.300000X0.237500X0*%
%ADD20RoundRect,0.237500X-0.237500X0.300000X-0.237500X-0.300000X0.237500X-0.300000X0.237500X0.300000X0*%
%ADD21RoundRect,0.250000X-0.650000X0.412500X-0.650000X-0.412500X0.650000X-0.412500X0.650000X0.412500X0*%
%ADD22RoundRect,0.237500X-0.250000X-0.237500X0.250000X-0.237500X0.250000X0.237500X-0.250000X0.237500X0*%
%ADD23RoundRect,0.237500X0.237500X-0.300000X0.237500X0.300000X-0.237500X0.300000X-0.237500X-0.300000X0*%
%ADD24RoundRect,0.237500X-0.237500X0.250000X-0.237500X-0.250000X0.237500X-0.250000X0.237500X0.250000X0*%
%ADD25C,0.900000*%
%ADD26C,8.600000*%
%ADD27RoundRect,0.237500X0.237500X-0.287500X0.237500X0.287500X-0.237500X0.287500X-0.237500X-0.287500X0*%
%ADD28R,2.100000X0.750000*%
%ADD29RoundRect,0.237500X0.237500X-0.250000X0.237500X0.250000X-0.237500X0.250000X-0.237500X-0.250000X0*%
%ADD30RoundRect,0.237500X0.250000X0.237500X-0.250000X0.237500X-0.250000X-0.237500X0.250000X-0.237500X0*%
%ADD31RoundRect,0.075000X-0.075000X-0.725000X0.075000X-0.725000X0.075000X0.725000X-0.075000X0.725000X0*%
%ADD32RoundRect,0.075000X-0.725000X-0.075000X0.725000X-0.075000X0.725000X0.075000X-0.725000X0.075000X0*%
%ADD33R,1.200000X1.800000*%
%ADD34RoundRect,0.100000X-0.687500X-0.100000X0.687500X-0.100000X0.687500X0.100000X-0.687500X0.100000X0*%
%ADD35R,2.460000X2.310000*%
%ADD36RoundRect,0.237500X-0.237500X0.287500X-0.237500X-0.287500X0.237500X-0.287500X0.237500X0.287500X0*%
%ADD37RoundRect,0.150000X0.512500X0.150000X-0.512500X0.150000X-0.512500X-0.150000X0.512500X-0.150000X0*%
%ADD38C,1.600000*%
%ADD39R,1.600000X1.600000*%
%ADD40C,4.000000*%
%ADD41C,3.000000*%
%ADD42R,3.000000X3.000000*%
%ADD43R,1.800000X1.900000*%
%ADD44R,1.650000X1.300000*%
%ADD45R,1.425000X1.550000*%
%ADD46R,1.000000X1.900000*%
%ADD47R,0.450000X1.380000*%
%ADD48R,0.750000X0.280000*%
%ADD49R,0.850000X0.280000*%
%ADD50C,0.800000*%
G04 APERTURE END LIST*
D10*
X227330000Y-148166000D02*
X142410000Y-148166000D01*
X229870000Y-60706000D02*
X229870000Y-145626000D01*
X229870000Y-60706000D02*
G75*
G03*
X227330000Y-58166000I-2540000J0D01*
G01*
X139870000Y-145626000D02*
X139870000Y-60706000D01*
X227330000Y-148166000D02*
G75*
G03*
X229870000Y-145626000I0J2540000D01*
G01*
X139870000Y-145626000D02*
G75*
G03*
X142410000Y-148166000I2540000J0D01*
G01*
X142410000Y-58166000D02*
X227330000Y-58166000D01*
X142410000Y-58166000D02*
G75*
G03*
X139870000Y-60706000I0J-2540000D01*
G01*
D11*
%TO.C,J9*%
X222123000Y-121920000D03*
X222123000Y-119380000D03*
X222123000Y-116840000D03*
X222123000Y-114300000D03*
X222123000Y-111760000D03*
X222123000Y-109220000D03*
X222123000Y-106680000D03*
X222123000Y-104140000D03*
X222123000Y-101600000D03*
X222123000Y-99060000D03*
X222123000Y-96520000D03*
X222123000Y-93980000D03*
X222123000Y-91440000D03*
X222123000Y-88900000D03*
X222123000Y-86360000D03*
X222123000Y-83820000D03*
X222123000Y-81280000D03*
X222123000Y-78740000D03*
X222123000Y-76200000D03*
D12*
X222123000Y-73660000D03*
%TD*%
D11*
%TO.C,J8*%
X212471000Y-65278000D03*
X209931000Y-65278000D03*
X207391000Y-65278000D03*
X204851000Y-65278000D03*
X202311000Y-65278000D03*
X199771000Y-65278000D03*
X197231000Y-65278000D03*
X194691000Y-65278000D03*
X192151000Y-65278000D03*
X189611000Y-65278000D03*
X187071000Y-65278000D03*
X184531000Y-65278000D03*
X181991000Y-65278000D03*
X179451000Y-65278000D03*
X176911000Y-65278000D03*
X174371000Y-65278000D03*
X171831000Y-65278000D03*
X169291000Y-65278000D03*
X166751000Y-65278000D03*
D12*
X164211000Y-65278000D03*
%TD*%
D13*
%TO.C,IC4*%
X173355000Y-126365000D03*
D14*
X175830000Y-124460000D03*
X175830000Y-125730000D03*
X175830000Y-127000000D03*
X175830000Y-128270000D03*
X170880000Y-128270000D03*
X170880000Y-127000000D03*
X170880000Y-125730000D03*
X170880000Y-124460000D03*
%TD*%
D15*
%TO.C,TP3*%
X165100000Y-142748000D03*
%TD*%
D16*
%TO.C,TP8*%
X190627000Y-120523000D03*
%TD*%
D17*
%TO.C,L1*%
X158120000Y-132080000D03*
X153670000Y-132080000D03*
%TD*%
D15*
%TO.C,TP13*%
X204089000Y-69596000D03*
%TD*%
D18*
%TO.C,C13*%
X180901000Y-100076000D03*
X182626000Y-100076000D03*
%TD*%
D19*
%TO.C,C23*%
X178308000Y-85598000D03*
X176583000Y-85598000D03*
%TD*%
D20*
%TO.C,C9*%
X179070000Y-134212500D03*
X179070000Y-132487500D03*
%TD*%
D21*
%TO.C,C6*%
X182880000Y-134620000D03*
X182880000Y-131495000D03*
%TD*%
D22*
%TO.C,R14*%
X211732500Y-141986000D03*
X209907500Y-141986000D03*
%TD*%
D15*
%TO.C,TP6*%
X159258000Y-77978000D03*
%TD*%
D23*
%TO.C,C15*%
X178562000Y-98351000D03*
X178562000Y-100076000D03*
%TD*%
D13*
%TO.C,IC3*%
X214949000Y-71489000D03*
D14*
X217424000Y-69584000D03*
X217424000Y-70854000D03*
X217424000Y-72124000D03*
X217424000Y-73394000D03*
X212474000Y-73394000D03*
X212474000Y-72124000D03*
X212474000Y-70854000D03*
X212474000Y-69584000D03*
%TD*%
D24*
%TO.C,R5*%
X184785000Y-138707500D03*
X184785000Y-136882500D03*
%TD*%
D20*
%TO.C,C19*%
X199263000Y-102309000D03*
X199263000Y-100584000D03*
%TD*%
D18*
%TO.C,C17*%
X180901000Y-94869000D03*
X182626000Y-94869000D03*
%TD*%
%TO.C,C22*%
X186716500Y-101346000D03*
X188441500Y-101346000D03*
%TD*%
D20*
%TO.C,C10*%
X198115000Y-133805000D03*
X198115000Y-132080000D03*
%TD*%
D15*
%TO.C,TP2*%
X190246000Y-143002000D03*
%TD*%
D25*
%TO.C,H4*%
X148767000Y-142748000D03*
X147822419Y-145028419D03*
X143261581Y-140467581D03*
X142317000Y-142748000D03*
X143261581Y-145028419D03*
D26*
X145542000Y-142748000D03*
D25*
X147822419Y-140467581D03*
X145542000Y-145973000D03*
X145542000Y-139523000D03*
%TD*%
D27*
%TO.C,D1*%
X202692000Y-97804000D03*
X202692000Y-99554000D03*
%TD*%
D28*
%TO.C,J2*%
X211306000Y-119126000D03*
X214906000Y-119126000D03*
X211306000Y-117856000D03*
X214906000Y-117856000D03*
X211306000Y-116586000D03*
X214906000Y-116586000D03*
X211306000Y-115316000D03*
X214906000Y-115316000D03*
X211306000Y-114046000D03*
X214906000Y-114046000D03*
%TD*%
D25*
%TO.C,H2*%
X226816419Y-61473581D03*
X221311000Y-63754000D03*
D26*
X224536000Y-63754000D03*
D25*
X224536000Y-66979000D03*
X222255581Y-66034419D03*
X227761000Y-63754000D03*
X226816419Y-66034419D03*
X224536000Y-60529000D03*
X222255581Y-61473581D03*
%TD*%
D29*
%TO.C,R9*%
X196088000Y-105744000D03*
X196088000Y-107569000D03*
%TD*%
D11*
%TO.C,J4*%
X164084000Y-87635000D03*
X164084000Y-85095000D03*
X164084000Y-82555000D03*
X164084000Y-80015000D03*
D12*
X164084000Y-77475000D03*
%TD*%
D30*
%TO.C,R11*%
X180928000Y-91694000D03*
X182753000Y-91694000D03*
%TD*%
D15*
%TO.C,TP15*%
X164338000Y-117983000D03*
%TD*%
D23*
%TO.C,C4*%
X166370000Y-136932500D03*
X166370000Y-138657500D03*
%TD*%
D15*
%TO.C,TP10*%
X214122000Y-108712000D03*
%TD*%
D24*
%TO.C,R12*%
X191643000Y-79295000D03*
X191643000Y-77470000D03*
%TD*%
%TO.C,R6*%
X184785000Y-143510000D03*
X184785000Y-141685000D03*
%TD*%
D17*
%TO.C,L2*%
X191770000Y-132080000D03*
X187320000Y-132080000D03*
%TD*%
D15*
%TO.C,TP9*%
X167259000Y-102489000D03*
%TD*%
%TO.C,TP14*%
X208915000Y-77851000D03*
%TD*%
%TO.C,TP11*%
X214122000Y-101727000D03*
%TD*%
%TO.C,TP1*%
X151384000Y-127508000D03*
%TD*%
D11*
%TO.C,J11*%
X164211000Y-62738000D03*
X166751000Y-62738000D03*
X169291000Y-62738000D03*
X171831000Y-62738000D03*
X174371000Y-62738000D03*
X176911000Y-62738000D03*
X179451000Y-62738000D03*
X181991000Y-62738000D03*
X184531000Y-62738000D03*
X187071000Y-62738000D03*
X189611000Y-62738000D03*
X192151000Y-62738000D03*
X194691000Y-62738000D03*
X197231000Y-62738000D03*
X199771000Y-62738000D03*
X202311000Y-62738000D03*
X204851000Y-62738000D03*
X207391000Y-62738000D03*
X209931000Y-62738000D03*
D12*
X212471000Y-62738000D03*
%TD*%
D30*
%TO.C,R2*%
X158496000Y-139192000D03*
X160321000Y-139192000D03*
%TD*%
D11*
%TO.C,J6*%
X168758000Y-75555000D03*
X168758000Y-78095000D03*
X168758000Y-80635000D03*
X168758000Y-83175000D03*
X168758000Y-85715000D03*
X168758000Y-88255000D03*
X168758000Y-90795000D03*
X168758000Y-93335000D03*
D12*
X168758000Y-95875000D03*
%TD*%
D29*
%TO.C,R15*%
X212344000Y-138383000D03*
X212344000Y-140208000D03*
%TD*%
D20*
%TO.C,C1*%
X144780000Y-132942500D03*
X144780000Y-131217500D03*
%TD*%
D19*
%TO.C,C14*%
X204978000Y-78359000D03*
X203253000Y-78359000D03*
%TD*%
D13*
%TO.C,IC2*%
X178308000Y-76454000D03*
D14*
X180783000Y-74549000D03*
X180783000Y-75819000D03*
X180783000Y-77089000D03*
X180783000Y-78359000D03*
X175833000Y-78359000D03*
X175833000Y-77089000D03*
X175833000Y-75819000D03*
X175833000Y-74549000D03*
%TD*%
D23*
%TO.C,C3*%
X167005000Y-132487500D03*
X167005000Y-134212500D03*
%TD*%
D24*
%TO.C,R8*%
X193548000Y-79295000D03*
X193548000Y-77470000D03*
%TD*%
D18*
%TO.C,C21*%
X181028000Y-85979000D03*
X182753000Y-85979000D03*
%TD*%
%TO.C,C24*%
X176583000Y-94488000D03*
X178308000Y-94488000D03*
%TD*%
D24*
%TO.C,R16*%
X210820000Y-140208000D03*
X210820000Y-138383000D03*
%TD*%
D31*
%TO.C,U2*%
X186913000Y-82749000D03*
X187413000Y-82749000D03*
X187913000Y-82749000D03*
X188413000Y-82749000D03*
X188913000Y-82749000D03*
X189413000Y-82749000D03*
X189913000Y-82749000D03*
X190413000Y-82749000D03*
X190913000Y-82749000D03*
X191413000Y-82749000D03*
X191913000Y-82749000D03*
X192413000Y-82749000D03*
X192913000Y-82749000D03*
X193413000Y-82749000D03*
X193913000Y-82749000D03*
X194413000Y-82749000D03*
X194913000Y-82749000D03*
X195413000Y-82749000D03*
X195913000Y-82749000D03*
X196413000Y-82749000D03*
X196913000Y-82749000D03*
X197413000Y-82749000D03*
X197913000Y-82749000D03*
X198413000Y-82749000D03*
X198913000Y-82749000D03*
D32*
X200588000Y-84424000D03*
X200588000Y-84924000D03*
X200588000Y-85424000D03*
X200588000Y-85924000D03*
X200588000Y-86424000D03*
X200588000Y-86924000D03*
X200588000Y-87424000D03*
X200588000Y-87924000D03*
X200588000Y-88424000D03*
X200588000Y-88924000D03*
X200588000Y-89424000D03*
X200588000Y-89924000D03*
X200588000Y-90424000D03*
X200588000Y-90924000D03*
X200588000Y-91424000D03*
X200588000Y-91924000D03*
X200588000Y-92424000D03*
X200588000Y-92924000D03*
X200588000Y-93424000D03*
X200588000Y-93924000D03*
X200588000Y-94424000D03*
X200588000Y-94924000D03*
X200588000Y-95424000D03*
X200588000Y-95924000D03*
X200588000Y-96424000D03*
D31*
X198913000Y-98099000D03*
X198413000Y-98099000D03*
X197913000Y-98099000D03*
X197413000Y-98099000D03*
X196913000Y-98099000D03*
X196413000Y-98099000D03*
X195913000Y-98099000D03*
X195413000Y-98099000D03*
X194913000Y-98099000D03*
X194413000Y-98099000D03*
X193913000Y-98099000D03*
X193413000Y-98099000D03*
X192913000Y-98099000D03*
X192413000Y-98099000D03*
X191913000Y-98099000D03*
X191413000Y-98099000D03*
X190913000Y-98099000D03*
X190413000Y-98099000D03*
X189913000Y-98099000D03*
X189413000Y-98099000D03*
X188913000Y-98099000D03*
X188413000Y-98099000D03*
X187913000Y-98099000D03*
X187413000Y-98099000D03*
X186913000Y-98099000D03*
D32*
X185238000Y-96424000D03*
X185238000Y-95924000D03*
X185238000Y-95424000D03*
X185238000Y-94924000D03*
X185238000Y-94424000D03*
X185238000Y-93924000D03*
X185238000Y-93424000D03*
X185238000Y-92924000D03*
X185238000Y-92424000D03*
X185238000Y-91924000D03*
X185238000Y-91424000D03*
X185238000Y-90924000D03*
X185238000Y-90424000D03*
X185238000Y-89924000D03*
X185238000Y-89424000D03*
X185238000Y-88924000D03*
X185238000Y-88424000D03*
X185238000Y-87924000D03*
X185238000Y-87424000D03*
X185238000Y-86924000D03*
X185238000Y-86424000D03*
X185238000Y-85924000D03*
X185238000Y-85424000D03*
X185238000Y-84924000D03*
X185238000Y-84424000D03*
%TD*%
D23*
%TO.C,C18*%
X186690000Y-78285000D03*
X186690000Y-80010000D03*
%TD*%
D15*
%TO.C,TP4*%
X184150000Y-127000000D03*
%TD*%
D11*
%TO.C,J12*%
X191008000Y-69088000D03*
X188468000Y-69088000D03*
D12*
X185928000Y-69088000D03*
%TD*%
D22*
%TO.C,R10*%
X206248000Y-102249000D03*
X204423000Y-102249000D03*
%TD*%
D29*
%TO.C,R13*%
X197993000Y-105744000D03*
X197993000Y-107569000D03*
%TD*%
D25*
%TO.C,H3*%
X226816419Y-140467581D03*
X222255581Y-140467581D03*
X224536000Y-145973000D03*
X224536000Y-139523000D03*
X226816419Y-145028419D03*
X222255581Y-145028419D03*
X227761000Y-142748000D03*
X221311000Y-142748000D03*
D26*
X224536000Y-142748000D03*
%TD*%
D33*
%TO.C,Y1*%
X178803000Y-87948000D03*
X178803000Y-91948000D03*
X176403000Y-91948000D03*
X176403000Y-87948000D03*
%TD*%
D20*
%TO.C,C8*%
X180340000Y-138430000D03*
X180340000Y-136705000D03*
%TD*%
D34*
%TO.C,IC1*%
X176217500Y-133615000D03*
X176217500Y-134265000D03*
X176217500Y-134915000D03*
X176217500Y-135565000D03*
X176217500Y-136215000D03*
X176217500Y-136865000D03*
X176217500Y-137515000D03*
X176217500Y-138165000D03*
X170492500Y-138165000D03*
X170492500Y-137515000D03*
X170492500Y-136865000D03*
X170492500Y-136215000D03*
X170492500Y-135565000D03*
X170492500Y-134915000D03*
X170492500Y-134265000D03*
X170492500Y-133615000D03*
D35*
X173355000Y-135890000D03*
%TD*%
D15*
%TO.C,TP12*%
X197358000Y-69596000D03*
%TD*%
D29*
%TO.C,R7*%
X189738000Y-77446500D03*
X189738000Y-79271500D03*
%TD*%
D25*
%TO.C,H1*%
X147822419Y-66034419D03*
X147822419Y-61473581D03*
X143261581Y-66034419D03*
X148767000Y-63754000D03*
D26*
X145542000Y-63754000D03*
D25*
X145542000Y-66979000D03*
X145542000Y-60529000D03*
X143261581Y-61473581D03*
X142317000Y-63754000D03*
%TD*%
D36*
%TO.C,L3*%
X176530000Y-100048000D03*
X176530000Y-98298000D03*
%TD*%
D37*
%TO.C,U3*%
X211079500Y-130680000D03*
X211079500Y-129730000D03*
X211079500Y-128780000D03*
X213354500Y-128780000D03*
X213354500Y-129730000D03*
X213354500Y-130680000D03*
%TD*%
D15*
%TO.C,TP7*%
X159258000Y-82550000D03*
%TD*%
D24*
%TO.C,R1*%
X162447500Y-139342500D03*
X162447500Y-137517500D03*
%TD*%
D22*
%TO.C,R4*%
X174752000Y-145034000D03*
X172927000Y-145034000D03*
%TD*%
D15*
%TO.C,TP5*%
X159258000Y-87122000D03*
%TD*%
D22*
%TO.C,R3*%
X170180000Y-145034000D03*
X168355000Y-145034000D03*
%TD*%
D11*
%TO.C,J7*%
X204851000Y-114300000D03*
X202311000Y-114300000D03*
X199771000Y-114300000D03*
X197231000Y-114300000D03*
X194691000Y-114300000D03*
X192151000Y-114300000D03*
X189611000Y-114300000D03*
D12*
X187071000Y-114300000D03*
%TD*%
D21*
%TO.C,C5*%
X162560000Y-133935000D03*
X162560000Y-130810000D03*
%TD*%
D18*
%TO.C,C20*%
X181028000Y-88900000D03*
X182753000Y-88900000D03*
%TD*%
%TO.C,C12*%
X180901000Y-98044000D03*
X182626000Y-98044000D03*
%TD*%
D38*
%TO.C,J5*%
X147575331Y-82602000D03*
X147575331Y-85372000D03*
X147575331Y-88142000D03*
X147575331Y-90912000D03*
X147575331Y-93682000D03*
X147575331Y-96452000D03*
X147575331Y-99222000D03*
X150415331Y-81217000D03*
X150415331Y-83987000D03*
X150415331Y-86757000D03*
X150415331Y-89527000D03*
X150415331Y-92297000D03*
X150415331Y-95067000D03*
X150415331Y-97837000D03*
D39*
X150415331Y-100607000D03*
D40*
X148995331Y-74262000D03*
X148995331Y-107562000D03*
%TD*%
D19*
%TO.C,C16*%
X204798000Y-83439000D03*
X203073000Y-83439000D03*
%TD*%
D41*
%TO.C,J1*%
X149332500Y-120752500D03*
D42*
X149332500Y-115752500D03*
%TD*%
D11*
%TO.C,J10*%
X224663000Y-121920000D03*
X224663000Y-119380000D03*
X224663000Y-116840000D03*
X224663000Y-114300000D03*
X224663000Y-111760000D03*
X224663000Y-109220000D03*
X224663000Y-106680000D03*
X224663000Y-104140000D03*
X224663000Y-101600000D03*
X224663000Y-99060000D03*
X224663000Y-96520000D03*
X224663000Y-93980000D03*
X224663000Y-91440000D03*
X224663000Y-88900000D03*
X224663000Y-86360000D03*
X224663000Y-83820000D03*
X224663000Y-81280000D03*
X224663000Y-78740000D03*
X224663000Y-76200000D03*
D12*
X224663000Y-73660000D03*
%TD*%
D43*
%TO.C,J3*%
X210432000Y-146805000D03*
D44*
X208207000Y-146805000D03*
D45*
X209094500Y-144230000D03*
D44*
X214957000Y-146805000D03*
D46*
X213132000Y-146805000D03*
D45*
X214069500Y-144230000D03*
D47*
X212882000Y-144145000D03*
X212232000Y-144145000D03*
X211582000Y-144145000D03*
X210932000Y-144145000D03*
X210282000Y-144145000D03*
%TD*%
D48*
%TO.C,U1*%
X172780000Y-142105000D03*
X172780000Y-141605000D03*
X172780000Y-141105000D03*
X173930000Y-141105000D03*
X173930000Y-141605000D03*
D49*
X173880000Y-142105000D03*
%TD*%
D20*
%TO.C,C7*%
X177800000Y-141832500D03*
X177800000Y-140107500D03*
%TD*%
%TO.C,C2*%
X149860000Y-132942500D03*
X149860000Y-131217500D03*
%TD*%
%TO.C,C11*%
X195580000Y-133805000D03*
X195580000Y-132080000D03*
%TD*%
D50*
X204216000Y-73787000D03*
X201041000Y-74803000D03*
X193294000Y-86106000D03*
X195707000Y-89027000D03*
X201803000Y-76200000D03*
X205613000Y-74803000D03*
X196850000Y-89027000D03*
X202819000Y-76835000D03*
X206121000Y-75819000D03*
X211074000Y-104394000D03*
X211455000Y-102743000D03*
X212217000Y-99822000D03*
X152527000Y-88138000D03*
X166497000Y-118491000D03*
X202057000Y-70739000D03*
X198755000Y-70739000D03*
X214376000Y-143002000D03*
X208407000Y-143002000D03*
X167259000Y-98171000D03*
X198120000Y-88900000D03*
X199188500Y-88884628D03*
X202946000Y-85711787D03*
X199009000Y-108712000D03*
X207518000Y-88392000D03*
X208534000Y-99060000D03*
X169672000Y-102362000D03*
X174117000Y-101600000D03*
X194945000Y-77470000D03*
X193368317Y-94983500D03*
X191008000Y-93726000D03*
X190754000Y-78359000D03*
X203327000Y-90173500D03*
X194437000Y-90424000D03*
X217805000Y-82550000D03*
X214503000Y-85839500D03*
X218706500Y-78359000D03*
X212979000Y-85979000D03*
X182626000Y-119253000D03*
X186817000Y-111379000D03*
X183769000Y-108712000D03*
X175641000Y-119253000D03*
X188595000Y-76073000D03*
X188976000Y-92964000D03*
X168529000Y-69977000D03*
X173863000Y-83693000D03*
X180213000Y-93472000D03*
X174498000Y-87630000D03*
X171843500Y-71247000D03*
X175641000Y-81661000D03*
X171958000Y-69596000D03*
X176657000Y-80755503D03*
X169291000Y-68580000D03*
X176657000Y-79756000D03*
X171323000Y-81534000D03*
X173990000Y-75946000D03*
X184531000Y-83565500D03*
X186944000Y-85344000D03*
X179070000Y-85471000D03*
X210693000Y-70866000D03*
X190839477Y-104606477D03*
X170708500Y-91186000D03*
X190246000Y-95758000D03*
X185166000Y-102108000D03*
X185674000Y-104381500D03*
X158242000Y-126746000D03*
X146304000Y-129794000D03*
X161798000Y-124968000D03*
X148336000Y-129794000D03*
X147320000Y-129794000D03*
X167894000Y-136906000D03*
X187198000Y-144272000D03*
X171958000Y-143256000D03*
X176374951Y-139347049D03*
X178562000Y-136652000D03*
X218186000Y-74168000D03*
X178562000Y-141732000D03*
X174315000Y-135565000D03*
X165608000Y-138684000D03*
X172537000Y-135565000D03*
X174244000Y-134112000D03*
X172523500Y-137471500D03*
X180340000Y-85852000D03*
X175514000Y-94488000D03*
X179832000Y-98044000D03*
X174244000Y-137414000D03*
X200152000Y-102362000D03*
X170434000Y-80518000D03*
X180086000Y-88138000D03*
X174244000Y-78486000D03*
X186182000Y-100838000D03*
X172466000Y-134112000D03*
X186055000Y-78232000D03*
X157734000Y-139192000D03*
X170434000Y-93726000D03*
X205486000Y-83566000D03*
X212852000Y-142855498D03*
X205625500Y-101809692D03*
X171958000Y-128778000D03*
X180086000Y-94996000D03*
X216154000Y-116586000D03*
X214376000Y-129794000D03*
X215392000Y-103378000D03*
X169418000Y-122936000D03*
X173990000Y-74946497D03*
X209931000Y-69596000D03*
X195326000Y-72898000D03*
X216662000Y-107696000D03*
X197485000Y-75184000D03*
X165608000Y-85090000D03*
X169164000Y-125476000D03*
X204570685Y-86767315D03*
X208273600Y-125045100D03*
X203861315Y-87476685D03*
X207270400Y-125045100D03*
X176276000Y-142354500D03*
X194762925Y-87885990D03*
X176276000Y-140855500D03*
X194691000Y-86360000D03*
X182165000Y-85852000D03*
X186182000Y-81026000D03*
X188468000Y-100076000D03*
X176530000Y-97536000D03*
X201930000Y-83058000D03*
X193294000Y-133350000D03*
X193548000Y-76200000D03*
X197104000Y-107696000D03*
X217551000Y-68961000D03*
X194310000Y-133350000D03*
X194310000Y-130810000D03*
X182372000Y-88138000D03*
X193294000Y-130810000D03*
X170434000Y-96012000D03*
X200152000Y-100584000D03*
X216154000Y-114046000D03*
X182372000Y-75946000D03*
X156718000Y-76200000D03*
X146812000Y-79248000D03*
X187706000Y-89027000D03*
X190766500Y-87884000D03*
X195707000Y-92329000D03*
X206248000Y-118872000D03*
X191163117Y-99980677D03*
X153924000Y-88392000D03*
X191912617Y-100965000D03*
X211328000Y-112014000D03*
X201803000Y-81407000D03*
X210820000Y-109982000D03*
X155702000Y-85598000D03*
X198080775Y-79057554D03*
X197125977Y-78761977D03*
X195834000Y-80772000D03*
X157480000Y-95504000D03*
X192532000Y-81026000D03*
X162306000Y-94742000D03*
X209042000Y-84328000D03*
X199136000Y-84455000D03*
X198374000Y-85204500D03*
X207264000Y-85090000D03*
X193040000Y-92837000D03*
X190868500Y-105918000D03*
X208788000Y-114554000D03*
X208788000Y-108331000D03*
X185166000Y-98298000D03*
X163830000Y-96012000D03*
X173736000Y-92710000D03*
X188468000Y-84148500D03*
X173482000Y-94996000D03*
X156718000Y-73660000D03*
X155448000Y-74422000D03*
M02*
