%TF.GenerationSoftware,KiCad,Pcbnew,(6.0.7)*%
%TF.CreationDate,2023-01-26T22:49:43-08:00*%
%TF.ProjectId,FlightComputer,466c6967-6874-4436-9f6d-70757465722e,rev?*%
%TF.SameCoordinates,Original*%
%TF.FileFunction,Soldermask,Bot*%
%TF.FilePolarity,Negative*%
%FSLAX46Y46*%
G04 Gerber Fmt 4.6, Leading zero omitted, Abs format (unit mm)*
G04 Created by KiCad (PCBNEW (6.0.7)) date 2023-01-26 22:49:43*
%MOMM*%
%LPD*%
G01*
G04 APERTURE LIST*
%TA.AperFunction,Profile*%
%ADD10C,0.200000*%
%TD*%
%ADD11O,1.700000X1.700000*%
%ADD12R,1.700000X1.700000*%
%ADD13C,0.900000*%
%ADD14C,8.600000*%
%ADD15C,1.600000*%
%ADD16R,1.600000X1.600000*%
%ADD17C,4.000000*%
%ADD18C,3.000000*%
%ADD19R,3.000000X3.000000*%
%ADD20C,0.800000*%
G04 APERTURE END LIST*
D10*
X227330000Y-148166000D02*
X142410000Y-148166000D01*
X229870000Y-60706000D02*
X229870000Y-145626000D01*
X229870000Y-60706000D02*
G75*
G03*
X227330000Y-58166000I-2540000J0D01*
G01*
X139870000Y-145626000D02*
X139870000Y-60706000D01*
X227330000Y-148166000D02*
G75*
G03*
X229870000Y-145626000I0J2540000D01*
G01*
X139870000Y-145626000D02*
G75*
G03*
X142410000Y-148166000I2540000J0D01*
G01*
X142410000Y-58166000D02*
X227330000Y-58166000D01*
X142410000Y-58166000D02*
G75*
G03*
X139870000Y-60706000I0J-2540000D01*
G01*
D11*
%TO.C,J9*%
X222123000Y-121920000D03*
X222123000Y-119380000D03*
X222123000Y-116840000D03*
X222123000Y-114300000D03*
X222123000Y-111760000D03*
X222123000Y-109220000D03*
X222123000Y-106680000D03*
X222123000Y-104140000D03*
X222123000Y-101600000D03*
X222123000Y-99060000D03*
X222123000Y-96520000D03*
X222123000Y-93980000D03*
X222123000Y-91440000D03*
X222123000Y-88900000D03*
X222123000Y-86360000D03*
X222123000Y-83820000D03*
X222123000Y-81280000D03*
X222123000Y-78740000D03*
X222123000Y-76200000D03*
D12*
X222123000Y-73660000D03*
%TD*%
D11*
%TO.C,J8*%
X212471000Y-65278000D03*
X209931000Y-65278000D03*
X207391000Y-65278000D03*
X204851000Y-65278000D03*
X202311000Y-65278000D03*
X199771000Y-65278000D03*
X197231000Y-65278000D03*
X194691000Y-65278000D03*
X192151000Y-65278000D03*
X189611000Y-65278000D03*
X187071000Y-65278000D03*
X184531000Y-65278000D03*
X181991000Y-65278000D03*
X179451000Y-65278000D03*
X176911000Y-65278000D03*
X174371000Y-65278000D03*
X171831000Y-65278000D03*
X169291000Y-65278000D03*
X166751000Y-65278000D03*
D12*
X164211000Y-65278000D03*
%TD*%
D13*
%TO.C,H4*%
X148767000Y-142748000D03*
X147822419Y-145028419D03*
X143261581Y-140467581D03*
X142317000Y-142748000D03*
X143261581Y-145028419D03*
D14*
X145542000Y-142748000D03*
D13*
X147822419Y-140467581D03*
X145542000Y-145973000D03*
X145542000Y-139523000D03*
%TD*%
%TO.C,H2*%
X226816419Y-61473581D03*
X221311000Y-63754000D03*
D14*
X224536000Y-63754000D03*
D13*
X224536000Y-66979000D03*
X222255581Y-66034419D03*
X227761000Y-63754000D03*
X226816419Y-66034419D03*
X224536000Y-60529000D03*
X222255581Y-61473581D03*
%TD*%
D11*
%TO.C,J4*%
X164084000Y-87635000D03*
X164084000Y-85095000D03*
X164084000Y-82555000D03*
X164084000Y-80015000D03*
D12*
X164084000Y-77475000D03*
%TD*%
D11*
%TO.C,J11*%
X164211000Y-62738000D03*
X166751000Y-62738000D03*
X169291000Y-62738000D03*
X171831000Y-62738000D03*
X174371000Y-62738000D03*
X176911000Y-62738000D03*
X179451000Y-62738000D03*
X181991000Y-62738000D03*
X184531000Y-62738000D03*
X187071000Y-62738000D03*
X189611000Y-62738000D03*
X192151000Y-62738000D03*
X194691000Y-62738000D03*
X197231000Y-62738000D03*
X199771000Y-62738000D03*
X202311000Y-62738000D03*
X204851000Y-62738000D03*
X207391000Y-62738000D03*
X209931000Y-62738000D03*
D12*
X212471000Y-62738000D03*
%TD*%
D11*
%TO.C,J6*%
X168758000Y-75555000D03*
X168758000Y-78095000D03*
X168758000Y-80635000D03*
X168758000Y-83175000D03*
X168758000Y-85715000D03*
X168758000Y-88255000D03*
X168758000Y-90795000D03*
X168758000Y-93335000D03*
D12*
X168758000Y-95875000D03*
%TD*%
D11*
%TO.C,J12*%
X191008000Y-69088000D03*
X188468000Y-69088000D03*
D12*
X185928000Y-69088000D03*
%TD*%
D13*
%TO.C,H3*%
X226816419Y-140467581D03*
X222255581Y-140467581D03*
X224536000Y-145973000D03*
X224536000Y-139523000D03*
X226816419Y-145028419D03*
X222255581Y-145028419D03*
X227761000Y-142748000D03*
X221311000Y-142748000D03*
D14*
X224536000Y-142748000D03*
%TD*%
D13*
%TO.C,H1*%
X147822419Y-66034419D03*
X147822419Y-61473581D03*
X143261581Y-66034419D03*
X148767000Y-63754000D03*
D14*
X145542000Y-63754000D03*
D13*
X145542000Y-66979000D03*
X145542000Y-60529000D03*
X143261581Y-61473581D03*
X142317000Y-63754000D03*
%TD*%
D11*
%TO.C,J7*%
X204851000Y-114300000D03*
X202311000Y-114300000D03*
X199771000Y-114300000D03*
X197231000Y-114300000D03*
X194691000Y-114300000D03*
X192151000Y-114300000D03*
X189611000Y-114300000D03*
D12*
X187071000Y-114300000D03*
%TD*%
D15*
%TO.C,J5*%
X147575331Y-82602000D03*
X147575331Y-85372000D03*
X147575331Y-88142000D03*
X147575331Y-90912000D03*
X147575331Y-93682000D03*
X147575331Y-96452000D03*
X147575331Y-99222000D03*
X150415331Y-81217000D03*
X150415331Y-83987000D03*
X150415331Y-86757000D03*
X150415331Y-89527000D03*
X150415331Y-92297000D03*
X150415331Y-95067000D03*
X150415331Y-97837000D03*
D16*
X150415331Y-100607000D03*
D17*
X148995331Y-74262000D03*
X148995331Y-107562000D03*
%TD*%
D18*
%TO.C,J1*%
X149332500Y-120752500D03*
D19*
X149332500Y-115752500D03*
%TD*%
D11*
%TO.C,J10*%
X224663000Y-121920000D03*
X224663000Y-119380000D03*
X224663000Y-116840000D03*
X224663000Y-114300000D03*
X224663000Y-111760000D03*
X224663000Y-109220000D03*
X224663000Y-106680000D03*
X224663000Y-104140000D03*
X224663000Y-101600000D03*
X224663000Y-99060000D03*
X224663000Y-96520000D03*
X224663000Y-93980000D03*
X224663000Y-91440000D03*
X224663000Y-88900000D03*
X224663000Y-86360000D03*
X224663000Y-83820000D03*
X224663000Y-81280000D03*
X224663000Y-78740000D03*
X224663000Y-76200000D03*
D12*
X224663000Y-73660000D03*
%TD*%
D20*
X204216000Y-73787000D03*
X201041000Y-74803000D03*
X193294000Y-86106000D03*
X195707000Y-89027000D03*
X201803000Y-76200000D03*
X205613000Y-74803000D03*
X196850000Y-89027000D03*
X202819000Y-76835000D03*
X206121000Y-75819000D03*
X211074000Y-104394000D03*
X211455000Y-102743000D03*
X212217000Y-99822000D03*
X152527000Y-88138000D03*
X166497000Y-118491000D03*
X202057000Y-70739000D03*
X198755000Y-70739000D03*
X214376000Y-143002000D03*
X208407000Y-143002000D03*
X167259000Y-98171000D03*
X198120000Y-88900000D03*
X199188500Y-88884628D03*
X202946000Y-85711787D03*
X199009000Y-108712000D03*
X207518000Y-88392000D03*
X208534000Y-99060000D03*
X169672000Y-102362000D03*
X174117000Y-101600000D03*
X194945000Y-77470000D03*
X193368317Y-94983500D03*
X191008000Y-93726000D03*
X190754000Y-78359000D03*
X203327000Y-90173500D03*
X194437000Y-90424000D03*
X217805000Y-82550000D03*
X214503000Y-85839500D03*
X218706500Y-78359000D03*
X212979000Y-85979000D03*
X182626000Y-119253000D03*
X186817000Y-111379000D03*
X183769000Y-108712000D03*
X175641000Y-119253000D03*
X188595000Y-76073000D03*
X188976000Y-92964000D03*
X168529000Y-69977000D03*
X173863000Y-83693000D03*
X180213000Y-93472000D03*
X174498000Y-87630000D03*
X171843500Y-71247000D03*
X175641000Y-81661000D03*
X171958000Y-69596000D03*
X176657000Y-80755503D03*
X169291000Y-68580000D03*
X176657000Y-79756000D03*
X171323000Y-81534000D03*
X173990000Y-75946000D03*
X184531000Y-83565500D03*
X186944000Y-85344000D03*
X179070000Y-85471000D03*
X210693000Y-70866000D03*
X190839477Y-104606477D03*
X170708500Y-91186000D03*
X190246000Y-95758000D03*
X185166000Y-102108000D03*
X185674000Y-104381500D03*
X158242000Y-126746000D03*
X146304000Y-129794000D03*
X161798000Y-124968000D03*
X148336000Y-129794000D03*
X147320000Y-129794000D03*
X167894000Y-136906000D03*
X187198000Y-144272000D03*
X171958000Y-143256000D03*
X176374951Y-139347049D03*
X178562000Y-136652000D03*
X218186000Y-74168000D03*
X178562000Y-141732000D03*
X174315000Y-135565000D03*
X165608000Y-138684000D03*
X172537000Y-135565000D03*
X174244000Y-134112000D03*
X172523500Y-137471500D03*
X180340000Y-85852000D03*
X175514000Y-94488000D03*
X179832000Y-98044000D03*
X174244000Y-137414000D03*
X200152000Y-102362000D03*
X170434000Y-80518000D03*
X180086000Y-88138000D03*
X174244000Y-78486000D03*
X186182000Y-100838000D03*
X172466000Y-134112000D03*
X186055000Y-78232000D03*
X157734000Y-139192000D03*
X170434000Y-93726000D03*
X205486000Y-83566000D03*
X212852000Y-142855498D03*
X205625500Y-101809692D03*
X171958000Y-128778000D03*
X180086000Y-94996000D03*
X216154000Y-116586000D03*
X214376000Y-129794000D03*
X215392000Y-103378000D03*
X169418000Y-122936000D03*
X173990000Y-74946497D03*
X209931000Y-69596000D03*
X195326000Y-72898000D03*
X216662000Y-107696000D03*
X197485000Y-75184000D03*
X165608000Y-85090000D03*
X169164000Y-125476000D03*
X204570685Y-86767315D03*
X208273600Y-125045100D03*
X203861315Y-87476685D03*
X207270400Y-125045100D03*
X176276000Y-142354500D03*
X194762925Y-87885990D03*
X176276000Y-140855500D03*
X194691000Y-86360000D03*
X182165000Y-85852000D03*
X186182000Y-81026000D03*
X188468000Y-100076000D03*
X176530000Y-97536000D03*
X201930000Y-83058000D03*
X193294000Y-133350000D03*
X193548000Y-76200000D03*
X197104000Y-107696000D03*
X217551000Y-68961000D03*
X194310000Y-133350000D03*
X194310000Y-130810000D03*
X182372000Y-88138000D03*
X193294000Y-130810000D03*
X170434000Y-96012000D03*
X200152000Y-100584000D03*
X216154000Y-114046000D03*
X182372000Y-75946000D03*
X156718000Y-76200000D03*
X146812000Y-79248000D03*
X187706000Y-89027000D03*
X190766500Y-87884000D03*
X195707000Y-92329000D03*
X206248000Y-118872000D03*
X191163117Y-99980677D03*
X153924000Y-88392000D03*
X191912617Y-100965000D03*
X211328000Y-112014000D03*
X201803000Y-81407000D03*
X210820000Y-109982000D03*
X155702000Y-85598000D03*
X198080775Y-79057554D03*
X197125977Y-78761977D03*
X195834000Y-80772000D03*
X157480000Y-95504000D03*
X192532000Y-81026000D03*
X162306000Y-94742000D03*
X209042000Y-84328000D03*
X199136000Y-84455000D03*
X198374000Y-85204500D03*
X207264000Y-85090000D03*
X193040000Y-92837000D03*
X190868500Y-105918000D03*
X208788000Y-114554000D03*
X208788000Y-108331000D03*
X185166000Y-98298000D03*
X163830000Y-96012000D03*
X173736000Y-92710000D03*
X188468000Y-84148500D03*
X173482000Y-94996000D03*
X156718000Y-73660000D03*
X155448000Y-74422000D03*
M02*
