M48
; DRILL file {KiCad (6.0.8)} date Mon Jan 23 00:48:23 2023
; FORMAT={-:-/ absolute / inch / decimal}
; #@! TF.CreationDate,2023-01-23T00:48:23-08:00
; #@! TF.GenerationSoftware,Kicad,Pcbnew,(6.0.8)
; #@! TF.FileFunction,Plated,1,4,PTH
FMAT,2
INCH
; #@! TA.AperFunction,Plated,PTH,ComponentDrill
T1C0.0080
; #@! TA.AperFunction,Plated,PTH,ViaDrill
T2C0.0100
; #@! TA.AperFunction,Plated,PTH,ComponentDrill
T3C0.0120
; #@! TA.AperFunction,Plated,PTH,ViaDrill
T4C0.0157
; #@! TA.AperFunction,Plated,PTH,ComponentDrill
T5C0.0236
; #@! TA.AperFunction,Plated,PTH,ComponentDrill
T6C0.0394
; #@! TA.AperFunction,Plated,PTH,ComponentDrill
T7C0.0591
; #@! TA.AperFunction,Plated,PTH,ComponentDrill
T8C0.0669
; #@! TA.AperFunction,Plated,PTH,ComponentDrill
T9C0.1220
; #@! TA.AperFunction,Plated,PTH,ComponentDrill
T10C0.1693
%
G90
G05
T1
X1.4048Y-2.2276
X1.4363Y-2.2276
X1.7948Y-2.2276
X1.8263Y-2.2276
T2
X0.17Y-2.6
X0.234Y-2.536
X0.234Y-2.644
X0.2578Y-2.991
X0.38Y-2.409
X0.4195Y-2.6295
X0.42Y-2.55
X0.46Y-2.72
X0.4676Y-1.96
X0.5Y-0.95
X0.5Y-1.05
X0.5Y-1.15
X0.5Y-1.25
X0.5Y-1.35
X0.525Y-2.775
X0.5443Y-0.2165
X0.5443Y-3.3268
X0.5463Y-1.96
X0.5614Y-2.795
X0.6Y-0.95
X0.6Y-1.05
X0.6Y-1.15
X0.6Y-1.25
X0.6Y-1.35
X0.6Y-2.5
X0.6Y-2.535
X0.6Y-2.775
X0.625Y-1.96
X0.69Y-3.255
X0.7Y-0.95
X0.7Y-1.05
X0.7Y-1.15
X0.7Y-1.25
X0.7Y-1.35
X0.7038Y-1.96
X0.72Y-2.4614
X0.72Y-2.5
X0.7825Y-1.96
X0.87Y-2.4811
X0.875Y-2.67
X0.8959Y-2.575
X0.8959Y-2.6088
X0.8959Y-2.6397
X1.08Y-2.98
X1.45Y-2.14
X1.792Y-1.555
X1.84Y-2.14
X1.8501Y-1.2162
X1.86Y-1.02
X1.86Y-1.06
X1.8722Y-1.35
X1.8738Y-0.8394
X1.8738Y-1.1421
X1.8868Y-1.7687
X1.8868Y-1.8306
X1.8872Y-1.101
X1.8879Y-1.2674
X1.895Y-1.6
X1.895Y-1.65
X1.9Y-0.78
X1.92Y-1.89
X1.9644Y-0.7488
X1.9718Y-1.2367
X1.9762Y-1.101
X1.9762Y-1.1421
X1.9762Y-1.1803
X1.9774Y-1.9212
X1.9778Y-1.35
X1.98Y-1.6
X1.98Y-1.65
X1.9892Y-1.7687
X1.99Y-1.02
X1.99Y-1.06
X2.0Y-1.81
X2.0199Y-0.7488
X2.0278Y-0.8512
X2.035Y-1.705
X2.035Y-1.766
X2.045Y-1.239
X2.0511Y-1.8188
X2.0511Y-1.9212
X2.059Y-2.652
X2.0755Y-0.7488
X2.0795Y-0.8512
X2.0889Y-1.8188
X2.0889Y-1.9212
X2.12Y-2.77
X2.12Y-2.831
X2.1311Y-0.7488
X2.1311Y-0.8512
X2.14Y-1.925
X2.1676Y-1.957
X2.1689Y-0.7488
X2.1689Y-0.8512
X2.1696Y-1.455
X2.1794Y-1.8188
X2.1857Y-2.9857
X2.1877Y-2.4591
X2.1877Y-2.5402
X2.1877Y-2.578
X2.199Y-0.555
X2.2011Y-2.5
X2.2188Y-2.2306
X2.2188Y-2.3018
X2.2188Y-2.34
X2.2211Y-0.7488
X2.227Y-0.8512
X2.2307Y-1.455
X2.235Y-1.515
X2.2364Y-2.7028
X2.2364Y-2.75
X2.2445Y-1.8962
X2.25Y-3.0
X2.26Y-0.555
X2.26Y-2.7264
X2.2623Y-1.8331
X2.275Y-2.975
X2.2836Y-2.7028
X2.2836Y-2.75
X2.285Y-0.75
X2.285Y-0.8512
X2.3Y-2.86
X2.3Y-2.9211
X2.3078Y-2.2657
X2.3078Y-2.375
X2.3087Y-1.7867
X2.3212Y-2.2306
X2.3212Y-2.3018
X2.3212Y-2.34
X2.335Y-0.81
X2.3382Y-2.5
X2.3467Y-1.9013
X2.3468Y-1.957
X2.3512Y-2.4578
X2.3512Y-2.5402
X2.3512Y-2.578
X2.3548Y-2.13
X2.36Y-2.6521
X2.36Y-2.9211
X2.3718Y-1.7689
X2.3768Y-1.8711
X2.39Y-0.81
X2.4158Y-2.13
X2.4212Y-2.7188
X2.4257Y-1.7688
X2.4257Y-1.8712
X2.44Y-0.75
X2.4406Y-0.8512
X2.47Y-2.925
X2.4771Y-1.7688
X2.4771Y-1.8712
X2.48Y-2.89
X2.5285Y-1.7688
X2.5285Y-1.8712
X2.5295Y-2.8455
X2.5311Y-0.7488
X2.5311Y-0.8512
X2.5689Y-0.7488
X2.5689Y-0.8512
X2.5799Y-1.7688
X2.5799Y-1.8712
X2.58Y-1.5083
X2.6286Y-0.8511
X2.6287Y-1.7689
X2.6336Y-0.7489
X2.6338Y-1.8711
X2.64Y-1.26
X2.6587Y-1.0603
X2.6587Y-1.1192
X2.6587Y-1.2155
X2.6587Y-0.8813
X2.6589Y-1.7387
X2.66Y-1.45
X2.6705Y-1.38
X2.6705Y-1.63
X2.6843Y-0.96
X2.687Y-2.375
X2.6967Y-0.7667
X2.6969Y-1.8533
X2.7Y-1.3
X2.7Y-1.5488
X2.7353Y-0.96
X2.7431Y-0.8131
X2.7433Y-1.8069
X2.75Y-2.625
X2.76Y-1.4
X2.76Y-1.45
X2.761Y-0.8762
X2.761Y-1.0603
X2.761Y-1.1192
X2.761Y-1.2155
X2.761Y-1.2595
X2.7611Y-1.7438
X2.8Y-2.8
X2.8Y-2.975
X2.825Y-2.8237
X2.825Y-3.025
X2.8467Y-2.536
X2.8467Y-2.644
X2.85Y-2.8
X2.85Y-2.997
X2.88Y-3.255
X2.92Y-1.279
X2.92Y-1.529
X2.925Y-2.8681
X2.925Y-2.925
X2.98Y-2.409
X2.999Y-0.2165
X2.999Y-3.3268
X3.0275Y-2.5509
X3.0975Y-2.31
X3.1352Y-2.25
X3.15Y-2.65
X3.1625Y-2.31
X3.1675Y-2.19
X3.1757Y-2.5243
X3.18Y-2.65
X3.2Y-2.5
X3.2002Y-2.25
X3.225Y-2.475
X3.2325Y-2.19
X3.25Y-2.45
X3.325Y-2.325
X3.3674Y-1.7
X3.415Y-2.26
X3.475Y-2.375
X3.5Y-2.5008
T3
X1.8885Y-0.961
X1.9615Y-0.961
T4
X0.3Y-2.3535
X0.3Y-2.47
X0.625Y-0.5306
X0.625Y-0.6094
X0.8613Y-0.57
X0.94Y-1.96
X1.4Y-2.075
X1.45Y-2.0
X1.45Y-2.075
X1.5005Y-2.3305
X1.5248Y-2.075
X1.84Y-2.0
X1.84Y-2.075
X1.9Y-1.45
X1.9Y-1.5
X1.9005Y-2.3305
X1.9148Y-2.075
X1.95Y-1.45
X1.95Y-1.5
X1.9539Y-2.57
X1.987Y-1.3
X2.045Y-1.3
X2.07Y-2.57
X2.12Y-1.1839
X2.12Y-1.3
X2.4921Y-2.722
X2.6007Y-2.708
X2.9Y-2.3539
X2.9Y-2.47
X2.99Y-1.2652
X2.99Y-1.34
X2.99Y-1.5152
X2.99Y-1.59
X3.09Y-2.0
T5
X0.0896Y-0.2165
X0.0896Y-3.3268
X0.1268Y-0.1268
X0.1268Y-0.3063
X0.1268Y-3.237
X0.1268Y-3.4166
X0.2165Y-0.0896
X0.2165Y-0.3435
X0.2165Y-3.1998
X0.2165Y-3.4537
X0.3063Y-0.1268
X0.3063Y-0.3063
X0.3063Y-3.237
X0.3063Y-3.4166
X0.3435Y-0.2165
X0.3435Y-3.3268
X3.1998Y-0.2165
X3.1998Y-3.3268
X3.237Y-0.1268
X3.237Y-0.3063
X3.237Y-3.237
X3.237Y-3.4166
X3.3268Y-0.0896
X3.3268Y-0.3435
X3.3268Y-3.1998
X3.3268Y-3.4537
X3.4166Y-0.1268
X3.4166Y-0.3063
X3.4166Y-3.237
X3.4166Y-3.4166
X3.4537Y-0.2165
X3.4537Y-3.3268
T6
X0.2004Y-0.9909
X0.2004Y-1.0909
X0.2004Y-1.1909
X0.2004Y-1.2909
X0.2004Y-1.3909
X0.2004Y-1.4909
X0.5268Y-3.1496
X0.6268Y-3.1496
X0.7268Y-3.1496
X0.8268Y-3.1496
X1.1004Y-0.9909
X1.1004Y-1.0909
X1.1004Y-1.1909
X1.1004Y-1.2909
X1.1004Y-1.3909
X1.1004Y-1.4909
X1.1004Y-2.3909
X1.1004Y-2.4909
X1.1004Y-2.5909
X1.1004Y-2.6909
X1.1004Y-2.7909
X1.1004Y-2.8909
X1.39Y-3.3402
X1.4445Y-3.2283
X1.4547Y-0.8909
X1.4547Y-0.9909
X1.4547Y-1.0909
X1.4547Y-1.1909
X1.4547Y-1.2909
X1.4547Y-1.3909
X1.4547Y-1.4909
X1.4547Y-1.5909
X1.4547Y-1.6909
X1.499Y-3.3402
X1.5535Y-3.2283
X1.6081Y-3.3402
X1.6626Y-3.2283
X1.7171Y-3.3402
X1.7717Y-3.2283
X1.8262Y-3.3402
X1.8807Y-3.2283
X1.9352Y-3.3402
X1.9898Y-3.2283
X2.0443Y-3.3402
X2.0988Y-3.2283
X2.1533Y-3.3402
X2.7165Y-3.1496
X2.8165Y-3.1496
X2.9165Y-3.1496
X3.0165Y-3.1496
T7
X0.94Y-0.23
X2.35Y-0.23
T8
X0.84Y-0.13
X0.84Y-0.33
X1.04Y-0.13
X1.04Y-0.33
X2.25Y-0.13
X2.25Y-0.33
X2.45Y-0.13
X2.45Y-0.33
T9
X1.1161Y-3.2843
X2.4272Y-3.2843
T10
X0.2165Y-0.2165
X0.2165Y-3.3268
X3.3268Y-0.2165
X3.3268Y-3.3268
T0
M30
