M48
; DRILL file {KiCad (6.0.8)} date Fri Jan 27 01:30:16 2023
; FORMAT={-:-/ absolute / inch / decimal}
; #@! TF.CreationDate,2023-01-27T01:30:16-08:00
; #@! TF.GenerationSoftware,Kicad,Pcbnew,(6.0.8)
; #@! TF.FileFunction,Plated,1,4,PTH
FMAT,2
INCH
; #@! TA.AperFunction,Plated,PTH,ViaDrill
T1C0.0100
; #@! TA.AperFunction,Plated,PTH,ComponentDrill
T2C0.0120
; #@! TA.AperFunction,Plated,PTH,ViaDrill
T3C0.0157
; #@! TA.AperFunction,Plated,PTH,ComponentDrill
T4C0.0236
; #@! TA.AperFunction,Plated,PTH,ComponentDrill
T5C0.0394
; #@! TA.AperFunction,Plated,PTH,ComponentDrill
T6C0.0591
; #@! TA.AperFunction,Plated,PTH,ComponentDrill
T7C0.0669
; #@! TA.AperFunction,Plated,PTH,ComponentDrill
T8C0.1220
; #@! TA.AperFunction,Plated,PTH,ComponentDrill
T9C0.1693
%
G90
G05
T1
X0.0394Y-0.4724
X0.0394Y-0.5906
X0.0394Y-0.7087
X0.0394Y-0.8268
X0.0394Y-0.9449
X0.0394Y-1.063
X0.0394Y-1.1811
X0.0394Y-1.2992
X0.0394Y-1.4173
X0.0394Y-1.5354
X0.0394Y-1.6535
X0.0394Y-1.7717
X0.0394Y-1.8898
X0.0394Y-2.0079
X0.0394Y-2.126
X0.0394Y-2.2441
X0.0394Y-2.3622
X0.0394Y-2.4803
X0.0394Y-2.5984
X0.0394Y-2.7165
X0.0394Y-2.8346
X0.0394Y-2.9528
X0.0394Y-3.0709
X0.1217Y-2.6624
X0.1251Y-3.0228
X0.1261Y-1.7647
X0.1274Y-1.6252
X0.1372Y-0.8738
X0.1373Y-2.8306
X0.1575Y-0.4724
X0.1575Y-3.0709
X0.1599Y-1.9737
X0.1642Y-0.6207
X0.17Y-2.6
X0.1768Y-0.7212
X0.1797Y-2.1279
X0.234Y-2.536
X0.234Y-2.644
X0.2578Y-2.991
X0.2604Y-1.9576
X0.2651Y-0.7211
X0.2723Y-0.5843
X0.2756Y-0.4724
X0.2756Y-3.0709
X0.2759Y-2.2716
X0.2778Y-1.3409
X0.286Y-2.1134
X0.2981Y-1.018
X0.3028Y-0.8709
X0.3031Y-1.8316
X0.321Y-1.6578
X0.38Y-2.409
X0.3937Y-0.4724
X0.3937Y-3.0709
X0.4195Y-2.6295
X0.42Y-2.55
X0.434Y-3.0179
X0.4543Y-3.4758
X0.46Y-2.72
X0.4676Y-1.96
X0.4724Y-0.0394
X0.4724Y-0.1575
X0.4724Y-0.2756
X0.4724Y-0.3937
X0.4724Y-3.1496
X0.4724Y-3.2677
X0.4724Y-3.3858
X0.4724Y-3.5039
X0.5Y-0.95
X0.5Y-1.05
X0.5Y-1.15
X0.5Y-1.25
X0.5Y-1.35
X0.525Y-2.775
X0.5443Y-0.2165
X0.5443Y-3.3268
X0.5463Y-1.96
X0.5614Y-2.795
X0.5843Y-0.1706
X0.5906Y-0.0394
X0.5906Y-3.5039
X0.5935Y-0.4386
X0.6Y-0.95
X0.6Y-1.05
X0.6Y-1.15
X0.6Y-1.25
X0.6Y-1.35
X0.6Y-2.5
X0.6Y-2.535
X0.6Y-2.775
X0.6115Y-0.29
X0.6159Y-3.4749
X0.625Y-3.376
X0.625Y-1.96
X0.69Y-3.255
X0.7Y-0.95
X0.7Y-1.05
X0.7Y-1.15
X0.7Y-1.25
X0.7Y-1.35
X0.7038Y-1.96
X0.7087Y-0.0394
X0.7087Y-3.5039
X0.7101Y-3.4252
X0.7194Y-0.1444
X0.72Y-2.4614
X0.72Y-2.5
X0.7201Y-0.3084
X0.731Y-0.463
X0.7825Y-1.96
X0.8268Y-0.0394
X0.8268Y-3.5039
X0.87Y-2.4811
X0.875Y-2.67
X0.8791Y-0.9299
X0.8864Y-2.2653
X0.89Y-0.48
X0.8959Y-2.575
X0.8959Y-2.6088
X0.8959Y-2.6397
X0.9Y-0.41
X0.9Y-0.45
X0.9034Y-0.7451
X0.9121Y-3.3322
X0.9194Y-3.4444
X0.9449Y-0.0394
X0.9449Y-3.5039
X0.98Y-0.41
X0.98Y-0.45
X0.99Y-0.48
X1.0392Y-0.4139
X1.0458Y-0.7364
X1.0574Y-0.9071
X1.063Y-0.0394
X1.063Y-3.5039
X1.0655Y-0.6109
X1.0689Y-3.434
X1.08Y-2.98
X1.1598Y-0.3316
X1.1691Y-0.4314
X1.1774Y-2.0674
X1.1791Y-2.428
X1.1811Y-0.1209
X1.1811Y-0.0394
X1.1811Y-3.5039
X1.184Y-2.2732
X1.1942Y-0.7489
X1.1951Y-2.5133
X1.2022Y-0.9025
X1.2111Y-2.6988
X1.2181Y-2.8741
X1.2208Y-3.4635
X1.2304Y-0.5857
X1.2992Y-0.0394
X1.2992Y-3.5039
X1.3114Y-2.5695
X1.3148Y-1.0541
X1.3154Y-0.4641
X1.3178Y-2.8653
X1.3281Y-3.1332
X1.3415Y-3.4672
X1.3431Y-1.478
X1.3457Y-1.3389
X1.3478Y-0.2652
X1.3489Y-1.6367
X1.3492Y-1.1932
X1.3653Y-0.1282
X1.3682Y-0.617
X1.3701Y-2.413
X1.3735Y-2.6861
X1.3795Y-0.8951
X1.3815Y-0.731
X1.3827Y-1.8257
X1.4039Y-2.2276
X1.4173Y-0.0394
X1.4173Y-3.5039
X1.4361Y-2.2276
X1.45Y-2.14
X1.4709Y-0.3182
X1.4715Y-0.4676
X1.4988Y-0.11
X1.5086Y-3.4417
X1.518Y-0.5643
X1.5269Y-0.7367
X1.5354Y-0.0394
X1.5354Y-3.5039
X1.6272Y-3.4702
X1.6285Y-1.0826
X1.6297Y-0.1664
X1.6452Y-2.7011
X1.6535Y-0.0394
X1.6535Y-3.5039
X1.6542Y-0.5904
X1.6585Y-1.2256
X1.6595Y-0.4309
X1.6606Y-0.2696
X1.6659Y-2.8112
X1.6662Y-0.7481
X1.6774Y-3.0012
X1.7593Y-1.0424
X1.7638Y-0.719
X1.7666Y-1.4962
X1.7717Y-0.0394
X1.7717Y-3.5039
X1.7847Y-0.2839
X1.792Y-1.555
X1.7939Y-2.2276
X1.7997Y-3.1582
X1.8024Y-1.3168
X1.8075Y-1.1732
X1.8113Y-0.1608
X1.8132Y-3.4832
X1.82Y-0.4376
X1.8227Y-0.5895
X1.8261Y-2.2276
X1.84Y-2.14
X1.8487Y-1.4366
X1.8487Y-1.5134
X1.85Y-1.02
X1.85Y-1.06
X1.8501Y-1.2162
X1.87Y-1.2674
X1.87Y-1.4
X1.8722Y-1.35
X1.8738Y-0.8394
X1.8738Y-1.1421
X1.8868Y-1.7687
X1.8868Y-1.8306
X1.8872Y-1.101
X1.8898Y-0.0394
X1.8898Y-3.5039
X1.895Y-1.6
X1.895Y-1.65
X1.9Y-0.78
X1.9122Y-1.5513
X1.92Y-1.89
X1.9299Y-0.4631
X1.9366Y-0.1466
X1.9399Y-0.5999
X1.945Y-3.4488
X1.9467Y-2.4147
X1.9634Y-1.5513
X1.9644Y-0.7488
X1.9692Y-0.2979
X1.9718Y-1.2367
X1.9762Y-1.101
X1.9762Y-1.1421
X1.9762Y-1.1803
X1.9774Y-1.9212
X1.9778Y-1.35
X1.98Y-1.4
X1.98Y-1.6
X1.98Y-1.65
X1.9892Y-1.7687
X2.0Y-1.02
X2.0Y-1.06
X2.0Y-1.81
X2.0013Y-1.4366
X2.0079Y-0.0394
X2.0079Y-3.5039
X2.0199Y-0.7488
X2.0278Y-0.8512
X2.035Y-1.705
X2.035Y-1.766
X2.045Y-1.239
X2.0511Y-1.8188
X2.0511Y-1.9212
X2.059Y-2.652
X2.0624Y-0.1199
X2.0734Y-2.2759
X2.0755Y-0.7488
X2.0786Y-1.0495
X2.0795Y-0.8512
X2.0889Y-1.8188
X2.0889Y-1.9212
X2.0924Y-0.4286
X2.0994Y-0.3181
X2.1038Y-2.3902
X2.115Y-1.576
X2.1159Y-2.0715
X2.12Y-2.77
X2.12Y-2.831
X2.126Y-0.0394
X2.126Y-3.5039
X2.1311Y-0.7488
X2.1311Y-0.8512
X2.1318Y-0.574
X2.14Y-1.925
X2.1676Y-1.957
X2.1689Y-0.7488
X2.1689Y-0.8512
X2.1696Y-1.455
X2.175Y-1.576
X2.1794Y-1.8188
X2.1857Y-2.9857
X2.1877Y-2.4591
X2.1877Y-2.5402
X2.1877Y-2.578
X2.19Y-3.48
X2.199Y-0.555
X2.2011Y-2.5
X2.2088Y-1.6638
X2.2188Y-2.2306
X2.2188Y-2.3018
X2.2188Y-2.34
X2.2192Y-1.043
X2.2211Y-0.7488
X2.227Y-0.8512
X2.2307Y-1.455
X2.2332Y-0.4628
X2.235Y-1.515
X2.235Y-1.58
X2.2364Y-2.7028
X2.2364Y-2.75
X2.2437Y-1.233
X2.2441Y-0.0394
X2.2441Y-3.5039
X2.25Y-3.0
X2.26Y-0.555
X2.26Y-2.7264
X2.2623Y-1.8331
X2.2631Y-1.3145
X2.27Y-0.75
X2.275Y-2.975
X2.28Y-3.41
X2.2836Y-2.7028
X2.2836Y-2.75
X2.285Y-0.8512
X2.3Y-0.4
X2.3Y-0.45
X2.3Y-0.5
X2.3Y-2.86
X2.3Y-2.9211
X2.3078Y-2.2657
X2.3078Y-2.375
X2.3087Y-1.7867
X2.3212Y-2.2306
X2.3212Y-2.3018
X2.3212Y-2.34
X2.3382Y-2.5
X2.34Y-0.82
X2.3467Y-1.9013
X2.3468Y-1.957
X2.3512Y-2.4578
X2.3512Y-2.5402
X2.3512Y-2.578
X2.3548Y-2.13
X2.36Y-2.6521
X2.36Y-2.9211
X2.3608Y-1.1818
X2.3622Y-0.0394
X2.3622Y-3.5039
X2.3718Y-1.7689
X2.3741Y-2.4307
X2.3768Y-1.8711
X2.38Y-0.82
X2.3933Y-1.6181
X2.4Y-0.4
X2.4Y-0.45
X2.4Y-0.5
X2.4042Y-1.0283
X2.4135Y-1.3088
X2.4158Y-2.13
X2.4212Y-2.7188
X2.4257Y-1.7688
X2.4257Y-1.8712
X2.4406Y-0.8512
X2.45Y-0.75
X2.47Y-2.925
X2.4771Y-1.7688
X2.4771Y-1.8712
X2.48Y-2.89
X2.4803Y-0.0394
X2.4803Y-3.5039
X2.5104Y-1.0604
X2.5105Y-1.9568
X2.5126Y-1.3382
X2.5242Y-2.5218
X2.528Y-2.2722
X2.5285Y-1.7688
X2.5285Y-1.8712
X2.5295Y-2.8455
X2.53Y-3.39
X2.5311Y-0.7488
X2.5311Y-0.8512
X2.5372Y-0.291
X2.5433Y-1.1626
X2.5445Y-0.442
X2.5601Y-0.1101
X2.5689Y-0.7488
X2.5689Y-0.8512
X2.5696Y-3.1295
X2.5799Y-1.7688
X2.5799Y-1.8712
X2.58Y-1.5083
X2.5984Y-0.0394
X2.5984Y-3.5039
X2.6286Y-0.8511
X2.6287Y-1.7689
X2.6336Y-0.7489
X2.6338Y-1.8711
X2.64Y-1.26
X2.6587Y-1.0603
X2.6587Y-1.1192
X2.6587Y-1.2155
X2.6587Y-0.8813
X2.6589Y-1.7387
X2.66Y-1.45
X2.6658Y-0.2639
X2.6703Y-0.1585
X2.6705Y-1.38
X2.6705Y-1.63
X2.6753Y-2.2697
X2.6843Y-0.96
X2.687Y-2.375
X2.6967Y-0.7667
X2.6969Y-1.8533
X2.7Y-1.3
X2.7Y-1.5488
X2.7124Y-0.441
X2.7127Y-3.4092
X2.7163Y-3.292
X2.7165Y-0.0394
X2.7165Y-3.5039
X2.7277Y-1.9225
X2.7353Y-0.96
X2.7431Y-0.8131
X2.7433Y-1.8069
X2.75Y-2.625
X2.76Y-1.4
X2.76Y-1.45
X2.761Y-0.8762
X2.761Y-1.0603
X2.761Y-1.1192
X2.761Y-1.2155
X2.761Y-1.2595
X2.7611Y-1.7438
X2.8Y-2.8
X2.8Y-2.975
X2.8114Y-2.0629
X2.815Y-3.376
X2.825Y-1.4772
X2.825Y-2.8237
X2.825Y-3.025
X2.8272Y-1.1852
X2.8334Y-0.1131
X2.8346Y-0.0394
X2.8346Y-3.5039
X2.8391Y-0.7396
X2.8467Y-2.536
X2.8467Y-2.644
X2.85Y-2.8
X2.85Y-2.997
X2.8609Y-0.3007
X2.8614Y-0.8647
X2.8758Y-3.4253
X2.878Y-0.467
X2.88Y-3.255
X2.92Y-1.279
X2.92Y-1.529
X2.925Y-2.8681
X2.925Y-2.925
X2.9528Y-0.0394
X2.9528Y-3.5039
X2.9724Y-3.4207
X2.9729Y-1.0561
X2.973Y-0.9143
X2.98Y-2.409
X2.985Y-0.602
X2.9961Y-0.4537
X2.999Y-0.2165
X2.999Y-3.3268
X3.0025Y-0.2796
X3.0275Y-2.5509
X3.0322Y-0.1377
X3.0709Y-0.0394
X3.0709Y-0.1575
X3.0709Y-0.2756
X3.0709Y-0.3937
X3.0709Y-3.1496
X3.0709Y-3.2677
X3.0709Y-3.3858
X3.0709Y-3.5039
X3.0975Y-2.31
X3.1352Y-2.25
X3.1389Y-1.5331
X3.1486Y-1.6186
X3.1496Y-0.4724
X3.15Y-2.65
X3.1512Y-0.6071
X3.1535Y-2.9986
X3.1549Y-0.7685
X3.1579Y-1.016
X3.1625Y-2.31
X3.1675Y-2.19
X3.1757Y-2.5243
X3.1787Y-1.2109
X3.18Y-2.65
X3.2Y-2.5
X3.2002Y-2.25
X3.225Y-2.475
X3.2325Y-2.19
X3.25Y-2.45
X3.2677Y-0.4724
X3.2677Y-3.0709
X3.269Y-2.2756
X3.2836Y-2.5671
X3.2951Y-0.7707
X3.3035Y-0.5896
X3.325Y-2.325
X3.3251Y-0.888
X3.3674Y-1.7
X3.3858Y-0.4724
X3.3858Y-3.0709
X3.415Y-2.26
X3.4153Y-2.9795
X3.4172Y-0.758
X3.4369Y-0.6079
X3.4393Y-0.4819
X3.4518Y-0.8683
X3.454Y-1.0321
X3.4637Y-1.2323
X3.475Y-2.375
X3.4781Y-1.4916
X3.4801Y-1.3326
X3.5Y-2.5008
X3.5039Y-0.4724
X3.5039Y-0.5906
X3.5039Y-0.7087
X3.5039Y-0.8268
X3.5039Y-0.9449
X3.5039Y-1.063
X3.5039Y-1.1811
X3.5039Y-1.2992
X3.5039Y-1.4173
X3.5039Y-1.5354
X3.5039Y-1.6535
X3.5039Y-1.7717
X3.5039Y-1.8898
X3.5039Y-2.0079
X3.5039Y-2.126
X3.5039Y-2.2441
X3.5039Y-2.3622
X3.5039Y-2.8346
X3.5039Y-2.9528
X3.5039Y-3.0709
T2
X1.8885Y-0.961
X1.9615Y-0.961
T3
X0.3Y-2.3535
X0.3Y-2.47
X0.625Y-0.5306
X0.625Y-0.6094
X0.83Y-0.23
X0.8613Y-0.57
X0.94Y-0.12
X0.94Y-1.96
X1.05Y-0.23
X1.4Y-2.075
X1.45Y-2.0
X1.45Y-2.075
X1.5005Y-2.3305
X1.5248Y-2.075
X1.84Y-2.0
X1.84Y-2.075
X1.9Y-1.45
X1.9Y-1.5
X1.9005Y-2.3305
X1.9148Y-2.075
X1.95Y-1.45
X1.95Y-1.5
X1.9539Y-2.57
X1.987Y-1.3
X2.045Y-1.3
X2.07Y-2.57
X2.12Y-1.1839
X2.12Y-1.3
X2.24Y-0.23
X2.35Y-0.12
X2.46Y-0.23
X2.4921Y-2.722
X2.6007Y-2.708
X2.9Y-2.3539
X2.9Y-2.47
X2.99Y-1.2652
X2.99Y-1.34
X2.99Y-1.5152
X2.99Y-1.59
X3.09Y-2.0
T4
X0.0896Y-0.2165
X0.0896Y-3.3268
X0.1268Y-0.1268
X0.1268Y-0.3063
X0.1268Y-3.237
X0.1268Y-3.4166
X0.2165Y-0.0896
X0.2165Y-0.3435
X0.2165Y-3.1998
X0.2165Y-3.4537
X0.3063Y-0.1268
X0.3063Y-0.3063
X0.3063Y-3.237
X0.3063Y-3.4166
X0.3435Y-0.2165
X0.3435Y-3.3268
X3.1998Y-0.2165
X3.1998Y-3.3268
X3.237Y-0.1268
X3.237Y-0.3063
X3.237Y-3.237
X3.237Y-3.4166
X3.3268Y-0.0896
X3.3268Y-0.3435
X3.3268Y-3.1998
X3.3268Y-3.4537
X3.4166Y-0.1268
X3.4166Y-0.3063
X3.4166Y-3.237
X3.4166Y-3.4166
X3.4537Y-0.2165
X3.4537Y-3.3268
T5
X0.2004Y-0.9909
X0.2004Y-1.0909
X0.2004Y-1.1909
X0.2004Y-1.2909
X0.2004Y-1.3909
X0.2004Y-1.4909
X0.5268Y-3.1496
X0.6268Y-3.1496
X0.7268Y-3.1496
X0.8268Y-3.1496
X1.1004Y-0.9909
X1.1004Y-1.0909
X1.1004Y-1.1909
X1.1004Y-1.2909
X1.1004Y-1.3909
X1.1004Y-1.4909
X1.1004Y-2.3909
X1.1004Y-2.4909
X1.1004Y-2.5909
X1.1004Y-2.6909
X1.1004Y-2.7909
X1.1004Y-2.8909
X1.39Y-3.3402
X1.4445Y-3.2283
X1.4547Y-0.8909
X1.4547Y-0.9909
X1.4547Y-1.0909
X1.4547Y-1.1909
X1.4547Y-1.2909
X1.4547Y-1.3909
X1.4547Y-1.4909
X1.4547Y-1.5909
X1.4547Y-1.6909
X1.499Y-3.3402
X1.5535Y-3.2283
X1.6081Y-3.3402
X1.6626Y-3.2283
X1.7171Y-3.3402
X1.7717Y-3.2283
X1.8262Y-3.3402
X1.8807Y-3.2283
X1.9352Y-3.3402
X1.9898Y-3.2283
X2.0443Y-3.3402
X2.0988Y-3.2283
X2.1533Y-3.3402
X2.7165Y-3.1496
X2.8165Y-3.1496
X2.9165Y-3.1496
X3.0165Y-3.1496
T6
X0.94Y-0.23
X2.35Y-0.23
T7
X0.84Y-0.13
X0.84Y-0.33
X1.04Y-0.13
X1.04Y-0.33
X2.25Y-0.13
X2.25Y-0.33
X2.45Y-0.13
X2.45Y-0.33
T8
X1.1161Y-3.2843
X2.4272Y-3.2843
T9
X0.2165Y-0.2165
X0.2165Y-3.3268
X3.3268Y-0.2165
X3.3268Y-3.3268
T0
M30
