%TF.GenerationSoftware,KiCad,Pcbnew,(6.0.8)*%
%TF.CreationDate,2023-02-25T01:36:39-08:00*%
%TF.ProjectId,RF_Board,52465f42-6f61-4726-942e-6b696361645f,rev?*%
%TF.SameCoordinates,Original*%
%TF.FileFunction,Soldermask,Top*%
%TF.FilePolarity,Negative*%
%FSLAX46Y46*%
G04 Gerber Fmt 4.6, Leading zero omitted, Abs format (unit mm)*
G04 Created by KiCad (PCBNEW (6.0.8)) date 2023-02-25 01:36:39*
%MOMM*%
%LPD*%
G01*
G04 APERTURE LIST*
G04 Aperture macros list*
%AMRoundRect*
0 Rectangle with rounded corners*
0 $1 Rounding radius*
0 $2 $3 $4 $5 $6 $7 $8 $9 X,Y pos of 4 corners*
0 Add a 4 corners polygon primitive as box body*
4,1,4,$2,$3,$4,$5,$6,$7,$8,$9,$2,$3,0*
0 Add four circle primitives for the rounded corners*
1,1,$1+$1,$2,$3*
1,1,$1+$1,$4,$5*
1,1,$1+$1,$6,$7*
1,1,$1+$1,$8,$9*
0 Add four rect primitives between the rounded corners*
20,1,$1+$1,$2,$3,$4,$5,0*
20,1,$1+$1,$4,$5,$6,$7,0*
20,1,$1+$1,$6,$7,$8,$9,0*
20,1,$1+$1,$8,$9,$2,$3,0*%
%AMRotRect*
0 Rectangle, with rotation*
0 The origin of the aperture is its center*
0 $1 length*
0 $2 width*
0 $3 Rotation angle, in degrees counterclockwise*
0 Add horizontal line*
21,1,$1,$2,0,0,$3*%
G04 Aperture macros list end*
%ADD10R,0.355600X0.558800*%
%ADD11R,0.558800X1.244600*%
%ADD12RoundRect,0.218750X0.218750X0.256250X-0.218750X0.256250X-0.218750X-0.256250X0.218750X-0.256250X0*%
%ADD13RoundRect,0.140000X0.170000X-0.140000X0.170000X0.140000X-0.170000X0.140000X-0.170000X-0.140000X0*%
%ADD14RoundRect,0.140000X-0.140000X-0.170000X0.140000X-0.170000X0.140000X0.170000X-0.140000X0.170000X0*%
%ADD15RoundRect,0.225000X-0.250000X0.225000X-0.250000X-0.225000X0.250000X-0.225000X0.250000X0.225000X0*%
%ADD16RoundRect,0.135000X0.135000X0.185000X-0.135000X0.185000X-0.135000X-0.185000X0.135000X-0.185000X0*%
%ADD17RoundRect,0.200000X0.200000X0.275000X-0.200000X0.275000X-0.200000X-0.275000X0.200000X-0.275000X0*%
%ADD18R,1.700000X1.700000*%
%ADD19O,1.700000X1.700000*%
%ADD20RoundRect,0.225000X0.225000X0.250000X-0.225000X0.250000X-0.225000X-0.250000X0.225000X-0.250000X0*%
%ADD21RoundRect,0.140000X0.140000X0.170000X-0.140000X0.170000X-0.140000X-0.170000X0.140000X-0.170000X0*%
%ADD22RoundRect,0.225000X-0.225000X-0.250000X0.225000X-0.250000X0.225000X0.250000X-0.225000X0.250000X0*%
%ADD23RotRect,1.400000X1.200000X225.000000*%
%ADD24R,0.203200X0.660400*%
%ADD25R,1.193800X0.609600*%
%ADD26RoundRect,0.218750X-0.218750X-0.256250X0.218750X-0.256250X0.218750X0.256250X-0.218750X0.256250X0*%
%ADD27RoundRect,0.250000X0.250000X0.475000X-0.250000X0.475000X-0.250000X-0.475000X0.250000X-0.475000X0*%
%ADD28RoundRect,0.011200X-0.768800X-0.128800X0.768800X-0.128800X0.768800X0.128800X-0.768800X0.128800X0*%
%ADD29RoundRect,0.011200X0.128800X-0.768800X0.128800X0.768800X-0.128800X0.768800X-0.128800X-0.768800X0*%
%ADD30RoundRect,0.250000X-0.650000X0.325000X-0.650000X-0.325000X0.650000X-0.325000X0.650000X0.325000X0*%
%ADD31RoundRect,0.250000X-0.475000X0.250000X-0.475000X-0.250000X0.475000X-0.250000X0.475000X0.250000X0*%
%ADD32RoundRect,0.200000X-0.200000X-0.275000X0.200000X-0.275000X0.200000X0.275000X-0.200000X0.275000X0*%
%ADD33RoundRect,0.225000X-0.017678X0.335876X-0.335876X0.017678X0.017678X-0.335876X0.335876X-0.017678X0*%
%ADD34C,1.500000*%
%ADD35C,4.650000*%
%ADD36RoundRect,0.200000X0.275000X-0.200000X0.275000X0.200000X-0.275000X0.200000X-0.275000X-0.200000X0*%
%ADD37RoundRect,0.075000X0.075000X-0.337500X0.075000X0.337500X-0.075000X0.337500X-0.075000X-0.337500X0*%
%ADD38RoundRect,0.075000X0.337500X-0.075000X0.337500X0.075000X-0.337500X0.075000X-0.337500X-0.075000X0*%
%ADD39R,2.500000X2.500000*%
%ADD40RoundRect,0.225000X0.250000X-0.225000X0.250000X0.225000X-0.250000X0.225000X-0.250000X-0.225000X0*%
%ADD41R,1.524000X3.556000*%
%ADD42R,6.000000X12.000000*%
%ADD43RoundRect,0.147500X-0.147500X-0.172500X0.147500X-0.172500X0.147500X0.172500X-0.147500X0.172500X0*%
%ADD44R,0.249999X0.499999*%
%ADD45R,1.599999X0.900001*%
%ADD46R,0.304800X0.558800*%
%ADD47R,0.431800X1.397000*%
%ADD48RoundRect,0.147500X0.172500X-0.147500X0.172500X0.147500X-0.172500X0.147500X-0.172500X-0.147500X0*%
%ADD49RoundRect,0.200000X-0.275000X0.200000X-0.275000X-0.200000X0.275000X-0.200000X0.275000X0.200000X0*%
%ADD50R,0.254000X0.660400*%
%ADD51R,1.651000X0.889000*%
%ADD52C,2.050000*%
%ADD53C,2.250000*%
%ADD54RoundRect,0.150000X0.587500X0.150000X-0.587500X0.150000X-0.587500X-0.150000X0.587500X-0.150000X0*%
%ADD55R,0.600000X0.700000*%
%ADD56RoundRect,0.250000X-0.325000X-0.650000X0.325000X-0.650000X0.325000X0.650000X-0.325000X0.650000X0*%
%ADD57C,0.900000*%
%ADD58C,8.600000*%
%ADD59RoundRect,0.150000X-0.587500X-0.150000X0.587500X-0.150000X0.587500X0.150000X-0.587500X0.150000X0*%
%ADD60RoundRect,0.225000X0.335876X0.017678X0.017678X0.335876X-0.335876X-0.017678X-0.017678X-0.335876X0*%
%ADD61RoundRect,0.150000X0.825000X0.150000X-0.825000X0.150000X-0.825000X-0.150000X0.825000X-0.150000X0*%
%ADD62RoundRect,0.250000X0.650000X-0.325000X0.650000X0.325000X-0.650000X0.325000X-0.650000X-0.325000X0*%
%ADD63RoundRect,0.062500X0.062500X-0.425000X0.062500X0.425000X-0.062500X0.425000X-0.062500X-0.425000X0*%
%ADD64RoundRect,0.062500X0.425000X-0.062500X0.425000X0.062500X-0.425000X0.062500X-0.425000X-0.062500X0*%
%ADD65R,2.400000X2.400000*%
%ADD66R,1.295400X0.965200*%
%ADD67R,1.803400X1.041400*%
%ADD68R,1.244600X0.609600*%
G04 APERTURE END LIST*
D10*
%TO.C,U9*%
X68830063Y-23379300D03*
D11*
X69477763Y-24408000D03*
D10*
X68830063Y-25436700D03*
D11*
X68182363Y-24408000D03*
%TD*%
D12*
%TO.C,L1*%
X72695000Y-40386000D03*
X71120000Y-40386000D03*
%TD*%
D13*
%TO.C,C35*%
X57658000Y-56656000D03*
X57658000Y-55696000D03*
%TD*%
D14*
%TO.C,C21*%
X46993004Y-30891282D03*
X47953004Y-30891282D03*
%TD*%
D15*
%TO.C,C15*%
X55245000Y-38481000D03*
X55245000Y-40031000D03*
%TD*%
D16*
%TO.C,R23*%
X35814000Y-54549000D03*
X34794000Y-54549000D03*
%TD*%
D14*
%TO.C,C29*%
X55908000Y-63500000D03*
X56868000Y-63500000D03*
%TD*%
D17*
%TO.C,R12*%
X77825000Y-5500000D03*
X76175000Y-5500000D03*
%TD*%
D12*
%TO.C,D6*%
X8122500Y-75971000D03*
X6547500Y-75971000D03*
%TD*%
D18*
%TO.C,J6*%
X27949000Y-25168000D03*
D19*
X27949000Y-27708000D03*
X27949000Y-30248000D03*
X27949000Y-32788000D03*
X27949000Y-35328000D03*
X27949000Y-37868000D03*
%TD*%
D20*
%TO.C,R5*%
X53873000Y-68834000D03*
X52323000Y-68834000D03*
%TD*%
D21*
%TO.C,C1*%
X53058000Y-47498000D03*
X52098000Y-47498000D03*
%TD*%
D22*
%TO.C,C41*%
X72307000Y-67157600D03*
X73857000Y-67157600D03*
%TD*%
D14*
%TO.C,C22*%
X47935000Y-27966000D03*
X48895000Y-27966000D03*
%TD*%
D23*
%TO.C,Y1*%
X66057865Y-68784315D03*
X64502230Y-70339950D03*
X63300149Y-69137869D03*
X64855784Y-67582234D03*
%TD*%
D22*
%TO.C,C23*%
X55109000Y-36957000D03*
X56659000Y-36957000D03*
%TD*%
D21*
%TO.C,C32*%
X58618000Y-57550000D03*
X57658000Y-57550000D03*
%TD*%
D15*
%TO.C,C55*%
X71501000Y-84201000D03*
X71501000Y-85751000D03*
%TD*%
D24*
%TO.C,U6*%
X48564800Y-44923900D03*
X49225200Y-44923900D03*
X49885600Y-44923900D03*
X49885600Y-42968100D03*
X49225200Y-42968100D03*
X48564800Y-42968100D03*
D25*
X49225200Y-43946000D03*
%TD*%
D15*
%TO.C,C47*%
X58420000Y-72645000D03*
X58420000Y-74195000D03*
%TD*%
D26*
%TO.C,D4*%
X45161000Y-50800000D03*
X46736000Y-50800000D03*
%TD*%
D17*
%TO.C,R2*%
X45518000Y-39497000D03*
X43868000Y-39497000D03*
%TD*%
D27*
%TO.C,C50*%
X48636000Y-52705000D03*
X46736000Y-52705000D03*
%TD*%
D15*
%TO.C,C54*%
X51689000Y-43307000D03*
X51689000Y-44857000D03*
%TD*%
D28*
%TO.C,U2*%
X78370000Y-62020000D03*
X78370000Y-62520000D03*
X78370000Y-63020000D03*
X78370000Y-63520000D03*
X78370000Y-64020000D03*
X78370000Y-64520000D03*
X78370000Y-65020000D03*
X78370000Y-65520000D03*
X78370000Y-66020000D03*
X78370000Y-66520000D03*
X78370000Y-67020000D03*
X78370000Y-67520000D03*
D29*
X79800000Y-68950000D03*
X80300000Y-68950000D03*
X80800000Y-68950000D03*
X81300000Y-68950000D03*
X81800000Y-68950000D03*
X82300000Y-68950000D03*
X82800000Y-68950000D03*
X83300000Y-68950000D03*
X83800000Y-68950000D03*
X84300000Y-68950000D03*
X84800000Y-68950000D03*
X85300000Y-68950000D03*
D28*
X86730000Y-67520000D03*
X86730000Y-67020000D03*
X86730000Y-66520000D03*
X86730000Y-66020000D03*
X86730000Y-65520000D03*
X86730000Y-65020000D03*
X86730000Y-64520000D03*
X86730000Y-64020000D03*
X86730000Y-63520000D03*
X86730000Y-63020000D03*
X86730000Y-62520000D03*
X86730000Y-62020000D03*
D29*
X85300000Y-60590000D03*
X84800000Y-60590000D03*
X84300000Y-60590000D03*
X83800000Y-60590000D03*
X83300000Y-60590000D03*
X82800000Y-60590000D03*
X82300000Y-60590000D03*
X81800000Y-60590000D03*
X81300000Y-60590000D03*
X80800000Y-60590000D03*
X80300000Y-60590000D03*
X79800000Y-60590000D03*
%TD*%
D17*
%TO.C,R25*%
X17525000Y-82677000D03*
X15875000Y-82677000D03*
%TD*%
D26*
%TO.C,D5*%
X66675000Y-60325000D03*
X68250000Y-60325000D03*
%TD*%
D22*
%TO.C,C42*%
X5943000Y-64414400D03*
X7493000Y-64414400D03*
%TD*%
D27*
%TO.C,C53*%
X38730000Y-52705000D03*
X36830000Y-52705000D03*
%TD*%
D30*
%TO.C,C39*%
X73660000Y-59788000D03*
X73660000Y-62738000D03*
%TD*%
D31*
%TO.C,C7*%
X75946000Y-38486000D03*
X75946000Y-40386000D03*
%TD*%
D32*
%TO.C,R13*%
X12175000Y-5500000D03*
X13825000Y-5500000D03*
%TD*%
D33*
%TO.C,C33*%
X67009016Y-70150984D03*
X65913000Y-71247000D03*
%TD*%
D18*
%TO.C,J9*%
X36949000Y-22628000D03*
D19*
X36949000Y-25168000D03*
X36949000Y-27708000D03*
X36949000Y-30248000D03*
X36949000Y-32788000D03*
X36949000Y-35328000D03*
X36949000Y-37868000D03*
X36949000Y-40408000D03*
X36949000Y-42948000D03*
%TD*%
D13*
%TO.C,C28*%
X56868000Y-65480000D03*
X56868000Y-64520000D03*
%TD*%
%TO.C,C9*%
X49225200Y-41755000D03*
X49225200Y-40795000D03*
%TD*%
D34*
%TO.C,J8*%
X35305000Y-84840000D03*
X38075000Y-84840000D03*
X40845000Y-84840000D03*
X43615000Y-84840000D03*
X46385000Y-84840000D03*
X49155000Y-84840000D03*
X51925000Y-84840000D03*
X54695000Y-84840000D03*
X36690000Y-82000000D03*
X39460000Y-82000000D03*
X42230000Y-82000000D03*
X45000000Y-82000000D03*
X47770000Y-82000000D03*
X50540000Y-82000000D03*
X53310000Y-82000000D03*
D35*
X28350000Y-83420000D03*
X61650000Y-83420000D03*
%TD*%
D36*
%TO.C,R3*%
X51689000Y-41909000D03*
X51689000Y-40259000D03*
%TD*%
D18*
%TO.C,J7*%
X27949000Y-60728000D03*
D19*
X27949000Y-63268000D03*
X27949000Y-65808000D03*
X27949000Y-68348000D03*
X27949000Y-70888000D03*
X27949000Y-73428000D03*
%TD*%
D37*
%TO.C,U7*%
X47920000Y-39402500D03*
X48570000Y-39402500D03*
X49220000Y-39402500D03*
X49870000Y-39402500D03*
D38*
X50832500Y-38440000D03*
X50832500Y-37790000D03*
X50832500Y-37140000D03*
X50832500Y-36490000D03*
D37*
X49870000Y-35527500D03*
X49220000Y-35527500D03*
X48570000Y-35527500D03*
X47920000Y-35527500D03*
D38*
X46957500Y-36490000D03*
X46957500Y-37140000D03*
X46957500Y-37790000D03*
X46957500Y-38440000D03*
D39*
X48895000Y-37465000D03*
%TD*%
D22*
%TO.C,C12*%
X59811499Y-54102000D03*
X61361499Y-54102000D03*
%TD*%
D18*
%TO.C,J5*%
X5089000Y-25168000D03*
D19*
X5089000Y-27708000D03*
X5089000Y-30248000D03*
X5089000Y-32788000D03*
X5089000Y-35328000D03*
X5089000Y-37868000D03*
%TD*%
D40*
%TO.C,C38*%
X75692000Y-62738000D03*
X75692000Y-61188000D03*
%TD*%
D17*
%TO.C,R24*%
X73151000Y-82677000D03*
X71501000Y-82677000D03*
%TD*%
D41*
%TO.C,U13*%
X9876000Y-49784000D03*
X11876000Y-49784000D03*
X13876000Y-49784000D03*
X15876000Y-49784000D03*
X17876000Y-49784000D03*
X19876000Y-49784000D03*
X21876000Y-49784000D03*
X23876000Y-49784000D03*
X9876000Y-14478000D03*
X11876000Y-14478000D03*
X13876000Y-14478000D03*
X15876000Y-14478000D03*
X17876000Y-14478000D03*
X19876000Y-14478000D03*
X21876000Y-14478000D03*
X23876000Y-14478000D03*
D42*
X15376000Y-28978000D03*
%TD*%
D13*
%TO.C,C2*%
X68834000Y-42870000D03*
X68834000Y-41910000D03*
%TD*%
D43*
%TO.C,L4*%
X58420000Y-63500000D03*
X59390000Y-63500000D03*
%TD*%
D44*
%TO.C,U15*%
X35331002Y-57531001D03*
X35831001Y-57531001D03*
X36331003Y-57531001D03*
X36831001Y-57531001D03*
X36831001Y-55630999D03*
X36331003Y-55630999D03*
X35831001Y-55630999D03*
X35331002Y-55630999D03*
D45*
X36081000Y-56581000D03*
%TD*%
D46*
%TO.C,D1*%
X49576401Y-57850999D03*
X50271599Y-57850999D03*
%TD*%
D15*
%TO.C,C36*%
X53848000Y-70358000D03*
X53848000Y-71908000D03*
%TD*%
D13*
%TO.C,C27*%
X58420000Y-65480000D03*
X58420000Y-64520000D03*
%TD*%
D15*
%TO.C,C26*%
X59944000Y-72645000D03*
X59944000Y-74195000D03*
%TD*%
D47*
%TO.C,U4*%
X56358000Y-54102000D03*
X57007998Y-54102000D03*
X57658000Y-54102000D03*
X58307998Y-54102000D03*
X58307998Y-49707800D03*
X57658000Y-49707800D03*
X57007998Y-49707800D03*
X56358000Y-49707800D03*
%TD*%
D20*
%TO.C,C13*%
X57404000Y-14097000D03*
X55854000Y-14097000D03*
%TD*%
D22*
%TO.C,C46*%
X52298000Y-67360000D03*
X53848000Y-67360000D03*
%TD*%
D48*
%TO.C,L6*%
X57658000Y-59436000D03*
X57658000Y-58466000D03*
%TD*%
D32*
%TO.C,R14*%
X12175000Y-84500000D03*
X13825000Y-84500000D03*
%TD*%
D21*
%TO.C,C31*%
X58618000Y-60325000D03*
X57658000Y-60325000D03*
%TD*%
D49*
%TO.C,R16*%
X64922500Y-61469000D03*
X64922500Y-63119000D03*
%TD*%
D50*
%TO.C,U10*%
X69330189Y-38310300D03*
X68830063Y-38310300D03*
X68329937Y-38310300D03*
X67829811Y-38310300D03*
X67829811Y-40367700D03*
X68329937Y-40367700D03*
X68830063Y-40367700D03*
X69330189Y-40367700D03*
D51*
X68580000Y-39339000D03*
%TD*%
D13*
%TO.C,C30*%
X58420000Y-62428000D03*
X58420000Y-61468000D03*
%TD*%
D15*
%TO.C,C14*%
X53721000Y-38481000D03*
X53721000Y-40031000D03*
%TD*%
D32*
%TO.C,R4*%
X52197000Y-36957000D03*
X53847000Y-36957000D03*
%TD*%
D44*
%TO.C,U14*%
X45237002Y-57531000D03*
X45737001Y-57531000D03*
X46237003Y-57531000D03*
X46737001Y-57531000D03*
X46737001Y-55630998D03*
X46237003Y-55630998D03*
X45737001Y-55630998D03*
X45237002Y-55630998D03*
D45*
X45987000Y-56580999D03*
%TD*%
D16*
%TO.C,R20*%
X45720000Y-54548999D03*
X44700000Y-54548999D03*
%TD*%
D15*
%TO.C,C51*%
X38113003Y-57645000D03*
X38113003Y-59195000D03*
%TD*%
D48*
%TO.C,L5*%
X56868000Y-62461000D03*
X56868000Y-61491000D03*
%TD*%
D31*
%TO.C,C10*%
X75946000Y-32136000D03*
X75946000Y-34036000D03*
%TD*%
D32*
%TO.C,R8*%
X80455000Y-55626000D03*
X82105000Y-55626000D03*
%TD*%
D16*
%TO.C,R21*%
X36843000Y-59121000D03*
X35823000Y-59121000D03*
%TD*%
D15*
%TO.C,C8*%
X74168000Y-38836000D03*
X74168000Y-40386000D03*
%TD*%
D17*
%TO.C,R6*%
X33756500Y-50800000D03*
X32106500Y-50800000D03*
%TD*%
D32*
%TO.C,R9*%
X78677000Y-58674000D03*
X80327000Y-58674000D03*
%TD*%
D52*
%TO.C,J3*%
X23876000Y-5842000D03*
D53*
X26416000Y-8382000D03*
X21336000Y-8382000D03*
X26416000Y-3302000D03*
X21336000Y-3302000D03*
%TD*%
D21*
%TO.C,C6*%
X65250000Y-20320000D03*
X64290000Y-20320000D03*
%TD*%
D54*
%TO.C,Q1*%
X68908000Y-64069000D03*
X68908000Y-62169000D03*
X67033000Y-63119000D03*
%TD*%
D15*
%TO.C,C11*%
X74168000Y-32486000D03*
X74168000Y-34036000D03*
%TD*%
D55*
%TO.C,D2*%
X46736000Y-54356000D03*
X48136000Y-54356000D03*
%TD*%
D56*
%TO.C,C37*%
X49628000Y-65278000D03*
X52578000Y-65278000D03*
%TD*%
D22*
%TO.C,C44*%
X5943000Y-67157600D03*
X7493000Y-67157600D03*
%TD*%
D16*
%TO.C,R18*%
X46749000Y-59120999D03*
X45729000Y-59120999D03*
%TD*%
D14*
%TO.C,C5*%
X54130000Y-20320000D03*
X55090000Y-20320000D03*
%TD*%
D13*
%TO.C,C4*%
X68830063Y-29388000D03*
X68830063Y-28428000D03*
%TD*%
D57*
%TO.C,H3*%
X5500000Y-81275000D03*
X7780419Y-82219581D03*
X8725000Y-84500000D03*
X5500000Y-87725000D03*
D58*
X5500000Y-84500000D03*
D57*
X7780419Y-86780419D03*
X3219581Y-86780419D03*
X3219581Y-82219581D03*
X2275000Y-84500000D03*
%TD*%
D32*
%TO.C,R10*%
X79634000Y-57150000D03*
X81284000Y-57150000D03*
%TD*%
D40*
%TO.C,C19*%
X51943000Y-33020000D03*
X51943000Y-31470000D03*
%TD*%
D28*
%TO.C,U1*%
X12330000Y-62020000D03*
X12330000Y-62520000D03*
X12330000Y-63020000D03*
X12330000Y-63520000D03*
X12330000Y-64020000D03*
X12330000Y-64520000D03*
X12330000Y-65020000D03*
X12330000Y-65520000D03*
X12330000Y-66020000D03*
X12330000Y-66520000D03*
X12330000Y-67020000D03*
X12330000Y-67520000D03*
D29*
X13760000Y-68950000D03*
X14260000Y-68950000D03*
X14760000Y-68950000D03*
X15260000Y-68950000D03*
X15760000Y-68950000D03*
X16260000Y-68950000D03*
X16760000Y-68950000D03*
X17260000Y-68950000D03*
X17760000Y-68950000D03*
X18260000Y-68950000D03*
X18760000Y-68950000D03*
X19260000Y-68950000D03*
D28*
X20690000Y-67520000D03*
X20690000Y-67020000D03*
X20690000Y-66520000D03*
X20690000Y-66020000D03*
X20690000Y-65520000D03*
X20690000Y-65020000D03*
X20690000Y-64520000D03*
X20690000Y-64020000D03*
X20690000Y-63520000D03*
X20690000Y-63020000D03*
X20690000Y-62520000D03*
X20690000Y-62020000D03*
D29*
X19260000Y-60590000D03*
X18760000Y-60590000D03*
X18260000Y-60590000D03*
X17760000Y-60590000D03*
X17260000Y-60590000D03*
X16760000Y-60590000D03*
X16260000Y-60590000D03*
X15760000Y-60590000D03*
X15260000Y-60590000D03*
X14760000Y-60590000D03*
X14260000Y-60590000D03*
X13760000Y-60590000D03*
%TD*%
D16*
%TO.C,R22*%
X34811000Y-59121000D03*
X33791000Y-59121000D03*
%TD*%
D57*
%TO.C,H4*%
X82219581Y-86780419D03*
X82219581Y-82219581D03*
X84500000Y-87725000D03*
X81275000Y-84500000D03*
X86780419Y-82219581D03*
X87725000Y-84500000D03*
X86780419Y-86780419D03*
X84500000Y-81275000D03*
D58*
X84500000Y-84500000D03*
%TD*%
D59*
%TO.C,Q2*%
X6047500Y-72075000D03*
X6047500Y-73975000D03*
X7922500Y-73025000D03*
%TD*%
D17*
%TO.C,R11*%
X85552000Y-52578000D03*
X83902000Y-52578000D03*
%TD*%
%TO.C,R7*%
X43662500Y-50800000D03*
X42012500Y-50800000D03*
%TD*%
D58*
%TO.C,H2*%
X5500000Y-5500000D03*
D57*
X3219581Y-7780419D03*
X2275000Y-5500000D03*
X3219581Y-3219581D03*
X7780419Y-3219581D03*
X5500000Y-8725000D03*
X5500000Y-2275000D03*
X8725000Y-5500000D03*
X7780419Y-7780419D03*
%TD*%
D20*
%TO.C,C52*%
X34049000Y-57531000D03*
X32499000Y-57531000D03*
%TD*%
D60*
%TO.C,C34*%
X66040000Y-66167000D03*
X67136016Y-67263016D03*
%TD*%
D50*
%TO.C,U11*%
X69330189Y-31991300D03*
X68830063Y-31991300D03*
X68329937Y-31991300D03*
X67829811Y-31991300D03*
X67829811Y-34048700D03*
X68329937Y-34048700D03*
X68830063Y-34048700D03*
X69330189Y-34048700D03*
D51*
X68580000Y-33020000D03*
%TD*%
D49*
%TO.C,R1*%
X56769000Y-38481000D03*
X56769000Y-40131000D03*
%TD*%
D40*
%TO.C,C43*%
X9652000Y-62738000D03*
X9652000Y-61188000D03*
%TD*%
D20*
%TO.C,C49*%
X43968000Y-57531000D03*
X42418000Y-57531000D03*
%TD*%
%TO.C,C25*%
X78486000Y-50800000D03*
X76936000Y-50800000D03*
%TD*%
D15*
%TO.C,C56*%
X15875000Y-84201000D03*
X15875000Y-85751000D03*
%TD*%
D13*
%TO.C,C3*%
X68830063Y-36548000D03*
X68830063Y-35588000D03*
%TD*%
D18*
%TO.C,J2*%
X76620000Y-80000000D03*
D19*
X74080000Y-80000000D03*
X71540000Y-80000000D03*
X69000000Y-80000000D03*
%TD*%
D55*
%TO.C,D8*%
X36830000Y-54356000D03*
X38230000Y-54356000D03*
%TD*%
D15*
%TO.C,C48*%
X48273006Y-57645000D03*
X48273006Y-59195000D03*
%TD*%
D47*
%TO.C,U5*%
X60990000Y-14058900D03*
X60340002Y-14058900D03*
X59690000Y-14058900D03*
X59040002Y-14058900D03*
X59040002Y-18453100D03*
X59690000Y-18453100D03*
X60340002Y-18453100D03*
X60990000Y-18453100D03*
%TD*%
D14*
%TO.C,C16*%
X49276000Y-34290000D03*
X50236000Y-34290000D03*
%TD*%
D52*
%TO.C,J1*%
X59690000Y-5842000D03*
D53*
X57150000Y-3302000D03*
X62230000Y-8382000D03*
X57150000Y-8382000D03*
X62230000Y-3302000D03*
%TD*%
D61*
%TO.C,U12*%
X85533000Y-50800000D03*
X85533000Y-49530000D03*
X85533000Y-48260000D03*
X85533000Y-46990000D03*
X85533000Y-45720000D03*
X85533000Y-44450000D03*
X85533000Y-43180000D03*
X80583000Y-43180000D03*
X80583000Y-44450000D03*
X80583000Y-45720000D03*
X80583000Y-46990000D03*
X80583000Y-48260000D03*
X80583000Y-49530000D03*
X80583000Y-50800000D03*
%TD*%
D48*
%TO.C,L3*%
X48895000Y-29980000D03*
X48895000Y-29010000D03*
%TD*%
D62*
%TO.C,C18*%
X53848000Y-33020000D03*
X53848000Y-30070000D03*
%TD*%
D63*
%TO.C,U3*%
X56404000Y-71137500D03*
X56904000Y-71137500D03*
X57404000Y-71137500D03*
X57904000Y-71137500D03*
X58404000Y-71137500D03*
D64*
X59291500Y-70250000D03*
X59291500Y-69750000D03*
X59291500Y-69250000D03*
X59291500Y-68750000D03*
X59291500Y-68250000D03*
D63*
X58404000Y-67362500D03*
X57904000Y-67362500D03*
X57404000Y-67362500D03*
X56904000Y-67362500D03*
X56404000Y-67362500D03*
D64*
X55516500Y-68250000D03*
X55516500Y-68750000D03*
X55516500Y-69250000D03*
X55516500Y-69750000D03*
X55516500Y-70250000D03*
D65*
X57404000Y-69250000D03*
%TD*%
D66*
%TO.C,Y3*%
X9271000Y-64414400D03*
X9271000Y-67157600D03*
%TD*%
D26*
%TO.C,D3*%
X35255000Y-50800000D03*
X36830000Y-50800000D03*
%TD*%
D21*
%TO.C,C17*%
X48514000Y-34290000D03*
X47554000Y-34290000D03*
%TD*%
D67*
%TO.C,U8*%
X48895000Y-26035000D03*
D68*
X49822100Y-24409400D03*
D67*
X48895000Y-22783800D03*
D68*
X47967900Y-24409400D03*
%TD*%
D13*
%TO.C,C20*%
X48895000Y-31849000D03*
X48895000Y-30889000D03*
%TD*%
D66*
%TO.C,Y2*%
X75692000Y-64414400D03*
X75692000Y-67157600D03*
%TD*%
D22*
%TO.C,C40*%
X72307000Y-64414400D03*
X73857000Y-64414400D03*
%TD*%
D36*
%TO.C,R17*%
X9875000Y-74827000D03*
X9875000Y-73177000D03*
%TD*%
D16*
%TO.C,R19*%
X44717000Y-59120999D03*
X43697000Y-59120999D03*
%TD*%
D13*
%TO.C,C24*%
X59690000Y-11910000D03*
X59690000Y-10950000D03*
%TD*%
D17*
%TO.C,R15*%
X77825000Y-84500000D03*
X76175000Y-84500000D03*
%TD*%
D18*
%TO.C,J4*%
X21000000Y-80000000D03*
D19*
X18460000Y-80000000D03*
X15920000Y-80000000D03*
X13380000Y-80000000D03*
%TD*%
D57*
%TO.C,H1*%
X84500000Y-8725000D03*
X81275000Y-5500000D03*
X86780419Y-7780419D03*
X87725000Y-5500000D03*
X86780419Y-3219581D03*
D58*
X84500000Y-5500000D03*
D57*
X82219581Y-7780419D03*
X84500000Y-2275000D03*
X82219581Y-3219581D03*
%TD*%
D12*
%TO.C,L2*%
X72695000Y-34036000D03*
X71120000Y-34036000D03*
%TD*%
%TO.C,L7*%
X50470000Y-33020000D03*
X48895000Y-33020000D03*
%TD*%
D30*
%TO.C,C45*%
X7620000Y-59788000D03*
X7620000Y-62738000D03*
%TD*%
D46*
%TO.C,D7*%
X39543404Y-57851000D03*
X40238602Y-57851000D03*
%TD*%
M02*
